# Blender v3.2.0 OBJ File: 'hoop.blend'
# www.blender.org
mtllib hoop.mtl
o Cylinder
v 0.000000 -1.000000 -1.000000
v 0.000000 1.000000 -1.000000
v 0.195090 -1.000000 -0.980785
v 0.195090 1.000000 -0.980785
v 0.382683 -1.000000 -0.923880
v 0.382683 1.000000 -0.923880
v 0.555570 -1.000000 -0.831470
v 0.555570 1.000000 -0.831470
v 0.707107 -1.000000 -0.707107
v 0.707107 1.000000 -0.707107
v 0.831470 -1.000000 -0.555570
v 0.831470 1.000000 -0.555570
v 0.923880 -1.000000 -0.382683
v 0.923880 1.000000 -0.382683
v 0.980785 -1.000000 -0.195090
v 0.980785 1.000000 -0.195090
v 1.000000 -1.000000 0.000000
v 1.000000 1.000000 0.000000
v 0.980785 -1.000000 0.195090
v 0.980785 1.000000 0.195090
v 0.923880 -1.000000 0.382683
v 0.923880 1.000000 0.382683
v 0.831470 -1.000000 0.555570
v 0.831470 1.000000 0.555570
v 0.707107 -1.000000 0.707107
v 0.707107 1.000000 0.707107
v 0.555570 -1.000000 0.831470
v 0.555570 1.000000 0.831470
v 0.382683 -1.000000 0.923880
v 0.382683 1.000000 0.923880
v 0.195090 -1.000000 0.980785
v 0.195090 1.000000 0.980785
v -0.000000 -1.000000 1.000000
v -0.000000 1.000000 1.000000
v -0.195090 -1.000000 0.980785
v -0.195090 1.000000 0.980785
v -0.382683 -1.000000 0.923880
v -0.382683 1.000000 0.923880
v -0.555570 -1.000000 0.831470
v -0.555570 1.000000 0.831470
v -0.707107 -1.000000 0.707107
v -0.707107 1.000000 0.707107
v -0.831469 -1.000000 0.555570
v -0.831469 1.000000 0.555570
v -0.923880 -1.000000 0.382684
v -0.923880 1.000000 0.382684
v -0.980785 -1.000000 0.195090
v -0.980785 1.000000 0.195090
v -1.000000 -1.000000 -0.000000
v -1.000000 1.000000 -0.000000
v -0.980785 -1.000000 -0.195090
v -0.980785 1.000000 -0.195090
v -0.923879 -1.000000 -0.382684
v -0.923879 1.000000 -0.382684
v -0.831470 -1.000000 -0.555570
v -0.831470 1.000000 -0.555570
v -0.707107 -1.000000 -0.707107
v -0.707107 1.000000 -0.707107
v -0.555570 -1.000000 -0.831470
v -0.555570 1.000000 -0.831470
v -0.382683 -1.000000 -0.923880
v -0.382683 1.000000 -0.923880
v -0.195090 -1.000000 -0.980785
v -0.195090 1.000000 -0.980785
v 0.195091 14.277594 -0.980785
v 0.000001 14.277594 -1.000000
v 0.382684 14.277594 -0.923880
v 0.555571 14.277594 -0.831470
v 0.707107 14.277594 -0.707107
v 0.831470 14.277594 -0.555570
v 0.923880 14.277594 -0.382683
v 0.980786 14.277594 -0.195090
v 1.000001 14.277594 0.000000
v 0.980786 14.277594 0.195090
v 0.923880 14.277594 0.382683
v 0.831470 14.277594 0.555570
v 0.707107 14.277594 0.707107
v 0.555571 14.277594 0.831470
v 0.382684 14.277594 0.923880
v 0.195091 14.277594 0.980785
v 0.000001 14.277594 1.000000
v -0.195090 14.277594 0.980785
v -0.382683 14.277594 0.923880
v -0.555570 14.277594 0.831470
v -0.707106 14.277594 0.707107
v -0.831469 14.277594 0.555570
v -0.923879 14.277594 0.382684
v -0.980785 14.277594 0.195090
v -0.999999 14.277594 -0.000000
v -0.980785 14.277594 -0.195090
v -0.923879 14.277594 -0.382684
v -0.831469 14.277594 -0.555570
v -0.707106 14.277594 -0.707107
v -0.555570 14.277594 -0.831470
v -0.382683 14.277594 -0.923880
v -0.195090 14.277594 -0.980785
v 0.195093 36.249695 -0.980785
v 0.000003 36.249695 -1.000000
v 0.382687 36.249695 -0.923880
v 0.555573 36.249695 -0.831470
v 0.707110 36.249695 -0.707107
v 0.831473 36.249695 -0.555570
v 0.923883 36.249695 -0.382683
v 0.980788 36.249695 -0.195090
v 1.000003 36.249695 0.000000
v 0.980788 36.249695 0.195090
v 0.923883 36.249695 0.382683
v 0.831473 36.249695 0.555570
v 0.707110 36.249695 0.707107
v 0.555573 36.249695 0.831470
v 0.382687 36.249695 0.923880
v 0.195093 36.249695 0.980785
v 0.000003 36.249695 1.000000
v -0.195087 36.249695 0.980785
v -0.382680 36.249695 0.923880
v -0.555567 36.249695 0.831470
v -0.707104 36.249695 0.707107
v -0.831466 36.249695 0.555570
v -0.923876 36.249695 0.382684
v -0.980782 36.249695 0.195090
v -0.999997 36.249695 -0.000000
v -0.980782 36.249695 -0.195090
v -0.923876 36.249695 -0.382684
v -0.831467 36.249695 -0.555570
v -0.707104 36.249695 -0.707107
v -0.555567 36.249695 -0.831470
v -0.382680 36.249695 -0.923880
v -0.195087 36.249695 -0.980785
v 0.195079 43.082642 -0.846043
v -0.000012 43.096462 -0.862618
v 0.382672 43.041702 -0.796955
v 0.555558 42.975224 -0.717241
v 0.707095 42.885757 -0.609963
v 0.831458 42.776745 -0.479245
v 0.923868 42.652370 -0.330110
v 0.980773 42.517418 -0.168288
v 0.999988 42.377071 0.000000
v 0.980773 42.236725 0.168288
v 0.923868 42.101772 0.330110
v 0.831458 41.977398 0.479245
v 0.707095 41.868385 0.609963
v 0.555558 41.778919 0.717241
v 0.382672 41.712440 0.796955
v 0.195078 41.671501 0.846043
v -0.000012 41.657681 0.862618
v -0.195102 41.671501 0.846043
v -0.382695 41.712440 0.796955
v -0.555582 41.778919 0.717241
v -0.707119 41.868385 0.609963
v -0.831481 41.977398 0.479245
v -0.923891 42.101772 0.330110
v -0.980797 42.236725 0.168289
v -1.000012 42.377071 -0.000000
v -0.980797 42.517418 -0.168289
v -0.923891 42.652370 -0.330110
v -0.831482 42.776745 -0.479245
v -0.707119 42.885757 -0.609963
v -0.555582 42.975224 -0.717241
v -0.382695 43.041702 -0.796955
v -0.195102 43.082642 -0.846043
v 0.161892 43.108742 5.186813
v -0.000018 43.123768 5.186615
v 0.317579 43.064251 5.187402
v 0.461062 42.992004 5.188365
v 0.586825 42.894764 5.189652
v 0.690036 42.776291 5.191229
v 0.766729 42.641117 5.193024
v 0.813957 42.494442 5.194968
v 0.829903 42.341908 5.196996
v 0.813957 42.189373 5.199019
v 0.766729 42.042706 5.200970
v 0.690036 41.907536 5.202764
v 0.586825 41.789055 5.204336
v 0.461062 41.691822 5.205628
v 0.317579 41.619572 5.206585
v 0.161892 41.575077 5.207176
v -0.000018 41.560055 5.207379
v -0.161928 41.575077 5.207176
v -0.317615 41.619572 5.206585
v -0.461098 41.691822 5.205628
v -0.586861 41.789055 5.204336
v -0.690073 41.907536 5.202764
v -0.766766 42.042706 5.200970
v -0.813993 42.189373 5.199019
v -0.829940 42.341908 5.196996
v -0.813993 42.494442 5.194968
v -0.766766 42.641117 5.193023
v -0.690073 42.776291 5.191229
v -0.586861 42.894764 5.189652
v -0.461098 42.992004 5.188365
v -0.317615 43.064251 5.187402
v -0.161928 43.108742 5.186813
v 0.000000 36.222431 -0.585615
v 0.000000 39.754608 3.363195
v 0.128540 36.212997 -0.577175
v 0.128540 39.745171 3.371635
v 0.252141 36.185051 -0.552178
v 0.252141 39.717228 3.396633
v 0.366052 36.139671 -0.511585
v 0.366052 39.671844 3.437225
v 0.465896 36.078598 -0.456957
v 0.465896 39.610775 3.491854
v 0.547835 36.004181 -0.390392
v 0.547835 39.536358 3.558419
v 0.608722 35.919281 -0.314448
v 0.608722 39.451454 3.634362
v 0.646216 35.827156 -0.232045
v 0.646216 39.359333 3.716766
v 0.658876 35.731350 -0.146348
v 0.658876 39.263527 3.802464
v 0.646216 35.635544 -0.060651
v 0.646216 39.167717 3.888160
v 0.608722 35.543419 0.021753
v 0.608722 39.075596 3.970564
v 0.547835 35.458519 0.097697
v 0.547835 38.990696 4.046508
v 0.465896 35.384102 0.164262
v 0.465896 38.916279 4.113073
v 0.366052 35.323032 0.218891
v 0.366052 38.855206 4.167701
v 0.252141 35.277649 0.259483
v 0.252141 38.809826 4.208294
v 0.128540 35.249702 0.284479
v 0.128540 38.781879 4.233291
v -0.000000 35.240269 0.292920
v -0.000000 38.772446 4.241731
v -0.128540 35.249702 0.284479
v -0.128540 38.781879 4.233291
v -0.252141 35.277649 0.259483
v -0.252141 38.809826 4.208294
v -0.366052 35.323032 0.218890
v -0.366052 38.855206 4.167701
v -0.465896 35.384102 0.164262
v -0.465896 38.916279 4.113073
v -0.547835 35.458519 0.097697
v -0.547835 38.990696 4.046508
v -0.608722 35.543419 0.021753
v -0.608722 39.075596 3.970564
v -0.646216 35.635544 -0.060651
v -0.646216 39.167717 3.888160
v -0.658876 35.731350 -0.146348
v -0.658876 39.263527 3.802464
v -0.646216 35.827156 -0.232045
v -0.646216 39.359333 3.716766
v -0.608722 35.919281 -0.314448
v -0.608722 39.451454 3.634362
v -0.547835 36.004181 -0.390392
v -0.547835 39.536358 3.558419
v -0.465896 36.078598 -0.456957
v -0.465896 39.610775 3.491854
v -0.366052 36.139671 -0.511585
v -0.366052 39.671844 3.437225
v -0.252141 36.185051 -0.552178
v -0.252141 39.717228 3.396633
v -0.128540 36.212997 -0.577175
v -0.128540 39.745171 3.371635
v 0.128553 42.941704 6.945218
v 0.000012 42.951141 6.936777
v 0.252153 42.913761 6.970215
v 0.366064 42.868378 7.010807
v 0.465908 42.807308 7.065436
v 0.547847 42.732891 7.132001
v 0.608734 42.647987 7.207944
v 0.646228 42.555866 7.290349
v 0.658888 42.460060 7.376046
v 0.646228 42.364250 7.461742
v 0.608734 42.272129 7.544146
v 0.547848 42.187229 7.620090
v 0.465908 42.112812 7.686655
v 0.366064 42.051739 7.741283
v 0.252153 42.006359 7.781876
v 0.128553 41.978413 7.806873
v 0.000012 41.968979 7.815313
v -0.128528 41.978413 7.806873
v -0.252129 42.006359 7.781876
v -0.366040 42.051739 7.741283
v -0.465883 42.112812 7.686655
v -0.547823 42.187229 7.620090
v -0.608710 42.272129 7.544146
v -0.646203 42.364250 7.461742
v -0.658864 42.460060 7.376046
v -0.646203 42.555866 7.290349
v -0.608710 42.647987 7.207944
v -0.547823 42.732891 7.132001
v -0.465883 42.807308 7.065436
v -0.366040 42.868378 7.010807
v -0.252129 42.913761 6.970215
v -0.128528 42.941704 6.945218
v 5.847545 37.754993 17.563404
v 5.690861 37.952442 17.563404
v 5.262791 38.096985 17.563404
v 5.262791 37.413002 17.563404
v 5.690861 37.557545 17.563404
v 5.797519 37.754993 16.800146
v 5.642175 37.952442 16.820599
v 5.217767 38.096985 16.876472
v 5.217767 37.413002 16.876472
v 5.642175 37.557545 16.820599
v 5.648295 37.754993 16.049948
v 5.496949 37.952442 16.090502
v 5.083466 38.096985 16.201294
v 5.083466 37.413002 16.201294
v 5.496949 37.557545 16.090502
v 5.402427 37.754993 15.325645
v 5.257670 37.952442 15.385607
v 4.862185 38.096985 15.549421
v 4.862185 37.413002 15.549421
v 5.257670 37.557545 15.385607
v 5.064123 37.754993 14.639631
v 4.928430 37.952442 14.717974
v 4.557710 38.096985 14.932009
v 4.557710 37.413002 14.932009
v 4.928430 37.557545 14.717974
v 4.639170 37.754993 14.003645
v 4.514864 37.952442 14.099028
v 4.175253 38.096985 14.359621
v 4.175253 37.413002 14.359621
v 4.514864 37.557545 14.099028
v 4.134839 37.754993 13.428565
v 4.024046 37.952442 13.539358
v 3.721354 38.096985 13.842049
v 3.721354 37.413002 13.842049
v 4.024046 37.557545 13.539358
v 3.559761 37.754993 12.924235
v 3.464377 37.952442 13.048542
v 3.203785 38.096985 13.388152
v 3.203785 37.413002 13.388152
v 3.464377 37.557545 13.048542
v 2.923772 37.754993 12.499281
v 2.845430 37.952442 12.634974
v 2.631395 38.096985 13.005693
v 2.631395 37.413002 13.005693
v 2.845430 37.557545 12.634974
v 2.237760 37.754993 12.160977
v 2.177799 37.952442 12.305735
v 2.013984 38.096985 12.701220
v 2.013984 37.413002 12.701220
v 2.177799 37.557545 12.305735
v 1.472903 37.952442 12.066455
v 1.362111 38.096985 12.479939
v 1.362111 37.413002 12.479939
v 1.472903 37.557545 12.066455
v 0.686931 38.096985 12.345636
v 0.686931 37.413002 12.345636
v 0.000000 38.096985 12.300613
v 0.000000 37.413002 12.300613
v -0.686933 38.096985 12.345638
v -0.686933 37.413002 12.345638
v -1.472902 37.952442 12.066454
v -1.362110 38.096985 12.479939
v -1.362110 37.413002 12.479939
v -1.472902 37.557545 12.066454
v -2.237759 37.754993 12.160976
v -2.177799 37.952442 12.305735
v -2.013983 38.096985 12.701220
v -2.013983 37.413002 12.701220
v -2.177799 37.557545 12.305735
v -2.923772 37.754993 12.499281
v -2.845430 37.952442 12.634974
v -2.631395 38.096985 13.005693
v -2.631395 37.413002 13.005693
v -2.845430 37.557545 12.634974
v -3.559760 37.754993 12.924234
v -3.464376 37.952442 13.048540
v -3.203784 38.096985 13.388151
v -3.203784 37.413002 13.388151
v -3.464376 37.557545 13.048540
v -4.134840 37.754993 13.428566
v -4.024047 37.952442 13.539358
v -3.721356 38.096985 13.842051
v -3.721356 37.413002 13.842051
v -4.024047 37.557545 13.539358
v -4.639169 37.754993 14.003644
v -4.514863 37.952442 14.099028
v -4.175252 38.096985 14.359620
v -4.175252 37.413002 14.359620
v -4.514863 37.557545 14.099028
v -5.064122 37.754993 14.639630
v -4.928429 37.952442 14.717972
v -4.557710 38.096985 14.932008
v -4.557710 37.413002 14.932008
v -4.928429 37.557545 14.717972
v -5.402427 37.754993 15.325645
v -5.257670 37.952442 15.385606
v -4.862185 38.096985 15.549421
v -4.862185 37.413002 15.549421
v -5.257670 37.557545 15.385606
v -5.648295 37.754993 16.049950
v -5.496950 37.952442 16.090502
v -5.083466 38.096985 16.201294
v -5.083466 37.413002 16.201294
v -5.496950 37.557545 16.090502
v -5.797518 37.754993 16.800146
v -5.642174 37.952442 16.820597
v -5.217766 38.096985 16.876471
v -5.217766 37.413002 16.876471
v -5.642174 37.557545 16.820597
v -5.847545 37.754993 17.563404
v -5.690861 37.952442 17.563404
v -5.262791 38.096985 17.563404
v -5.262791 37.413002 17.563404
v -5.690861 37.557545 17.563404
v -5.797518 37.754993 18.326662
v -5.642174 37.952442 18.306211
v -5.217766 38.096985 18.250338
v -5.217766 37.413002 18.250338
v -5.642174 37.557545 18.306211
v -5.648295 37.754993 19.076859
v -5.496950 37.952442 19.036306
v -5.083466 38.096985 18.925514
v -5.083466 37.413002 18.925514
v -5.496950 37.557545 19.036306
v -5.402429 37.754993 19.801161
v -5.257671 37.952442 19.741199
v -4.862185 38.096985 19.577385
v -4.862185 37.413002 19.577385
v -5.257671 37.557545 19.741199
v -5.064124 37.754993 20.487175
v -4.928431 37.952442 20.408833
v -4.557711 38.096985 20.194799
v -4.557711 37.413002 20.194799
v -4.928431 37.557545 20.408833
v -4.639169 37.754993 21.123163
v -4.514863 37.952442 21.027781
v -4.175252 38.096985 20.767189
v -4.175252 37.413002 20.767189
v -4.514863 37.557545 21.027781
v -4.134840 37.754993 21.698242
v -4.024047 37.952442 21.587450
v -3.721356 38.096985 21.284758
v -3.721356 37.413002 21.284758
v -4.024047 37.557545 21.587450
v -3.559762 37.754993 22.202572
v -3.464379 37.952442 22.078266
v -3.203786 38.096985 21.738655
v -3.203786 37.413002 21.738655
v -3.464379 37.557545 22.078266
v -2.923772 37.754993 22.627527
v -2.845430 37.952442 22.491835
v -2.631395 38.096985 22.121115
v -2.631395 37.413002 22.121115
v -2.845430 37.557545 22.491835
v -2.237759 37.754993 22.965832
v -2.177799 37.952442 22.821074
v -2.013983 38.096985 22.425589
v -2.013983 37.413002 22.425589
v -2.177799 37.557545 22.821074
v -1.513458 37.754993 23.211699
v -1.472905 37.952442 23.060352
v -1.362112 38.096985 22.646870
v -1.362112 37.413002 22.646870
v -1.472905 37.557545 23.060352
v -0.763261 37.754993 23.360922
v -0.742810 37.952442 23.205578
v -0.686935 38.096985 22.781170
v -0.686935 37.413002 22.781170
v -0.742810 37.557545 23.205578
v 0.000000 37.754993 23.410950
v 0.000000 37.952442 23.254265
v 0.000000 38.096985 22.826195
v 0.000000 37.413002 22.826195
v 0.000000 37.557545 23.254265
v 0.763257 37.754993 23.360924
v 0.742805 37.952442 23.205578
v 0.686931 38.096985 22.781172
v 0.686931 37.413002 22.781172
v 0.742805 37.557545 23.205578
v 1.513453 37.754993 23.211700
v 1.472901 37.952442 23.060354
v 1.362108 38.096985 22.646870
v 1.362108 37.413002 22.646870
v 1.472901 37.557545 23.060354
v 2.237760 37.754993 22.965832
v 2.177799 37.952442 22.821074
v 2.013984 38.096985 22.425589
v 2.013984 37.413002 22.425589
v 2.177799 37.557545 22.821074
v 2.923772 37.754993 22.627527
v 2.845430 37.952442 22.491835
v 2.631395 38.096985 22.121115
v 2.631395 37.413002 22.121115
v 2.845430 37.557545 22.491835
v 3.559759 37.754993 22.202576
v 3.464375 37.952442 22.078268
v 3.203783 38.096985 21.738657
v 3.203783 37.413002 21.738657
v 3.464375 37.557545 22.078268
v 4.134837 37.754993 21.698246
v 4.024044 37.952442 21.587452
v 3.721353 38.096985 21.284761
v 3.721353 37.413002 21.284761
v 4.024044 37.557545 21.587452
v 4.639170 37.754993 21.123163
v 4.514864 37.952442 21.027781
v 4.175253 38.096985 20.767187
v 4.175253 37.413002 20.767187
v 4.514864 37.557545 21.027781
v 5.064123 37.754993 20.487177
v 4.928430 37.952442 20.408834
v 4.557710 38.096985 20.194799
v 4.557710 37.413002 20.194799
v 4.928430 37.557545 20.408834
v 5.402427 37.754993 19.801165
v 5.257669 37.952442 19.741203
v 4.862184 38.096985 19.577389
v 4.862184 37.413002 19.577389
v 5.257669 37.557545 19.741203
v 5.648295 37.754993 19.076859
v 5.496950 37.952442 19.036306
v 5.083466 38.096985 18.925512
v 5.083466 37.413002 18.925512
v 5.496950 37.557545 19.036306
v 5.797519 37.754993 18.326662
v 5.642175 37.952442 18.306210
v 5.217767 38.096985 18.250336
v 5.217767 37.413002 18.250336
v 5.642175 37.557545 18.306210
v 4.976803 38.118973 16.908195
v 5.034953 38.117214 17.498594
v 5.028570 38.118176 17.563404
v 4.976803 37.391014 16.908195
v 5.034953 37.392773 17.498594
v 5.028570 37.391811 17.563404
v 4.860747 38.117844 16.260971
v 4.938207 38.115475 16.516323
v 4.860747 37.392143 16.260971
v 4.938207 37.394512 16.516323
v 4.669155 38.115887 15.629377
v 4.669155 37.394100 15.629377
v 4.368197 38.116783 15.041424
v 4.651690 38.114998 15.571801
v 4.368197 37.393204 15.041424
v 4.651690 37.394989 15.571801
v 4.010028 38.115826 14.486403
v 4.186410 38.113354 14.701324
v 4.010028 37.394161 14.486403
v 4.186410 37.396633 14.701324
v 3.589462 38.113861 13.973942
v 3.589462 37.396126 13.973942
v 3.082475 38.115013 13.546246
v 3.560249 38.113178 13.938345
v 3.082475 37.394974 13.546246
v 3.560249 37.396809 13.938345
v 2.535290 38.114372 13.172153
v 2.797270 38.111732 13.312184
v 2.535290 37.395615 13.172153
v 2.797270 37.398254 13.312184
v 1.948773 38.112400 12.858653
v 1.948773 37.397587 12.858653
v 1.313622 38.113934 12.660902
v 1.926793 38.112034 12.846905
v 1.313622 37.396053 12.660902
v 1.926793 37.397953 12.846905
v 0.982271 38.110855 12.560387
v 0.662801 38.113708 12.528922
v 0.662801 37.396278 12.528922
v 0.982271 37.399132 12.560387
v 0.000000 38.111732 12.463642
v 0.000000 37.398254 12.463642
v -0.662803 38.113708 12.528922
v 0.000000 38.111732 12.463642
v -0.662803 37.396278 12.528922
v 0.000000 37.398254 12.463642
v -1.313621 38.113934 12.660901
v -0.982270 38.110855 12.560387
v -1.313621 37.396053 12.660901
v -0.982270 37.399132 12.560387
v -1.948772 38.112400 12.858653
v -1.926793 38.112034 12.846905
v -1.948772 37.397587 12.858653
v -1.926793 37.397953 12.846905
v -2.535289 38.114372 13.172153
v -2.535289 37.395615 13.172153
v -3.082474 38.115013 13.546246
v -2.797270 38.111732 13.312184
v -3.082474 37.394974 13.546246
v -2.797270 37.398254 13.312184
v -3.589463 38.113861 13.973943
v -3.560250 38.113178 13.938346
v -3.589463 37.396126 13.973943
v -3.560250 37.396809 13.938346
v -4.010027 38.115826 14.486402
v -4.010027 37.394161 14.486402
v -4.368197 38.116783 15.041424
v -4.186411 38.113354 14.701325
v -4.368197 37.393204 15.041424
v -4.186411 37.396633 14.701325
v -4.669155 38.115887 15.629376
v -4.651690 38.114998 15.571800
v -4.669155 37.394100 15.629376
v -4.651690 37.394989 15.571800
v -4.860747 38.117844 16.260971
v -4.860747 37.392143 16.260971
v -4.938207 38.115475 16.516323
v -4.976803 38.118973 16.908195
v -4.976803 37.391014 16.908195
v -4.938207 37.394512 16.516323
v -5.034953 38.117214 17.498594
v -5.028570 38.118176 17.563404
v -5.034953 37.392773 17.498594
v -5.028570 37.391811 17.563404
v -4.964200 38.120121 18.216953
v -4.964200 37.389866 18.216953
v -4.824383 38.121250 18.856092
v -4.938207 38.117767 18.480865
v -4.824383 37.388737 18.856092
v -4.938207 37.392220 18.480865
v -4.651690 38.119488 19.425388
v -4.623329 38.120373 19.478447
v -4.651690 37.390499 19.425388
v -4.623329 37.389614 19.478447
v -4.315253 38.122314 20.054815
v -4.315253 37.387672 20.054815
v -4.186409 38.119884 20.295864
v -3.944755 38.123268 20.590321
v -3.944755 37.386719 20.590321
v -4.186409 37.390102 20.295864
v -3.560249 38.121471 21.058844
v -3.524654 38.122150 21.088057
v -3.560249 37.388515 21.058844
v -3.524654 37.387836 21.088057
v -3.021447 38.124084 21.501026
v -3.021447 37.385902 21.501026
v -2.797270 38.121506 21.685005
v -2.478101 38.124722 21.855604
v -2.478101 37.385265 21.855604
v -2.797270 37.388481 21.685005
v -1.926793 38.122868 22.150284
v -1.902945 38.123234 22.157518
v -1.926793 37.387119 22.150284
v -1.902945 37.386753 22.157518
v -1.281503 38.125160 22.346031
v -1.281503 37.384827 22.346031
v -0.982270 38.122383 22.436802
v -0.645959 38.125385 22.469925
v -0.645959 37.384602 22.469925
v -0.982270 37.387604 22.436802
v -0.000000 38.123463 22.533546
v 0.000000 38.123463 22.533546
v -0.000000 37.386524 22.533546
v 0.000000 37.386524 22.533546
v 0.645955 38.125385 22.469927
v 0.645955 37.384602 22.469927
v 0.982270 38.122383 22.436802
v 1.281499 38.125160 22.346031
v 1.281499 37.384827 22.346031
v 0.982270 37.387604 22.436802
v 1.902946 38.123234 22.157518
v 1.902946 37.386753 22.157518
v 2.478102 38.124722 21.855602
v 1.926793 38.122868 22.150284
v 2.478102 37.385265 21.855602
v 1.926793 37.387119 22.150284
v 2.797270 38.121506 21.685005
v 3.021444 38.124084 21.501030
v 3.021444 37.385902 21.501030
v 2.797270 37.388481 21.685005
v 3.524651 38.122150 21.088058
v 3.524651 37.387836 21.088058
v 3.944756 38.123268 20.590321
v 3.560249 38.121471 21.058844
v 3.944756 37.386719 20.590321
v 3.560249 37.388515 21.058844
v 4.186410 38.119884 20.295864
v 4.315253 38.122314 20.054817
v 4.315253 37.387672 20.054817
v 4.186410 37.390102 20.295864
v 4.623327 38.120373 19.478451
v 4.623327 37.389614 19.478451
v 4.824383 38.121250 18.856092
v 4.651690 38.119488 19.425386
v 4.824383 37.388737 18.856092
v 4.651690 37.390499 19.425386
v 4.938207 38.117767 18.480865
v 4.964200 38.120121 18.216953
v 4.964200 37.389866 18.216953
v 4.938207 37.392220 18.480865
v 0.104542 42.851807 10.616584
v 0.161891 43.154705 10.302841
v -0.000018 43.169731 10.302643
v -0.000018 42.861511 10.616435
v 0.204386 42.823273 10.617008
v 0.317579 43.110214 10.303431
v 0.295172 42.777557 10.617517
v 0.461061 43.037968 10.304392
v 0.373294 42.717159 10.618434
v 0.586825 42.940727 10.305680
v 0.436041 42.645130 10.619300
v 0.690036 42.822254 10.307257
v 0.481674 42.564705 10.620371
v 0.766729 42.687080 10.309052
v 0.509286 42.478951 10.621588
v 0.813956 42.540405 10.310996
v 0.518517 42.390652 10.622674
v 0.829903 42.387871 10.313024
v 0.509287 42.302361 10.623925
v 0.813956 42.235336 10.315047
v 0.481676 42.216610 10.624987
v 0.766729 42.088669 10.316998
v 0.436039 42.136177 10.626094
v 0.690036 41.953499 10.318791
v 0.373295 42.064152 10.627063
v 0.586825 41.835018 10.320364
v 0.295184 42.003761 10.627809
v 0.461061 41.737785 10.321656
v 0.204375 41.958035 10.628478
v 0.317579 41.665535 10.322614
v 0.104528 41.929501 10.628875
v 0.161891 41.621040 10.323204
v -0.000018 41.919800 10.628888
v -0.000018 41.606018 10.323407
v -0.104565 41.929501 10.628875
v -0.161928 41.621040 10.323204
v -0.204412 41.958035 10.628478
v -0.317616 41.665535 10.322614
v -0.295220 42.003761 10.627809
v -0.461098 41.737785 10.321656
v -0.373332 42.064152 10.627064
v -0.586861 41.835018 10.320364
v -0.436076 42.136177 10.626094
v -0.690073 41.953499 10.318791
v -0.481713 42.216610 10.624987
v -0.766766 42.088669 10.316998
v -0.509323 42.302361 10.623926
v -0.813993 42.235336 10.315047
v -0.518554 42.390652 10.622674
v -0.829940 42.387871 10.313024
v -0.509323 42.478951 10.621578
v -0.813993 42.540405 10.310996
v -0.481713 42.564697 10.620389
v -0.766766 42.687080 10.309051
v -0.436078 42.645134 10.619290
v -0.690073 42.822254 10.307257
v -0.373331 42.717155 10.618435
v -0.586862 42.940727 10.305680
v -0.295209 42.777557 10.617516
v -0.461098 43.037968 10.304392
v -0.204423 42.823273 10.617009
v -0.317616 43.110214 10.303431
v -0.104579 42.851807 10.616584
v -0.161928 43.154705 10.302841
v -10.964889 36.082920 11.612625
v -10.964889 36.392620 11.922323
v -11.274587 36.392620 11.612625
v -10.964889 48.615189 11.922323
v -10.964889 48.924889 11.612625
v -11.274587 48.615189 11.612625
v -10.964889 36.082920 10.949394
v -11.274587 36.392620 10.949394
v -10.964889 36.392620 10.639696
v -10.964889 48.924889 10.949394
v -10.964889 48.615189 10.639696
v -11.274587 48.615189 10.949394
v 10.964889 36.082920 11.612625
v 11.274587 36.392620 11.612625
v 10.964889 36.392620 11.922323
v 10.964889 48.924889 11.612625
v 10.964889 48.615189 11.922323
v 11.274587 48.615189 11.612625
v 10.964889 36.082920 10.949394
v 10.964889 36.392620 10.639696
v 11.274587 36.392620 10.949394
v 10.964889 48.924889 10.949394
v 11.274587 48.615189 10.949394
v 10.964889 48.615189 10.639696
v 1.472903 37.557545 12.066455
v 1.472903 37.952442 12.066455
v 1.806719 37.754993 12.014659
v 1.042107 37.512196 12.017376
v 0.428817 37.512196 11.936636
v 0.428817 37.997791 11.936635
v 1.042107 37.997791 12.017378
v 0.458663 37.709644 11.709936
v 1.019827 38.027382 12.202137
v 0.458663 37.800343 11.709935
v 1.019827 37.482601 12.202136
v 0.309292 37.997791 11.928802
v 0.309292 37.512196 11.928801
v -0.309291 37.512196 11.928802
v -0.309291 37.997791 11.928801
v 0.309292 37.709644 11.700146
v -0.309291 37.709644 11.700145
v 0.000000 38.051712 12.166531
v -0.309291 37.800343 11.700146
v 0.309292 37.800343 11.700145
v 0.000000 37.458275 12.166531
v -0.428819 37.997791 11.936637
v -0.428819 37.512196 11.936636
v -1.042109 37.512196 12.017378
v -1.042109 37.997791 12.017377
v -0.458665 37.709644 11.709936
v -1.019829 38.027386 12.202138
v -1.019829 37.482601 12.202137
v -0.458665 37.800343 11.709936
v -1.472902 37.952442 12.066454
v -1.472902 37.557545 12.066454
v -1.806718 37.754993 12.014658
vt 1.000000 0.500000
vt 1.000000 1.000000
vt 0.968750 1.000000
vt 0.968750 0.500000
vt 0.937500 1.000000
vt 0.937500 0.500000
vt 0.906250 1.000000
vt 0.906250 0.500000
vt 0.875000 1.000000
vt 0.875000 0.500000
vt 0.843750 1.000000
vt 0.843750 0.500000
vt 0.812500 1.000000
vt 0.812500 0.500000
vt 0.781250 1.000000
vt 0.781250 0.500000
vt 0.750000 1.000000
vt 0.750000 0.500000
vt 0.718750 1.000000
vt 0.718750 0.500000
vt 0.687500 1.000000
vt 0.687500 0.500000
vt 0.656250 1.000000
vt 0.656250 0.500000
vt 0.625000 1.000000
vt 0.625000 0.500000
vt 0.593750 1.000000
vt 0.593750 0.500000
vt 0.562500 1.000000
vt 0.562500 0.500000
vt 0.531250 1.000000
vt 0.531250 0.500000
vt 0.500000 1.000000
vt 0.500000 0.500000
vt 0.468750 1.000000
vt 0.468750 0.500000
vt 0.437500 1.000000
vt 0.437500 0.500000
vt 0.406250 1.000000
vt 0.406250 0.500000
vt 0.375000 1.000000
vt 0.375000 0.500000
vt 0.343750 1.000000
vt 0.343750 0.500000
vt 0.312500 1.000000
vt 0.312500 0.500000
vt 0.281250 1.000000
vt 0.281250 0.500000
vt 0.250000 1.000000
vt 0.250000 0.500000
vt 0.218750 1.000000
vt 0.218750 0.500000
vt 0.187500 1.000000
vt 0.187500 0.500000
vt 0.156250 1.000000
vt 0.156250 0.500000
vt 0.125000 1.000000
vt 0.125000 0.500000
vt 0.093750 1.000000
vt 0.093750 0.500000
vt 0.062500 1.000000
vt 0.062500 0.500000
vt 0.750000 1.000000
vt 0.718750 1.000000
vt 0.031250 1.000000
vt 0.031250 0.500000
vt 0.000000 1.000000
vt 0.000000 0.500000
vt 0.750000 0.490000
vt 0.796822 0.485388
vt 0.841844 0.471731
vt 0.883337 0.449553
vt 0.919706 0.419706
vt 0.949553 0.383337
vt 0.971731 0.341844
vt 0.985388 0.296822
vt 0.990000 0.250000
vt 0.985388 0.203178
vt 0.971731 0.158156
vt 0.949553 0.116663
vt 0.919706 0.080294
vt 0.883337 0.050447
vt 0.841844 0.028269
vt 0.796822 0.014612
vt 0.750000 0.010000
vt 0.703178 0.014612
vt 0.658156 0.028269
vt 0.616663 0.050447
vt 0.580294 0.080294
vt 0.550447 0.116663
vt 0.528269 0.158156
vt 0.514612 0.203178
vt 0.510000 0.250000
vt 0.514612 0.296822
vt 0.528269 0.341844
vt 0.550447 0.383337
vt 0.580294 0.419706
vt 0.616663 0.449553
vt 0.658156 0.471731
vt 0.703178 0.485388
vt 0.250000 1.000000
vt 0.281250 1.000000
vt 0.281250 1.000000
vt 0.250000 1.000000
vt 0.468750 1.000000
vt 0.437500 1.000000
vt 0.187500 1.000000
vt 0.156250 1.000000
vt 0.875000 1.000000
vt 0.843750 1.000000
vt 0.593750 1.000000
vt 0.562500 1.000000
vt 0.312500 1.000000
vt 1.000000 1.000000
vt 0.968750 1.000000
vt 0.031250 1.000000
vt 0.000000 1.000000
vt 0.687500 1.000000
vt 0.406250 1.000000
vt 0.125000 1.000000
vt 0.812500 1.000000
vt 0.531250 1.000000
vt 0.937500 1.000000
vt 0.656250 1.000000
vt 0.375000 1.000000
vt 0.093750 1.000000
vt 0.781250 1.000000
vt 0.500000 1.000000
vt 0.218750 1.000000
vt 0.906250 1.000000
vt 0.625000 1.000000
vt 0.343750 1.000000
vt 0.062500 1.000000
vt 0.750000 1.000000
vt 0.781250 1.000000
vt 0.781250 1.000000
vt 0.750000 1.000000
vt 0.687500 1.000000
vt 0.656250 1.000000
vt 0.218750 1.000000
vt 0.625000 1.000000
vt 0.187500 1.000000
vt 0.593750 1.000000
vt 0.156250 1.000000
vt 0.562500 1.000000
vt 1.000000 1.000000
vt 0.968750 1.000000
vt 0.125000 1.000000
vt 0.531250 1.000000
vt 0.937500 1.000000
vt 0.093750 1.000000
vt 0.500000 1.000000
vt 0.906250 1.000000
vt 0.062500 1.000000
vt 0.468750 1.000000
vt 0.875000 1.000000
vt 0.031250 1.000000
vt 0.437500 1.000000
vt 0.843750 1.000000
vt 0.000000 1.000000
vt 0.406250 1.000000
vt 0.812500 1.000000
vt 0.375000 1.000000
vt 0.343750 1.000000
vt 0.312500 1.000000
vt 0.718750 1.000000
vt 0.031250 1.000000
vt 0.062500 1.000000
vt 0.062500 1.000000
vt 0.031250 1.000000
vt 0.343750 1.000000
vt 0.312500 1.000000
vt 0.718750 1.000000
vt 0.281250 1.000000
vt 0.687500 1.000000
vt 0.250000 1.000000
vt 0.656250 1.000000
vt 0.218750 1.000000
vt 0.625000 1.000000
vt 0.187500 1.000000
vt 0.593750 1.000000
vt 0.156250 1.000000
vt 0.562500 1.000000
vt 1.000000 1.000000
vt 0.968750 1.000000
vt 0.125000 1.000000
vt 0.531250 1.000000
vt 0.937500 1.000000
vt 0.093750 1.000000
vt 0.500000 1.000000
vt 0.906250 1.000000
vt 0.468750 1.000000
vt 0.875000 1.000000
vt 0.437500 1.000000
vt 0.843750 1.000000
vt 0.000000 1.000000
vt 0.406250 1.000000
vt 0.812500 1.000000
vt 0.375000 1.000000
vt 0.843750 1.000000
vt 0.875000 1.000000
vt 0.875000 1.000000
vt 0.843750 1.000000
vt 0.468750 1.000000
vt 0.437500 1.000000
vt 0.000000 1.000000
vt 0.406250 1.000000
vt 0.812500 1.000000
vt 0.375000 1.000000
vt 0.781250 1.000000
vt 0.343750 1.000000
vt 0.750000 1.000000
vt 0.312500 1.000000
vt 0.718750 1.000000
vt 0.281250 1.000000
vt 0.687500 1.000000
vt 0.250000 1.000000
vt 0.656250 1.000000
vt 0.218750 1.000000
vt 0.625000 1.000000
vt 0.187500 1.000000
vt 0.593750 1.000000
vt 0.156250 1.000000
vt 0.562500 1.000000
vt 1.000000 1.000000
vt 0.968750 1.000000
vt 0.125000 1.000000
vt 0.531250 1.000000
vt 0.937500 1.000000
vt 0.093750 1.000000
vt 0.500000 1.000000
vt 0.906250 1.000000
vt 0.968750 1.000000
vt 0.937500 1.000000
vt 0.128434 0.560364
vt 0.371566 0.560364
vt 0.371566 0.689636
vt 0.128434 0.689636
vt 0.437500 1.000000
vt 0.406250 1.000000
vt 0.812500 1.000000
vt 0.906250 1.000000
vt 0.375000 1.000000
vt 0.781250 1.000000
vt 0.343750 1.000000
vt 0.750000 1.000000
vt 0.312500 1.000000
vt 0.718750 1.000000
vt 0.281250 1.000000
vt 0.687500 1.000000
vt 0.250000 1.000000
vt 0.656250 1.000000
vt 0.218750 1.000000
vt 0.625000 1.000000
vt 0.187500 1.000000
vt 0.593750 1.000000
vt 0.156250 1.000000
vt 0.562500 1.000000
vt 0.125000 1.000000
vt 0.531250 1.000000
vt 0.280237 0.391556
vt 0.250000 0.394535
vt 0.219763 0.391556
vt 0.190890 0.382797
vt 0.164636 0.368764
vt 0.142044 0.350223
vt 0.123899 0.328115
vt 0.110701 0.303424
vt 0.102717 0.277103
vt 0.100048 0.249999
vt 0.102717 0.222897
vt 0.110702 0.196575
vt 0.123899 0.171885
vt 0.142044 0.149777
vt 0.164632 0.131238
vt 0.190893 0.117202
vt 0.219767 0.108443
vt 0.250000 0.105465
vt 0.280233 0.108443
vt 0.309107 0.117202
vt 0.335368 0.131238
vt 0.357956 0.149777
vt 0.376101 0.171885
vt 0.389298 0.196575
vt 0.397283 0.222897
vt 0.399952 0.249999
vt 0.397283 0.277103
vt 0.389298 0.303426
vt 0.376101 0.328114
vt 0.357956 0.350225
vt 0.335364 0.368764
vt 0.309111 0.382797
vt 0.093750 1.000000
vt 0.500000 1.000000
vt 0.031250 1.000000
vt 0.000000 1.000000
vt 0.062500 1.000000
vt 0.468750 1.000000
vt 0.468750 1.000000
vt 1.000000 0.500000
vt 1.000000 1.000000
vt 0.968750 1.000000
vt 0.968750 0.500000
vt 0.937500 1.000000
vt 0.937500 0.500000
vt 0.906250 1.000000
vt 0.906250 0.500000
vt 0.875000 1.000000
vt 0.875000 0.500000
vt 0.843750 1.000000
vt 0.843750 0.500000
vt 0.812500 1.000000
vt 0.812500 0.500000
vt 0.781250 1.000000
vt 0.781250 0.500000
vt 0.750000 1.000000
vt 0.750000 0.500000
vt 0.718750 1.000000
vt 0.718750 0.500000
vt 0.687500 1.000000
vt 0.687500 0.500000
vt 0.656250 1.000000
vt 0.656250 0.500000
vt 0.625000 1.000000
vt 0.625000 0.500000
vt 0.593750 1.000000
vt 0.593750 0.500000
vt 0.562500 1.000000
vt 0.562500 0.500000
vt 0.531250 1.000000
vt 0.531250 0.500000
vt 0.500000 1.000000
vt 0.500000 0.500000
vt 0.468750 1.000000
vt 0.468750 0.500000
vt 0.437500 1.000000
vt 0.437500 0.500000
vt 0.406250 1.000000
vt 0.406250 0.500000
vt 0.375000 1.000000
vt 0.375000 0.500000
vt 0.343750 1.000000
vt 0.343750 0.500000
vt 0.312500 1.000000
vt 0.312500 0.500000
vt 0.281250 1.000000
vt 0.281250 0.500000
vt 0.250000 1.000000
vt 0.250000 0.500000
vt 0.218750 1.000000
vt 0.218750 0.500000
vt 0.187500 1.000000
vt 0.187500 0.500000
vt 0.156250 1.000000
vt 0.156250 0.500000
vt 0.125000 1.000000
vt 0.125000 0.500000
vt 0.093750 1.000000
vt 0.093750 0.500000
vt 0.062500 1.000000
vt 0.062500 0.500000
vt 0.937500 1.000000
vt 0.906250 1.000000
vt 0.031250 1.000000
vt 0.031250 0.500000
vt 0.000000 1.000000
vt 0.000000 0.500000
vt 0.750000 0.490000
vt 0.796822 0.485388
vt 0.841844 0.471731
vt 0.883337 0.449553
vt 0.919706 0.419706
vt 0.949553 0.383337
vt 0.971731 0.341844
vt 0.985388 0.296822
vt 0.990000 0.250000
vt 0.985388 0.203178
vt 0.971731 0.158156
vt 0.949553 0.116663
vt 0.919706 0.080294
vt 0.883337 0.050447
vt 0.841844 0.028269
vt 0.796822 0.014612
vt 0.750000 0.010000
vt 0.703178 0.014612
vt 0.658156 0.028269
vt 0.616663 0.050447
vt 0.580294 0.080294
vt 0.550447 0.116663
vt 0.528269 0.158156
vt 0.514612 0.203178
vt 0.510000 0.250000
vt 0.514612 0.296822
vt 0.528269 0.341844
vt 0.550447 0.383337
vt 0.580294 0.419706
vt 0.616663 0.449553
vt 0.658156 0.471731
vt 0.703178 0.485388
vt 0.296822 0.485388
vt 0.250000 0.490000
vt 0.203178 0.485388
vt 0.158156 0.471731
vt 0.116663 0.449553
vt 0.080294 0.419706
vt 0.050447 0.383337
vt 0.028269 0.341844
vt 0.014612 0.296822
vt 0.010000 0.250000
vt 0.014612 0.203178
vt 0.028269 0.158156
vt 0.050447 0.116663
vt 0.080294 0.080294
vt 0.116663 0.050447
vt 0.158156 0.028269
vt 0.203178 0.014612
vt 0.250000 0.010000
vt 0.296822 0.014612
vt 0.341844 0.028269
vt 0.383337 0.050447
vt 0.419706 0.080294
vt 0.449553 0.116663
vt 0.471731 0.158156
vt 0.485388 0.203178
vt 0.490000 0.250000
vt 0.485388 0.296822
vt 0.471731 0.341844
vt 0.449553 0.383337
vt 0.419706 0.419706
vt 0.383337 0.449553
vt 0.341844 0.471731
vt 0.656250 1.000000
vt 0.625000 1.000000
vt 0.375000 1.000000
vt 0.343750 1.000000
vt 0.093750 1.000000
vt 0.062500 1.000000
vt 0.781250 1.000000
vt 0.750000 1.000000
vt 0.500000 1.000000
vt 0.468750 1.000000
vt 0.218750 1.000000
vt 0.187500 1.000000
vt 0.875000 1.000000
vt 0.593750 1.000000
vt 0.312500 1.000000
vt 0.031250 1.000000
vt 0.718750 1.000000
vt 0.437500 1.000000
vt 0.156250 1.000000
vt 0.843750 1.000000
vt 0.562500 1.000000
vt 0.281250 1.000000
vt 1.000000 1.000000
vt 0.968750 1.000000
vt 0.000000 1.000000
vt 0.687500 1.000000
vt 0.406250 1.000000
vt 0.125000 1.000000
vt 0.812500 1.000000
vt 0.531250 1.000000
vt 0.250000 1.000000
vt 0.381029 0.753434
vt 0.618971 0.753434
vt 0.618971 0.996566
vt 0.381029 0.996566
vt 0.381029 0.560364
vt 0.618971 0.560364
vt 0.618971 0.689636
vt 0.381029 0.689636
vt 0.708333 0.583333
vt 0.720434 0.602473
vt 0.720041 0.648261
vt 0.708333 0.583333
vt 0.628434 0.560364
vt 0.871566 0.560364
vt 0.871566 0.689636
vt 0.628434 0.689636
vt 0.381029 0.060364
vt 0.618971 0.060364
vt 0.618971 0.189636
vt 0.381029 0.189636
vt 0.381029 0.253434
vt 0.618971 0.253434
vt 0.618971 0.496566
vt 0.381029 0.496566
vt 0.500000 0.500000
vt 0.520833 0.500000
vt 0.520833 0.583333
vt 0.500000 0.583333
vt 0.520833 0.666667
vt 0.500000 0.666667
vt 0.502062 0.698530
vt 0.500000 0.700046
vt 0.520833 0.701303
vt 0.520833 0.298697
vt 0.520833 0.333333
vt 0.500000 0.333333
vt 0.500000 0.299955
vt 0.502062 0.301470
vt 0.520833 0.416667
vt 0.500000 0.416667
vt 0.541667 0.500000
vt 0.541667 0.583333
vt 0.541667 0.666667
vt 0.541667 0.699526
vt 0.533245 0.695791
vt 0.541667 0.300474
vt 0.541667 0.333333
vt 0.533245 0.304209
vt 0.541667 0.416667
vt 0.562500 0.500000
vt 0.562500 0.583333
vt 0.562500 0.666667
vt 0.562500 0.696442
vt 0.562500 0.303558
vt 0.562500 0.333333
vt 0.562500 0.416667
vt 0.583333 0.500000
vt 0.583333 0.583333
vt 0.583333 0.666667
vt 0.564400 0.695042
vt 0.583333 0.697852
vt 0.583333 0.302148
vt 0.583333 0.333333
vt 0.564400 0.304958
vt 0.583333 0.416667
vt 0.604167 0.500000
vt 0.604167 0.583333
vt 0.604167 0.666667
vt 0.604167 0.696346
vt 0.595432 0.692454
vt 0.604167 0.303654
vt 0.604167 0.333333
vt 0.595432 0.307546
vt 0.604167 0.416667
vt 0.625000 0.500000
vt 0.625000 0.583333
vt 0.625000 0.666667
vt 0.625000 0.693248
vt 0.625000 0.306752
vt 0.625000 0.333333
vt 0.625000 0.416667
vt 0.645833 0.500000
vt 0.645833 0.583333
vt 0.645833 0.666667
vt 0.626452 0.692177
vt 0.645833 0.695065
vt 0.645833 0.304935
vt 0.645833 0.333333
vt 0.626452 0.307823
vt 0.645833 0.416667
vt 0.666667 0.500000
vt 0.666667 0.583333
vt 0.666667 0.666667
vt 0.666667 0.694059
vt 0.657370 0.689900
vt 0.666667 0.305941
vt 0.666667 0.333333
vt 0.657370 0.310100
vt 0.666667 0.416667
vt 0.687500 0.500000
vt 0.687500 0.583333
vt 0.687500 0.666667
vt 0.687500 0.690951
vt 0.687500 0.309049
vt 0.687500 0.333333
vt 0.687500 0.416667
vt 0.708333 0.416667
vt 0.720041 0.351736
vt 0.720434 0.397527
vt 0.708333 0.416667
vt 0.708333 0.666667
vt 0.688286 0.690371
vt 0.708333 0.693365
vt 0.708333 0.306635
vt 0.708333 0.333333
vt 0.688286 0.309629
vt 0.699898 0.500000
vt 0.729167 0.333333
vt 0.750000 0.333333
vt 0.750000 0.359436
vt 0.720128 0.366333
vt 0.729167 0.666667
vt 0.729167 0.693012
vt 0.719142 0.688518
vt 0.729167 0.306988
vt 0.719142 0.311482
vt 0.758733 0.602472
vt 0.762100 0.602473
vt 0.762446 0.480860
vt 0.758387 0.480860
vt 0.737900 0.602472
vt 0.741267 0.602473
vt 0.741613 0.480860
vt 0.737554 0.480860
vt 0.737554 0.519139
vt 0.741613 0.519139
vt 0.741267 0.397527
vt 0.737900 0.397527
vt 0.720082 0.626539
vt 0.750000 0.666667
vt 0.750000 0.689900
vt 0.750000 0.310100
vt 0.720082 0.373461
vt 0.720128 0.633667
vt 0.750000 0.640565
vt 0.758387 0.519139
vt 0.762446 0.519139
vt 0.762100 0.397527
vt 0.758733 0.397527
vt 0.770833 0.333333
vt 0.779872 0.366333
vt 0.770833 0.666667
vt 0.770833 0.693012
vt 0.750000 0.689900
vt 0.750000 0.310100
vt 0.770833 0.306988
vt 0.779566 0.602472
vt 0.791667 0.583333
vt 0.791667 0.583333
vt 0.779959 0.648263
vt 0.779872 0.633668
vt 0.779959 0.351736
vt 0.791667 0.416667
vt 0.791667 0.416667
vt 0.779566 0.397527
vt 0.791667 0.333333
vt 0.779918 0.373461
vt 0.791667 0.666667
vt 0.791667 0.693365
vt 0.780858 0.688518
vt 0.780858 0.311482
vt 0.791667 0.306635
vt 0.800102 0.500000
vt 0.812500 0.500000
vt 0.812500 0.583333
vt 0.779918 0.626539
vt 0.812500 0.416667
vt 0.812500 0.666667
vt 0.812500 0.690951
vt 0.811714 0.690371
vt 0.812500 0.333333
vt 0.811714 0.309629
vt 0.812500 0.309049
vt 0.833333 0.500000
vt 0.833333 0.583333
vt 0.833333 0.666667
vt 0.833333 0.694059
vt 0.833333 0.333333
vt 0.833333 0.305941
vt 0.833333 0.416667
vt 0.854167 0.500000
vt 0.854167 0.583333
vt 0.854167 0.666667
vt 0.854167 0.695065
vt 0.842631 0.689900
vt 0.854167 0.333333
vt 0.842631 0.310100
vt 0.854167 0.304935
vt 0.854167 0.416667
vt 0.875000 0.500000
vt 0.875000 0.583333
vt 0.875000 0.666667
vt 0.875000 0.693248
vt 0.873548 0.692177
vt 0.875000 0.333333
vt 0.873548 0.307823
vt 0.875000 0.306752
vt 0.875000 0.416667
vt 0.895833 0.500000
vt 0.895833 0.583333
vt 0.895833 0.666667
vt 0.895833 0.696346
vt 0.895833 0.333333
vt 0.895833 0.303654
vt 0.895833 0.416667
vt 0.916667 0.500000
vt 0.916667 0.583333
vt 0.916667 0.666667
vt 0.916667 0.697852
vt 0.904568 0.692454
vt 0.916667 0.333333
vt 0.904568 0.307546
vt 0.916667 0.302148
vt 0.916667 0.416667
vt 0.937500 0.500000
vt 0.937500 0.583333
vt 0.937500 0.666667
vt 0.937500 0.696442
vt 0.935600 0.695042
vt 0.937500 0.333333
vt 0.935600 0.304958
vt 0.937500 0.303558
vt 0.937500 0.416667
vt 0.958333 0.500000
vt 0.958333 0.583333
vt 0.958333 0.666667
vt 0.958333 0.699526
vt 0.958333 0.333333
vt 0.958333 0.300474
vt 0.958333 0.416667
vt 0.979167 0.500000
vt 0.979167 0.583333
vt 0.979167 0.666667
vt 0.979167 0.701303
vt 0.966755 0.695791
vt 0.979167 0.333333
vt 0.966755 0.304209
vt 0.979167 0.298697
vt 0.979167 0.416667
vt 1.000000 0.500000
vt 1.000000 0.583333
vt 1.000000 0.666667
vt 1.000000 0.700045
vt 0.997938 0.698530
vt 0.997938 0.301470
vt 1.000000 0.299954
vt 1.000000 0.333333
vt 1.000000 0.416667
vt 0.000000 0.500000
vt 0.020833 0.500000
vt 0.020833 0.583333
vt 0.000000 0.583333
vt 0.020833 0.666667
vt 0.000000 0.666667
vt 0.000000 0.700045
vt 0.020833 0.703114
vt 0.020833 0.296886
vt 0.020833 0.333333
vt 0.000000 0.333333
vt 0.000000 0.299955
vt 0.020833 0.416667
vt 0.000000 0.416667
vt 0.041667 0.500000
vt 0.041667 0.583333
vt 0.041667 0.666667
vt 0.041667 0.704891
vt 0.029243 0.699402
vt 0.041667 0.295109
vt 0.041667 0.333333
vt 0.029243 0.300598
vt 0.041667 0.416667
vt 0.062500 0.500000
vt 0.062500 0.583333
vt 0.062500 0.666667
vt 0.062500 0.703511
vt 0.060589 0.702111
vt 0.060589 0.297889
vt 0.062500 0.296489
vt 0.062500 0.333333
vt 0.062500 0.416667
vt 0.083333 0.500000
vt 0.083333 0.583333
vt 0.083333 0.666667
vt 0.083333 0.706565
vt 0.083333 0.293435
vt 0.083333 0.333333
vt 0.083333 0.416667
vt 0.104167 0.500000
vt 0.104167 0.583333
vt 0.104167 0.666667
vt 0.104167 0.708071
vt 0.092038 0.702739
vt 0.104167 0.291929
vt 0.104167 0.333333
vt 0.092038 0.297261
vt 0.104167 0.416667
vt 0.125000 0.500000
vt 0.125000 0.583333
vt 0.125000 0.666667
vt 0.125000 0.706310
vt 0.123534 0.705239
vt 0.125000 0.293690
vt 0.125000 0.333333
vt 0.123534 0.294761
vt 0.125000 0.416667
vt 0.145833 0.500000
vt 0.145833 0.583333
vt 0.145833 0.666667
vt 0.145833 0.709352
vt 0.145833 0.333333
vt 0.145833 0.290648
vt 0.145833 0.416667
vt 0.166667 0.500000
vt 0.166667 0.583333
vt 0.166667 0.666667
vt 0.166667 0.710358
vt 0.155101 0.705292
vt 0.166667 0.289642
vt 0.166667 0.333333
vt 0.155101 0.294708
vt 0.166667 0.416667
vt 0.187500 0.500000
vt 0.187500 0.583333
vt 0.187500 0.666667
vt 0.187500 0.708017
vt 0.186705 0.707437
vt 0.187500 0.291983
vt 0.187500 0.333333
vt 0.186705 0.292563
vt 0.187500 0.416667
vt 0.208333 0.500000
vt 0.208333 0.583333
vt 0.208333 0.666667
vt 0.208333 0.711051
vt 0.208333 0.333333
vt 0.208333 0.288949
vt 0.208333 0.416667
vt 0.229167 0.500000
vt 0.229167 0.583333
vt 0.229167 0.666667
vt 0.229167 0.711405
vt 0.218346 0.706674
vt 0.229167 0.288595
vt 0.229167 0.333333
vt 0.218346 0.293326
vt 0.229167 0.416667
vt 0.250000 0.500000
vt 0.250000 0.583333
vt 0.250000 0.666667
vt 0.250000 0.708372
vt 0.250000 0.708372
vt 0.250000 0.333333
vt 0.250000 0.291628
vt 0.250000 0.291628
vt 0.250000 0.416667
vt 0.270833 0.500000
vt 0.270833 0.583333
vt 0.270833 0.666667
vt 0.270833 0.711405
vt 0.270833 0.333333
vt 0.270833 0.288595
vt 0.270833 0.416667
vt 0.291667 0.500000
vt 0.291667 0.583333
vt 0.291667 0.666667
vt 0.291667 0.711051
vt 0.281654 0.706674
vt 0.291667 0.288949
vt 0.291667 0.333333
vt 0.281654 0.293326
vt 0.291667 0.416667
vt 0.312500 0.500000
vt 0.312500 0.583333
vt 0.312500 0.666667
vt 0.312500 0.708017
vt 0.312500 0.333333
vt 0.312500 0.291983
vt 0.312500 0.416667
vt 0.333333 0.500000
vt 0.333333 0.583333
vt 0.333333 0.666667
vt 0.313295 0.707437
vt 0.333333 0.710358
vt 0.333333 0.333333
vt 0.313295 0.292563
vt 0.333333 0.289642
vt 0.333333 0.416667
vt 0.354167 0.500000
vt 0.354167 0.583333
vt 0.354167 0.666667
vt 0.354167 0.709352
vt 0.344899 0.705292
vt 0.354167 0.333333
vt 0.344899 0.294708
vt 0.354167 0.290648
vt 0.354167 0.416667
vt 0.375000 0.500000
vt 0.375000 0.583333
vt 0.375000 0.666667
vt 0.375000 0.706310
vt 0.375000 0.333333
vt 0.375000 0.293690
vt 0.375000 0.416667
vt 0.395833 0.500000
vt 0.395833 0.583333
vt 0.395833 0.666667
vt 0.376466 0.705239
vt 0.395833 0.708071
vt 0.395833 0.291929
vt 0.395833 0.333333
vt 0.376466 0.294761
vt 0.395833 0.416667
vt 0.416667 0.500000
vt 0.416667 0.583333
vt 0.416667 0.666667
vt 0.416667 0.706565
vt 0.407962 0.702739
vt 0.416667 0.293435
vt 0.416667 0.333333
vt 0.407962 0.297261
vt 0.416667 0.416667
vt 0.437500 0.500000
vt 0.437500 0.583333
vt 0.437500 0.666667
vt 0.437500 0.703511
vt 0.437500 0.296489
vt 0.437500 0.333333
vt 0.437500 0.416667
vt 0.458333 0.500000
vt 0.458333 0.583333
vt 0.458333 0.666667
vt 0.458333 0.704891
vt 0.439411 0.702111
vt 0.458333 0.295109
vt 0.458333 0.333333
vt 0.439411 0.297889
vt 0.458333 0.416667
vt 0.479167 0.500000
vt 0.479167 0.583333
vt 0.479167 0.666667
vt 0.479167 0.703114
vt 0.470757 0.699402
vt 0.479167 0.296886
vt 0.479167 0.333333
vt 0.470757 0.300598
vt 0.479167 0.416667
vt 0.968750 0.842347
vt 0.968750 0.878811
vt 0.978914 0.878957
vt 1.000000 0.878856
vt 1.000000 0.878856
vt 1.000000 0.842302
vt 1.000000 0.842302
vt 0.978914 0.842201
vt 0.937500 0.842287
vt 0.937500 0.878871
vt 0.957787 0.878968
vt 0.957787 0.842189
vt 0.936711 0.842268
vt 0.915655 0.842167
vt 0.906250 0.842302
vt 0.906250 0.878856
vt 0.915655 0.878991
vt 0.936711 0.878890
vt 0.875000 0.842228
vt 0.875000 0.878930
vt 0.894569 0.879024
vt 0.894569 0.842134
vt 0.873542 0.842193
vt 0.852553 0.842092
vt 0.843750 0.842219
vt 0.843750 0.878939
vt 0.852553 0.879065
vt 0.873542 0.878965
vt 0.812500 0.879023
vt 0.831540 0.879114
vt 0.831540 0.842043
vt 0.812500 0.842135
vt 0.810595 0.842089
vt 0.789698 0.841989
vt 0.781250 0.842110
vt 0.781250 0.879047
vt 0.789698 0.879169
vt 0.810595 0.879068
vt 0.750000 0.879136
vt 0.768783 0.879227
vt 0.768783 0.841931
vt 0.750000 0.842021
vt 0.718750 0.879165
vt 0.727146 0.879285
vt 0.747938 0.879186
vt 0.747938 0.841972
vt 0.727146 0.841872
vt 0.718750 0.841993
vt 0.687500 0.879253
vt 0.706335 0.879343
vt 0.706335 0.841814
vt 0.687500 0.841905
vt 0.656250 0.879273
vt 0.664904 0.879398
vt 0.685595 0.879298
vt 0.685595 0.841859
vt 0.664904 0.841760
vt 0.656250 0.841884
vt 0.625000 0.879355
vt 0.644190 0.879447
vt 0.644190 0.841711
vt 0.625000 0.841803
vt 0.593750 0.879356
vt 0.602932 0.879488
vt 0.623542 0.879389
vt 0.623542 0.841768
vt 0.602932 0.841669
vt 0.593750 0.841801
vt 0.562500 0.879426
vt 0.582292 0.879521
vt 0.582292 0.841637
vt 0.562500 0.841732
vt 0.531250 0.879401
vt 0.541150 0.879544
vt 0.561711 0.879445
vt 0.561711 0.841713
vt 0.541150 0.841614
vt 0.531250 0.841756
vt 0.500000 0.879456
vt 0.500000 0.879457
vt 0.520550 0.879555
vt 0.520550 0.841603
vt 0.500000 0.841701
vt 0.500000 0.841701
vt 0.468750 0.879401
vt 0.479449 0.879555
vt 0.479449 0.841603
vt 0.468750 0.841756
vt 0.437500 0.879426
vt 0.438289 0.879445
vt 0.458850 0.879544
vt 0.458850 0.841614
vt 0.438289 0.841713
vt 0.437500 0.841732
vt 0.406250 0.879356
vt 0.417708 0.879521
vt 0.417708 0.841637
vt 0.406250 0.841801
vt 0.375000 0.879355
vt 0.376458 0.879389
vt 0.397068 0.879488
vt 0.397068 0.841669
vt 0.376458 0.841768
vt 0.375000 0.841803
vt 0.343750 0.841884
vt 0.343750 0.879273
vt 0.355810 0.879447
vt 0.355810 0.841711
vt 0.312500 0.841905
vt 0.312500 0.879253
vt 0.314405 0.879298
vt 0.335096 0.879398
vt 0.335096 0.841760
vt 0.314405 0.841859
vt 0.281250 0.841993
vt 0.281250 0.879165
vt 0.293665 0.879343
vt 0.293665 0.841814
vt 0.250000 0.842021
vt 0.250000 0.879136
vt 0.252062 0.879186
vt 0.272854 0.879286
vt 0.272854 0.841872
vt 0.252062 0.841972
vt 0.218750 0.842110
vt 0.218750 0.879047
vt 0.231217 0.879227
vt 0.231217 0.841931
vt 0.187500 0.842135
vt 0.187500 0.879023
vt 0.189405 0.879068
vt 0.210302 0.879169
vt 0.210302 0.841989
vt 0.189405 0.842089
vt 0.156250 0.842219
vt 0.156250 0.878939
vt 0.168459 0.879114
vt 0.168459 0.842043
vt 0.125000 0.842228
vt 0.125000 0.878930
vt 0.126458 0.878965
vt 0.147447 0.879065
vt 0.147447 0.842092
vt 0.126458 0.842193
vt 0.093750 0.842302
vt 0.093750 0.878856
vt 0.105431 0.879024
vt 0.105431 0.842134
vt 0.062500 0.842287
vt 0.062500 0.878871
vt 0.063289 0.878890
vt 0.084345 0.878991
vt 0.084345 0.842167
vt 0.063289 0.842268
vt 0.031250 0.842347
vt 0.031250 0.878811
vt 0.042213 0.878968
vt 0.042213 0.842189
vt 0.000000 0.842302
vt 0.000000 0.878856
vt 0.021086 0.878957
vt 0.021086 0.842201
vt 0.128434 0.750000
vt 0.125000 0.689636
vt 0.618971 0.000000
vt 0.625000 0.060364
vt 0.125000 0.560364
vt 0.128434 0.500000
vt 0.625000 0.189636
vt 0.618971 0.250000
vt 0.375000 0.689636
vt 0.371566 0.750000
vt 0.625000 0.753434
vt 0.618971 0.750000
vt 0.371566 0.500000
vt 0.375000 0.560364
vt 0.625000 0.496566
vt 0.618971 0.500000
vt 0.708638 0.519103
vt 0.791361 0.480897
vt 1.000000 1.000000
vt 0.994476 1.000000
vt 0.974295 1.000000
vt 0.963179 1.000000
vt 0.943138 1.000000
vt 0.931816 1.000000
vt 0.912043 1.000000
vt 0.900396 1.000000
vt 0.880985 1.000000
vt 0.868948 1.000000
vt 0.849949 1.000000
vt 0.837485 1.000000
vt 0.818892 1.000000
vt 0.806055 1.000000
vt 0.787784 1.000000
vt 0.774686 1.000000
vt 0.756596 1.000000
vt 0.743404 1.000000
vt 0.725316 1.000000
vt 0.712215 1.000000
vt 0.693946 1.000000
vt 0.681109 1.000000
vt 0.662513 1.000000
vt 0.650052 1.000000
vt 0.631055 1.000000
vt 0.619013 1.000000
vt 0.599604 1.000000
vt 0.587961 1.000000
vt 0.568182 1.000000
vt 0.556861 1.000000
vt 0.536819 1.000000
vt 0.525701 1.000000
vt 0.505523 1.000000
vt 0.494477 1.000000
vt 0.474299 1.000000
vt 0.463180 1.000000
vt 0.443139 1.000000
vt 0.431817 1.000000
vt 0.412039 1.000000
vt 0.400396 1.000000
vt 0.380986 1.000000
vt 0.368945 1.000000
vt 0.349949 1.000000
vt 0.337487 1.000000
vt 0.318891 1.000000
vt 0.306054 1.000000
vt 0.287785 1.000000
vt 0.274684 1.000000
vt 0.256596 1.000000
vt 0.243405 1.000000
vt 0.225314 1.000000
vt 0.212215 1.000000
vt 0.193947 1.000000
vt 0.181110 1.000000
vt 0.162515 1.000000
vt 0.150051 1.000000
vt 0.131053 1.000000
vt 0.119016 1.000000
vt 0.099604 1.000000
vt 0.087957 1.000000
vt 0.068184 1.000000
vt 0.056862 1.000000
vt 0.036821 1.000000
vt 0.025705 1.000000
vt 0.005524 1.000000
vt 0.381029 0.000000
vt 0.625000 0.253434
vt 0.625000 0.996566
vn 0.0980 0.0000 -0.9952
vn 0.2903 0.0000 -0.9569
vn 0.4714 0.0000 -0.8819
vn 0.6344 0.0000 -0.7730
vn 0.7730 0.0000 -0.6344
vn 0.8819 0.0000 -0.4714
vn 0.9569 0.0000 -0.2903
vn 0.9952 0.0000 -0.0980
vn 0.9952 0.0000 0.0980
vn 0.9569 0.0000 0.2903
vn 0.8819 0.0000 0.4714
vn 0.7730 0.0000 0.6344
vn 0.6344 0.0000 0.7730
vn 0.4714 0.0000 0.8819
vn 0.2903 0.0000 0.9569
vn 0.0980 0.0000 0.9952
vn -0.0980 0.0000 0.9952
vn -0.2903 0.0000 0.9569
vn -0.4714 0.0000 0.8819
vn -0.6344 0.0000 0.7730
vn -0.7730 0.0000 0.6344
vn -0.8819 0.0000 0.4714
vn -0.9569 0.0000 0.2903
vn -0.9952 0.0000 0.0980
vn -0.9952 0.0000 -0.0980
vn -0.9569 0.0000 -0.2903
vn -0.8819 0.0000 -0.4714
vn -0.7730 0.0000 -0.6344
vn -0.6344 0.0000 -0.7730
vn -0.4714 0.0000 -0.8819
vn -0.2903 0.0000 -0.9569
vn -0.0980 0.0000 -0.9952
vn 0.0000 -1.0000 0.0000
vn 0.9945 0.0002 -0.1051
vn -0.2418 0.9703 -0.0020
vn -0.8664 0.0056 0.4994
vn 0.9944 0.0002 0.1053
vn -0.9506 0.0021 0.3104
vn 0.9506 0.0021 0.3104
vn -0.9944 0.0002 0.1053
vn 0.8664 0.0056 0.4994
vn -0.9945 0.0002 -0.1051
vn 0.7483 0.0101 0.6633
vn -0.9511 0.0019 -0.3090
vn 0.6044 0.0151 0.7966
vn -0.8681 0.0049 -0.4963
vn 0.4425 0.0197 0.8965
vn 0.0920 0.0198 -0.9956
vn -0.7519 0.0087 -0.6592
vn 0.2695 0.0231 0.9627
vn 0.2737 0.0185 -0.9616
vn -0.6095 0.0125 -0.7927
vn 0.0904 0.0250 0.9956
vn 0.4480 0.0159 -0.8939
vn -0.4480 0.0159 -0.8939
vn -0.0904 0.0250 0.9956
vn 0.6095 0.0125 -0.7927
vn -0.2737 0.0185 -0.9616
vn -0.2695 0.0231 0.9627
vn 0.7519 0.0087 -0.6592
vn -0.0920 0.0198 -0.9956
vn -0.4425 0.0197 0.8965
vn 0.8681 0.0050 -0.4963
vn -0.6044 0.0151 0.7966
vn 0.9511 0.0019 -0.3090
vn -0.7483 0.0101 0.6633
vn 0.7540 0.6568 -0.0059
vn -0.2390 -0.9709 -0.0183
vn 0.7024 0.7116 0.0155
vn -0.0807 0.9967 -0.0042
vn -0.3991 -0.9168 -0.0114
vn 0.8315 0.5550 0.0228
vn -0.5579 -0.8299 -0.0020
vn 0.9320 0.3614 0.0289
vn -0.7095 -0.7047 0.0086
vn 0.9900 0.1377 0.0323
vn -0.8427 -0.5380 0.0190
vn 0.9944 -0.1008 0.0319
vn -0.9426 -0.3327 0.0273
vn 0.9426 -0.3327 0.0273
vn -0.9944 -0.1008 0.0319
vn 0.8427 -0.5380 0.0190
vn -0.9900 0.1377 0.0323
vn 0.7095 -0.7047 0.0086
vn -0.9320 0.3614 0.0289
vn 0.5579 -0.8299 -0.0020
vn -0.8315 0.5550 0.0228
vn 0.3991 -0.9168 -0.0114
vn 0.0807 0.9967 -0.0042
vn -0.7024 0.7116 0.0155
vn 0.2390 -0.9709 -0.0183
vn 0.2418 0.9703 -0.0020
vn -0.5562 0.8310 0.0084
vn 0.0795 -0.9966 -0.0219
vn 0.4011 0.9160 0.0024
vn -0.4011 0.9160 0.0024
vn -0.0795 -0.9966 -0.0219
vn 0.5562 0.8310 0.0084
vn 0.2748 0.9615 -0.0086
vn -0.4498 -0.8931 0.0080
vn 0.8698 0.4934 -0.0044
vn 0.4498 0.8931 -0.0080
vn -0.6117 -0.7911 0.0071
vn 0.9519 0.3065 -0.0028
vn -0.7540 -0.6568 0.0059
vn 0.9946 0.1040 -0.0009
vn -0.8698 -0.4934 0.0044
vn 0.9946 -0.1040 0.0009
vn -0.9519 -0.3065 0.0028
vn 0.9519 -0.3065 0.0028
vn -0.9946 -0.1040 0.0009
vn 0.8698 -0.4934 0.0044
vn -0.9946 0.1040 -0.0009
vn 0.7540 -0.6568 0.0059
vn -0.9519 0.3065 -0.0028
vn 0.6117 -0.7911 0.0071
vn -0.8698 0.4934 -0.0044
vn 0.4498 -0.8931 0.0080
vn -0.7540 0.6568 -0.0059
vn 0.2748 -0.9615 0.0086
vn 0.0000 0.0133 0.9999
vn -0.6117 0.7910 -0.0071
vn 0.0924 -0.9957 0.0089
vn -0.0924 0.9957 -0.0089
vn -0.4498 0.8931 -0.0080
vn -0.0924 -0.9957 0.0089
vn 0.6117 0.7910 -0.0071
vn -0.2748 0.9615 -0.0086
vn -0.2748 -0.9615 0.0086
vn 0.0980 0.7417 -0.6635
vn 0.2903 0.7132 -0.6380
vn 0.4714 0.6573 -0.5880
vn 0.6344 0.5762 -0.5154
vn 0.7730 0.4728 -0.4229
vn 0.8819 0.3513 -0.3143
vn 0.9569 0.2164 -0.1935
vn 0.9952 0.0731 -0.0653
vn 0.9952 -0.0731 0.0653
vn 0.9569 -0.2164 0.1935
vn 0.8819 -0.3513 0.3143
vn 0.7730 -0.4728 0.4229
vn 0.6344 -0.5762 0.5154
vn 0.4714 -0.6573 0.5880
vn 0.2903 -0.7132 0.6380
vn 0.0980 -0.7417 0.6635
vn -0.0980 -0.7417 0.6635
vn -0.2903 -0.7132 0.6380
vn -0.4714 -0.6573 0.5880
vn -0.6344 -0.5762 0.5154
vn -0.7730 -0.4728 0.4229
vn -0.8819 -0.3513 0.3143
vn -0.9569 -0.2164 0.1935
vn -0.9952 -0.0731 0.0653
vn -0.9952 0.0731 -0.0653
vn -0.9569 0.2164 -0.1935
vn -0.8819 0.3513 -0.3143
vn -0.7730 0.4728 -0.4229
vn -0.6344 0.5762 -0.5154
vn -0.4714 0.6573 -0.5880
vn -0.2903 0.7132 -0.6380
vn -0.0980 0.7417 -0.6635
vn 0.0000 -0.6667 -0.7453
vn 0.0000 0.6667 0.7453
vn 0.8819 -0.3514 0.3143
vn -0.6344 -0.5761 0.5154
vn 0.0000 0.0000 1.0000
vn 1.0000 0.0000 0.0000
vn 0.1197 0.9825 -0.1429
vn 0.0000 1.0000 0.0000
vn -1.0000 0.0000 0.0000
vn 0.0000 0.0000 -1.0000
vn 0.7823 0.6208 -0.0513
vn 0.3198 0.9472 -0.0210
vn 0.0901 0.9959 -0.0059
vn 0.0901 -0.9959 -0.0059
vn 0.3198 -0.9472 -0.0210
vn 0.7823 -0.6208 -0.0513
vn 0.7689 0.6208 -0.1529
vn 0.3144 0.9472 -0.0625
vn 0.0886 0.9959 -0.0176
vn 0.0886 -0.9959 -0.0176
vn 0.3144 -0.9472 -0.0625
vn 0.7689 -0.6208 -0.1529
vn 0.7424 0.6208 -0.2520
vn 0.3035 0.9472 -0.1030
vn 0.0855 0.9959 -0.0290
vn 0.0855 -0.9959 -0.0290
vn 0.3035 -0.9472 -0.1030
vn 0.7424 -0.6208 -0.2520
vn 0.7031 0.6208 -0.3467
vn 0.2875 0.9472 -0.1418
vn 0.0810 0.9959 -0.0399
vn 0.0810 -0.9959 -0.0399
vn 0.2875 -0.9472 -0.1418
vn 0.7031 -0.6208 -0.3467
vn 0.6519 0.6208 -0.4356
vn 0.2665 0.9472 -0.1781
vn 0.0751 0.9959 -0.0502
vn 0.0751 -0.9959 -0.0502
vn 0.2665 -0.9472 -0.1781
vn 0.6519 -0.6208 -0.4356
vn 0.5894 0.6208 -0.5169
vn 0.2410 0.9472 -0.2113
vn 0.0679 0.9959 -0.0595
vn 0.0679 -0.9959 -0.0595
vn 0.2410 -0.9472 -0.2113
vn 0.5894 -0.6208 -0.5169
vn 0.5169 0.6208 -0.5894
vn 0.2113 0.9472 -0.2410
vn 0.0595 0.9959 -0.0679
vn 0.0595 -0.9959 -0.0679
vn 0.2113 -0.9472 -0.2410
vn 0.5169 -0.6208 -0.5894
vn 0.4356 0.6208 -0.6519
vn 0.1781 0.9472 -0.2665
vn 0.0502 0.9959 -0.0751
vn 0.0502 -0.9959 -0.0751
vn 0.1781 -0.9472 -0.2665
vn 0.4356 -0.6208 -0.6519
vn 0.3467 0.6208 -0.7031
vn 0.1418 0.9472 -0.2875
vn 0.0399 0.9959 -0.0810
vn 0.0399 -0.9959 -0.0810
vn 0.1418 -0.9472 -0.2875
vn 0.3467 -0.6208 -0.7031
vn 0.1197 -0.9825 -0.1430
vn 0.1030 0.9472 -0.3035
vn 0.0290 0.9959 -0.0855
vn 0.0290 -0.9959 -0.0855
vn 0.1030 -0.9472 -0.3035
vn 0.2520 0.6208 -0.7424
vn 0.2520 -0.6208 -0.7424
vn 0.0299 -0.9358 -0.3513
vn 0.0176 0.9959 -0.0886
vn 0.0176 -0.9959 -0.0886
vn 0.0513 -0.6208 0.7823
vn -0.0513 -0.6208 0.7823
vn -0.0513 0.6208 0.7823
vn 0.0625 0.9472 -0.3144
vn 0.0059 0.9959 -0.0901
vn 0.0059 -0.9959 -0.0901
vn 0.0625 -0.9472 -0.3144
vn 0.0299 0.9358 -0.3513
vn 0.0513 0.6208 0.7823
vn -0.0299 -0.9358 -0.3513
vn -0.0059 0.9959 -0.0901
vn -0.0059 -0.9959 -0.0901
vn -0.1197 0.9825 -0.1430
vn -0.0299 0.9358 -0.3514
vn -0.1197 -0.9825 -0.1429
vn -0.0625 -0.9472 -0.3144
vn -0.0176 0.9959 -0.0886
vn -0.0176 -0.9959 -0.0886
vn -0.2520 0.6208 -0.7424
vn -0.0625 0.9472 -0.3144
vn -0.2520 -0.6208 -0.7424
vn -0.1030 0.9472 -0.3035
vn -0.0290 0.9959 -0.0855
vn -0.0290 -0.9959 -0.0855
vn -0.1030 -0.9472 -0.3035
vn -0.3467 0.6208 -0.7031
vn -0.1418 0.9472 -0.2875
vn -0.0399 0.9959 -0.0810
vn -0.0399 -0.9959 -0.0810
vn -0.1418 -0.9472 -0.2875
vn -0.3467 -0.6208 -0.7031
vn -0.4356 0.6208 -0.6519
vn -0.1781 0.9472 -0.2665
vn -0.0502 0.9959 -0.0751
vn -0.0502 -0.9959 -0.0751
vn -0.1781 -0.9472 -0.2665
vn -0.4356 -0.6208 -0.6519
vn -0.5169 0.6208 -0.5894
vn -0.2113 0.9472 -0.2410
vn -0.0595 0.9959 -0.0679
vn -0.0595 -0.9959 -0.0679
vn -0.2113 -0.9472 -0.2410
vn -0.5169 -0.6208 -0.5894
vn -0.5894 0.6208 -0.5169
vn -0.2410 0.9472 -0.2113
vn -0.0679 0.9959 -0.0595
vn -0.0679 -0.9959 -0.0595
vn -0.2410 -0.9472 -0.2113
vn -0.5894 -0.6208 -0.5169
vn -0.6519 0.6208 -0.4356
vn -0.2665 0.9472 -0.1781
vn -0.0751 0.9959 -0.0502
vn -0.0751 -0.9959 -0.0502
vn -0.2665 -0.9472 -0.1781
vn -0.6519 -0.6208 -0.4356
vn -0.7031 0.6208 -0.3467
vn -0.2875 0.9472 -0.1418
vn -0.0810 0.9959 -0.0399
vn -0.0810 -0.9959 -0.0399
vn -0.2875 -0.9472 -0.1418
vn -0.7031 -0.6208 -0.3467
vn -0.7424 0.6208 -0.2520
vn -0.3035 0.9472 -0.1030
vn -0.0855 0.9959 -0.0290
vn -0.0855 -0.9959 -0.0290
vn -0.3035 -0.9472 -0.1030
vn -0.7424 -0.6208 -0.2520
vn -0.7689 0.6208 -0.1529
vn -0.3144 0.9472 -0.0625
vn -0.0886 0.9959 -0.0176
vn -0.0886 -0.9959 -0.0176
vn -0.3144 -0.9472 -0.0625
vn -0.7689 -0.6208 -0.1529
vn -0.7823 0.6208 -0.0513
vn -0.3198 0.9472 -0.0210
vn -0.0901 0.9959 -0.0059
vn -0.0901 -0.9959 -0.0059
vn -0.3198 -0.9472 -0.0210
vn -0.7823 -0.6208 -0.0513
vn -0.7823 0.6208 0.0513
vn -0.3198 0.9472 0.0210
vn -0.0901 0.9959 0.0059
vn -0.0901 -0.9959 0.0059
vn -0.3198 -0.9472 0.0210
vn -0.7823 -0.6208 0.0513
vn -0.7689 0.6208 0.1529
vn -0.3144 0.9472 0.0625
vn -0.0886 0.9959 0.0176
vn -0.0886 -0.9959 0.0176
vn -0.3144 -0.9472 0.0625
vn -0.7689 -0.6208 0.1529
vn -0.7424 0.6208 0.2520
vn -0.3035 0.9472 0.1030
vn -0.0855 0.9959 0.0290
vn -0.0855 -0.9959 0.0290
vn -0.3035 -0.9472 0.1030
vn -0.7424 -0.6208 0.2520
vn -0.7031 0.6208 0.3467
vn -0.2875 0.9472 0.1418
vn -0.0810 0.9959 0.0399
vn -0.0810 -0.9959 0.0399
vn -0.2875 -0.9472 0.1418
vn -0.7031 -0.6208 0.3467
vn -0.6519 0.6208 0.4356
vn -0.2665 0.9472 0.1781
vn -0.0751 0.9959 0.0502
vn -0.0751 -0.9959 0.0502
vn -0.2665 -0.9472 0.1781
vn -0.6519 -0.6208 0.4356
vn -0.5894 0.6208 0.5169
vn -0.2410 0.9472 0.2113
vn -0.0679 0.9959 0.0595
vn -0.0679 -0.9959 0.0595
vn -0.2410 -0.9472 0.2113
vn -0.5894 -0.6208 0.5169
vn -0.5169 0.6208 0.5894
vn -0.2113 0.9472 0.2410
vn -0.0595 0.9959 0.0679
vn -0.0595 -0.9959 0.0679
vn -0.2113 -0.9472 0.2410
vn -0.5169 -0.6208 0.5894
vn -0.4356 0.6208 0.6519
vn -0.1781 0.9472 0.2665
vn -0.0502 0.9959 0.0751
vn -0.0502 -0.9959 0.0751
vn -0.1781 -0.9472 0.2665
vn -0.4356 -0.6208 0.6519
vn -0.3467 0.6208 0.7031
vn -0.1418 0.9472 0.2875
vn -0.0399 0.9959 0.0810
vn -0.0399 -0.9959 0.0810
vn -0.1418 -0.9472 0.2875
vn -0.3467 -0.6208 0.7031
vn -0.2520 0.6208 0.7424
vn -0.1030 0.9472 0.3035
vn -0.0290 0.9959 0.0855
vn -0.0290 -0.9959 0.0855
vn -0.1030 -0.9472 0.3035
vn -0.2520 -0.6208 0.7424
vn -0.1529 0.6208 0.7689
vn -0.0625 0.9472 0.3144
vn -0.0176 0.9959 0.0886
vn -0.0176 -0.9959 0.0886
vn -0.0625 -0.9472 0.3144
vn -0.1529 -0.6208 0.7689
vn -0.0210 0.9472 0.3198
vn -0.0059 0.9959 0.0901
vn -0.0059 -0.9959 0.0901
vn -0.0210 -0.9472 0.3198
vn 0.0210 0.9472 0.3198
vn 0.0059 0.9959 0.0901
vn 0.0059 -0.9959 0.0901
vn 0.0210 -0.9472 0.3199
vn 0.1529 0.6208 0.7689
vn 0.0625 0.9472 0.3144
vn 0.0176 0.9959 0.0886
vn 0.0176 -0.9959 0.0886
vn 0.0625 -0.9472 0.3144
vn 0.1529 -0.6208 0.7689
vn 0.2520 0.6208 0.7424
vn 0.1030 0.9472 0.3035
vn 0.0290 0.9959 0.0855
vn 0.0290 -0.9959 0.0855
vn 0.1030 -0.9472 0.3035
vn 0.2520 -0.6208 0.7424
vn 0.3467 0.6208 0.7031
vn 0.1418 0.9472 0.2875
vn 0.0399 0.9959 0.0810
vn 0.0399 -0.9959 0.0810
vn 0.1418 -0.9472 0.2875
vn 0.3467 -0.6208 0.7031
vn 0.4356 0.6208 0.6519
vn 0.1781 0.9472 0.2665
vn 0.0502 0.9959 0.0751
vn 0.0502 -0.9959 0.0751
vn 0.1781 -0.9472 0.2665
vn 0.4356 -0.6208 0.6519
vn 0.5169 0.6208 0.5894
vn 0.2113 0.9472 0.2410
vn 0.0595 0.9959 0.0679
vn 0.0595 -0.9959 0.0679
vn 0.2113 -0.9472 0.2410
vn 0.5169 -0.6208 0.5894
vn 0.5894 0.6208 0.5169
vn 0.2410 0.9472 0.2113
vn 0.0679 0.9959 0.0595
vn 0.0679 -0.9959 0.0595
vn 0.2410 -0.9472 0.2113
vn 0.5894 -0.6208 0.5169
vn 0.6519 0.6208 0.4356
vn 0.2665 0.9472 0.1781
vn 0.0751 0.9959 0.0502
vn 0.0751 -0.9959 0.0502
vn 0.2665 -0.9472 0.1781
vn 0.6519 -0.6208 0.4355
vn 0.7031 0.6208 0.3467
vn 0.2875 0.9472 0.1418
vn 0.0810 0.9959 0.0399
vn 0.0810 -0.9959 0.0399
vn 0.2875 -0.9472 0.1418
vn 0.7031 -0.6208 0.3467
vn 0.7424 0.6208 0.2520
vn 0.3035 0.9472 0.1030
vn 0.0855 0.9959 0.0290
vn 0.0855 -0.9959 0.0290
vn 0.3035 -0.9472 0.1030
vn 0.7424 -0.6208 0.2520
vn 0.7689 0.6208 0.1529
vn 0.3144 0.9472 0.0625
vn 0.0886 0.9959 0.0176
vn 0.0886 -0.9959 0.0176
vn 0.3144 -0.9472 0.0625
vn 0.7689 -0.6208 0.1529
vn 0.7823 0.6208 0.0513
vn 0.3198 0.9472 0.0210
vn 0.0901 0.9959 0.0059
vn 0.0901 -0.9959 0.0059
vn 0.3198 -0.9472 0.0210
vn 0.7823 -0.6208 0.0513
vn -0.5774 -0.5773 0.5773
vn -0.5774 0.5773 0.5773
vn -0.5774 -0.5773 -0.5773
vn -0.5774 0.5773 -0.5773
vn 0.5774 -0.5773 0.5773
vn 0.5774 0.5773 0.5773
vn 0.5774 -0.5773 -0.5773
vn 0.5774 0.5773 -0.5773
vn -0.1533 0.0000 -0.9882
vn 0.1305 0.0000 -0.9914
vn 0.0000 0.8064 -0.5914
vn 0.0000 -0.8064 -0.5914
vn -0.1305 -0.0000 -0.9914
vn 0.1533 0.0000 -0.9882
vn 0.0652 0.7119 0.6992
vn 0.1938 0.6879 0.6995
vn 0.3176 0.6396 0.7000
vn 0.4316 0.5680 0.7008
vn 0.5326 0.4730 0.7019
vn 0.6143 0.3579 0.7032
vn 0.6726 0.2261 0.7046
vn 0.7032 0.0826 0.7062
vn 0.7035 -0.0639 0.7079
vn 0.6735 -0.2077 0.7095
vn 0.6157 -0.3398 0.7110
vn 0.5340 -0.4557 0.7122
vn 0.4331 -0.5510 0.7133
vn 0.3188 -0.6232 0.7141
vn 0.1948 -0.6719 0.7146
vn 0.0652 -0.6962 0.7149
vn -0.0652 -0.6962 0.7149
vn -0.1948 -0.6719 0.7146
vn -0.3188 -0.6232 0.7141
vn -0.4331 -0.5510 0.7133
vn -0.5340 -0.4557 0.7122
vn -0.6157 -0.3398 0.7110
vn -0.6735 -0.2077 0.7095
vn -0.7035 -0.0639 0.7078
vn -0.7031 0.0827 0.7062
vn -0.6726 0.2261 0.7046
vn -0.6143 0.3580 0.7032
vn -0.5326 0.4730 0.7019
vn -0.4316 0.5680 0.7008
vn -0.3177 0.6396 0.7000
vn -0.1938 0.6879 0.6995
vn -0.0652 0.7119 0.6992
vn -0.7071 -0.7071 0.0000
vn -0.7071 0.0000 0.7071
vn -0.7071 0.7071 0.0000
vn -0.7071 0.0000 -0.7071
vn 0.0000 -0.7071 -0.7071
vn 0.0000 0.7071 -0.7071
vn 0.7071 0.0000 -0.7071
vn 0.7071 -0.7071 0.0000
vn 0.7071 0.7071 0.0000
vn 0.7071 0.0000 0.7071
vn 0.0000 -0.7071 0.7071
vn 0.0000 0.7071 0.7071
vn 0.0393 0.8182 -0.5735
vn -0.0393 -0.8182 -0.5735
vn 0.3980 -0.1582 0.9036
vn 0.3980 0.1582 0.9036
vn -0.1132 -0.0000 -0.9936
vn 0.1132 0.0000 -0.9936
vn 0.0393 -0.8182 -0.5735
vn -0.0000 -0.6216 0.7833
vn 0.0000 0.6216 0.7833
vn -0.0654 -0.0000 -0.9979
vn -0.0393 0.8182 -0.5735
vn -0.3980 -0.1582 0.9036
vn -0.3980 0.1582 0.9036
vn 0.0654 0.0000 -0.9979
vn 0.0924 0.9957 -0.0089
usemtl None
s off
f 1/1/1 2/2/1 4/3/1 3/4/1
f 3/4/2 4/3/2 6/5/2 5/6/2
f 5/6/3 6/5/3 8/7/3 7/8/3
f 7/8/4 8/7/4 10/9/4 9/10/4
f 9/10/5 10/9/5 12/11/5 11/12/5
f 11/12/6 12/11/6 14/13/6 13/14/6
f 13/14/7 14/13/7 16/15/7 15/16/7
f 15/16/8 16/15/8 18/17/8 17/18/8
f 17/18/9 18/17/9 20/19/9 19/20/9
f 19/20/10 20/19/10 22/21/10 21/22/10
f 21/22/11 22/21/11 24/23/11 23/24/11
f 23/24/12 24/23/12 26/25/12 25/26/12
f 25/26/13 26/25/13 28/27/13 27/28/13
f 27/28/14 28/27/14 30/29/14 29/30/14
f 29/30/15 30/29/15 32/31/15 31/32/15
f 31/32/16 32/31/16 34/33/16 33/34/16
f 33/34/17 34/33/17 36/35/17 35/36/17
f 35/36/18 36/35/18 38/37/18 37/38/18
f 37/38/19 38/37/19 40/39/19 39/40/19
f 39/40/20 40/39/20 42/41/20 41/42/20
f 41/42/21 42/41/21 44/43/21 43/44/21
f 43/44/22 44/43/22 46/45/22 45/46/22
f 45/46/23 46/45/23 48/47/23 47/48/23
f 47/48/24 48/47/24 50/49/24 49/50/24
f 49/50/25 50/49/25 52/51/25 51/52/25
f 51/52/26 52/51/26 54/53/26 53/54/26
f 53/54/27 54/53/27 56/55/27 55/56/27
f 55/56/28 56/55/28 58/57/28 57/58/28
f 57/58/29 58/57/29 60/59/29 59/60/29
f 59/60/30 60/59/30 62/61/30 61/62/30
f 20/19/9 18/17/9 73/63/9 74/64/9
f 61/62/31 62/61/31 64/65/31 63/66/31
f 63/66/32 64/65/32 2/67/32 1/68/32
f 1/69/33 3/70/33 5/71/33 7/72/33 9/73/33 11/74/33 13/75/33 15/76/33 17/77/33 19/78/33 21/79/33 23/80/33 25/81/33 27/82/33 29/83/33 31/84/33 33/85/33 35/86/33 37/87/33 39/88/33 41/89/33 43/90/33 45/91/33 47/92/33 49/93/33 51/94/33 53/95/33 55/96/33 57/97/33 59/98/33 61/99/33 63/100/33
f 89/101/24 88/102/24 120/103/24 121/104/24
f 38/37/18 36/35/18 82/105/18 83/106/18
f 56/55/27 54/53/27 91/107/27 92/108/27
f 12/11/5 10/9/5 69/109/5 70/110/5
f 30/29/14 28/27/14 78/111/14 79/112/14
f 48/47/23 46/45/23 87/113/23 88/102/23
f 4/3/1 2/2/1 66/114/1 65/115/1
f 2/67/32 64/65/32 96/116/32 66/117/32
f 22/21/10 20/19/10 74/64/10 75/118/10
f 40/39/19 38/37/19 83/106/19 84/119/19
f 58/57/28 56/55/28 92/108/28 93/120/28
f 14/13/6 12/11/6 70/110/6 71/121/6
f 32/31/15 30/29/15 79/112/15 80/122/15
f 50/49/24 48/47/24 88/102/24 89/101/24
f 6/5/2 4/3/2 65/115/2 67/123/2
f 24/23/11 22/21/11 75/118/11 76/124/11
f 42/41/20 40/39/20 84/119/20 85/125/20
f 60/59/29 58/57/29 93/120/29 94/126/29
f 16/15/7 14/13/7 71/121/7 72/127/7
f 34/33/16 32/31/16 80/122/16 81/128/16
f 52/51/25 50/49/25 89/101/25 90/129/25
f 8/7/3 6/5/3 67/123/3 68/130/3
f 26/25/12 24/23/12 76/124/12 77/131/12
f 44/43/21 42/41/21 85/125/21 86/132/21
f 62/61/30 60/59/30 94/126/30 95/133/30
f 18/17/8 16/15/8 72/127/8 73/63/8
f 36/35/17 34/33/17 81/128/17 82/105/17
f 54/53/26 52/51/26 90/129/26 91/107/26
f 10/9/4 8/7/4 68/130/4 69/109/4
f 28/27/13 26/25/13 77/131/13 78/111/13
f 46/45/22 44/43/22 86/132/22 87/113/22
f 64/65/31 62/61/31 95/133/31 96/116/31
f 105/134/34 104/135/34 136/136/34 137/137/34
f 76/124/11 75/118/11 107/138/11 108/139/11
f 90/129/25 89/101/25 121/104/25 122/140/25
f 77/131/12 76/124/12 108/139/12 109/141/12
f 91/107/26 90/129/26 122/140/26 123/142/26
f 78/111/13 77/131/13 109/141/13 110/143/13
f 92/108/27 91/107/27 123/142/27 124/144/27
f 79/112/14 78/111/14 110/143/14 111/145/14
f 65/115/1 66/114/1 98/146/1 97/147/1
f 93/120/28 92/108/28 124/144/28 125/148/28
f 80/122/15 79/112/15 111/145/15 112/149/15
f 67/123/2 65/115/2 97/147/2 99/150/2
f 94/126/29 93/120/29 125/148/29 126/151/29
f 81/128/16 80/122/16 112/149/16 113/152/16
f 68/130/3 67/123/3 99/150/3 100/153/3
f 95/133/30 94/126/30 126/151/30 127/154/30
f 82/105/17 81/128/17 113/152/17 114/155/17
f 69/109/4 68/130/4 100/153/4 101/156/4
f 96/116/31 95/133/31 127/154/31 128/157/31
f 83/106/18 82/105/18 114/155/18 115/158/18
f 70/110/5 69/109/5 101/156/5 102/159/5
f 66/117/32 96/116/32 128/157/32 98/160/32
f 84/119/19 83/106/19 115/158/19 116/161/19
f 71/121/6 70/110/6 102/159/6 103/162/6
f 85/125/20 84/119/20 116/161/20 117/163/20
f 72/127/7 71/121/7 103/162/7 104/135/7
f 86/132/21 85/125/21 117/163/21 118/164/21
f 73/63/8 72/127/8 104/135/8 105/134/8
f 87/113/22 86/132/22 118/164/22 119/165/22
f 74/64/9 73/63/9 105/134/9 106/166/9
f 88/102/23 87/113/23 119/165/23 120/103/23
f 75/118/10 74/64/10 106/166/10 107/138/10
f 160/167/35 159/168/35 191/169/35 192/170/35
f 119/165/36 118/164/36 150/171/36 151/172/36
f 106/166/37 105/134/37 137/137/37 138/173/37
f 120/103/38 119/165/38 151/172/38 152/174/38
f 107/138/39 106/166/39 138/173/39 139/175/39
f 121/104/40 120/103/40 152/174/40 153/176/40
f 108/139/41 107/138/41 139/175/41 140/177/41
f 122/140/42 121/104/42 153/176/42 154/178/42
f 109/141/43 108/139/43 140/177/43 141/179/43
f 123/142/44 122/140/44 154/178/44 155/180/44
f 110/143/45 109/141/45 141/179/45 142/181/45
f 124/144/46 123/142/46 155/180/46 156/182/46
f 111/145/47 110/143/47 142/181/47 143/183/47
f 97/147/48 98/146/48 130/184/48 129/185/48
f 125/148/49 124/144/49 156/182/49 157/186/49
f 112/149/50 111/145/50 143/183/50 144/187/50
f 99/150/51 97/147/51 129/185/51 131/188/51
f 126/151/52 125/148/52 157/186/52 158/189/52
f 113/152/53 112/149/53 144/187/53 145/190/53
f 100/153/54 99/150/54 131/188/54 132/191/54
f 127/154/55 126/151/55 158/189/55 159/168/55
f 114/155/56 113/152/56 145/190/56 146/192/56
f 101/156/57 100/153/57 132/191/57 133/193/57
f 128/157/58 127/154/58 159/168/58 160/167/58
f 115/158/59 114/155/59 146/192/59 147/194/59
f 102/159/60 101/156/60 133/193/60 134/195/60
f 98/160/61 128/157/61 160/167/61 130/196/61
f 116/161/62 115/158/62 147/194/62 148/197/62
f 103/162/63 102/159/63 134/195/63 135/198/63
f 117/163/64 116/161/64 148/197/64 149/199/64
f 104/135/65 103/162/65 135/198/65 136/136/65
f 118/164/66 117/163/66 149/199/66 150/171/66
f 166/200/67 165/201/67 687/202/67 689/203/67
f 147/194/68 146/192/68 178/204/68 179/205/68
f 134/195/69 133/193/69 165/201/69 166/200/69
f 130/196/70 160/167/70 192/170/70 162/206/70
f 148/197/71 147/194/71 179/205/71 180/207/71
f 135/198/72 134/195/72 166/200/72 167/208/72
f 149/199/73 148/197/73 180/207/73 181/209/73
f 136/136/74 135/198/74 167/208/74 168/210/74
f 150/171/75 149/199/75 181/209/75 182/211/75
f 137/137/76 136/136/76 168/210/76 169/212/76
f 151/172/77 150/171/77 182/211/77 183/213/77
f 138/173/78 137/137/78 169/212/78 170/214/78
f 152/174/79 151/172/79 183/213/79 184/215/79
f 139/175/80 138/173/80 170/214/80 171/216/80
f 153/176/81 152/174/81 184/215/81 185/217/81
f 140/177/82 139/175/82 171/216/82 172/218/82
f 154/178/83 153/176/83 185/217/83 186/219/83
f 141/179/84 140/177/84 172/218/84 173/220/84
f 155/180/85 154/178/85 186/219/85 187/221/85
f 142/181/86 141/179/86 173/220/86 174/222/86
f 156/182/87 155/180/87 187/221/87 188/223/87
f 143/183/88 142/181/88 174/222/88 175/224/88
f 129/185/89 130/184/89 162/225/89 161/226/89
f 157/186/90 156/182/90 188/223/90 189/227/90
f 144/187/91 143/183/91 175/224/91 176/228/91
f 131/188/92 129/185/92 161/226/92 163/229/92
f 158/189/93 157/186/93 189/227/93 190/230/93
f 145/190/94 144/187/94 176/228/94 177/231/94
f 132/191/95 131/188/95 163/229/95 164/232/95
f 159/168/96 158/189/96 190/230/96 191/169/96
f 146/192/97 145/190/97 177/231/97 178/204/97
f 133/193/98 132/191/98 164/232/98 165/201/98
f 163/229/99 161/226/99 679/233/99 683/234/99
f 748/235/33 760/236/33 754/237/33 742/238/33
f 180/207/100 179/205/100 715/239/100 717/240/100
f 167/208/101 166/200/101 689/203/101 691/241/101
f 164/232/102 163/229/102 683/234/102 685/242/102
f 181/209/103 180/207/103 717/240/103 719/243/103
f 168/210/104 167/208/104 691/241/104 693/244/104
f 182/211/105 181/209/105 719/243/105 721/245/105
f 169/212/106 168/210/106 693/244/106 695/246/106
f 183/213/107 182/211/107 721/245/107 723/247/107
f 170/214/108 169/212/108 695/246/108 697/248/108
f 184/215/109 183/213/109 723/247/109 725/249/109
f 171/216/110 170/214/110 697/248/110 699/250/110
f 185/217/111 184/215/111 725/249/111 727/251/111
f 172/218/112 171/216/112 699/250/112 701/252/112
f 186/219/113 185/217/113 727/251/113 729/253/113
f 173/220/114 172/218/114 701/252/114 703/254/114
f 187/221/115 186/219/115 729/253/115 731/255/115
f 174/222/116 173/220/116 703/254/116 705/256/116
f 188/223/117 187/221/117 731/255/117 733/257/117
f 175/224/118 174/222/118 705/256/118 707/258/118
f 189/227/119 188/223/119 733/257/119 735/259/119
f 176/228/120 175/224/120 707/258/120 709/260/120
f 678/261/121 681/262/121 740/263/121 738/264/121 736/265/121 734/266/121 732/267/121 730/268/121 728/269/121 726/270/121 724/271/121 722/272/121 720/273/121 718/274/121 716/275/121 714/276/121 712/277/121 710/278/121 708/279/121 706/280/121 704/281/121 702/282/121 700/283/121 698/284/121 696/285/121 694/286/121 692/287/121 690/288/121 688/289/121 686/290/121 684/291/121 682/292/121
f 190/230/122 189/227/122 735/259/122 737/293/122
f 177/231/123 176/228/123 709/260/123 711/294/123
f 162/206/124 192/170/124 741/295/124 680/296/124
f 191/169/125 190/230/125 737/293/125 739/297/125
f 178/204/126 177/231/126 711/294/126 713/298/126
f 165/201/127 164/232/127 685/242/127 687/202/127
f 192/170/128 191/169/128 739/297/128 741/295/128
f 179/205/129 178/204/129 713/299/129 715/239/129
f 193/300/130 194/301/130 196/302/130 195/303/130
f 195/303/131 196/302/131 198/304/131 197/305/131
f 197/305/132 198/304/132 200/306/132 199/307/132
f 199/307/133 200/306/133 202/308/133 201/309/133
f 201/309/134 202/308/134 204/310/134 203/311/134
f 203/311/135 204/310/135 206/312/135 205/313/135
f 205/313/136 206/312/136 208/314/136 207/315/136
f 207/315/137 208/314/137 210/316/137 209/317/137
f 209/317/138 210/316/138 212/318/138 211/319/138
f 211/319/139 212/318/139 214/320/139 213/321/139
f 213/321/140 214/320/140 216/322/140 215/323/140
f 215/323/141 216/322/141 218/324/141 217/325/141
f 217/325/142 218/324/142 220/326/142 219/327/142
f 219/327/143 220/326/143 222/328/143 221/329/143
f 221/329/144 222/328/144 224/330/144 223/331/144
f 223/331/145 224/330/145 226/332/145 225/333/145
f 225/333/146 226/332/146 228/334/146 227/335/146
f 227/335/147 228/334/147 230/336/147 229/337/147
f 229/337/148 230/336/148 232/338/148 231/339/148
f 231/339/149 232/338/149 234/340/149 233/341/149
f 233/341/150 234/340/150 236/342/150 235/343/150
f 235/343/151 236/342/151 238/344/151 237/345/151
f 237/345/152 238/344/152 240/346/152 239/347/152
f 239/347/153 240/346/153 242/348/153 241/349/153
f 241/349/154 242/348/154 244/350/154 243/351/154
f 243/351/155 244/350/155 246/352/155 245/353/155
f 245/353/156 246/352/156 248/354/156 247/355/156
f 247/355/157 248/354/157 250/356/157 249/357/157
f 249/357/158 250/356/158 252/358/158 251/359/158
f 251/359/159 252/358/159 254/360/159 253/361/159
f 200/306/132 198/304/132 259/362/132 260/363/132
f 253/361/160 254/360/160 256/364/160 255/365/160
f 255/365/161 256/364/161 194/366/161 193/367/161
f 193/368/162 195/369/162 197/370/162 199/371/162 201/372/162 203/373/162 205/374/162 207/375/162 209/376/162 211/377/162 213/378/162 215/379/162 217/380/162 219/381/162 221/382/162 223/383/162 225/384/162 227/385/162 229/386/162 231/387/162 233/388/162 235/389/162 237/390/162 239/391/162 241/392/162 243/393/162 245/394/162 247/395/162 249/396/162 251/397/162 253/398/162 255/399/162
f 257/400/163 258/401/163 288/402/163 287/403/163 286/404/163 285/405/163 284/406/163 283/407/163 282/408/163 281/409/163 280/410/163 279/411/163 278/412/163 277/413/163 276/414/163 275/415/163 274/416/163 273/417/163 272/418/163 271/419/163 270/420/163 269/421/163 268/422/163 267/423/163 266/424/163 265/425/163 264/426/163 263/427/163 262/428/163 261/429/163 260/430/163 259/431/163
f 218/324/141 216/322/141 268/432/141 269/433/141
f 236/342/150 234/340/150 277/434/150 278/435/150
f 254/360/159 252/358/159 286/436/159 287/437/159
f 210/316/137 208/314/137 264/438/137 265/439/137
f 228/334/146 226/332/146 273/440/146 274/441/146
f 246/352/155 244/350/155 282/442/155 283/443/155
f 202/308/133 200/306/133 260/363/133 261/444/133
f 220/326/142 218/324/142 269/433/142 270/445/142
f 238/344/151 236/342/151 278/435/151 279/446/151
f 256/364/160 254/360/160 287/437/160 288/447/160
f 212/318/138 210/316/138 265/439/138 266/448/138
f 230/336/147 228/334/147 274/441/147 275/449/147
f 248/354/156 246/352/156 283/443/156 284/450/156
f 204/310/134 202/308/134 261/444/134 262/451/134
f 222/328/143 220/326/143 270/445/143 271/452/143
f 240/346/152 238/344/152 279/446/152 280/453/152
f 196/302/130 194/301/130 258/454/130 257/455/130
f 194/366/161 256/364/161 288/447/161 258/456/161
f 214/320/139 212/318/139 266/448/139 267/457/139
f 232/338/148 230/336/148 275/449/148 276/458/148
f 250/356/157 248/354/157 284/450/157 285/459/157
f 206/312/135 204/310/135 262/451/135 263/460/135
f 224/330/144 222/328/144 271/452/144 272/461/144
f 242/348/153 240/346/153 280/453/153 281/462/153
f 198/304/131 196/302/131 257/455/131 259/362/131
f 216/322/164 214/320/164 267/457/164 268/432/164
f 234/340/165 232/338/165 276/458/165 277/434/165
f 252/358/158 250/356/158 285/459/158 286/436/158
f 208/314/136 206/312/136 263/460/136 264/438/136
f 226/332/145 224/330/145 272/461/145 273/440/145
f 244/350/154 242/348/154 281/462/154 282/442/154
f 756/463/166 758/464/166 745/465/166 743/466/166
f 762/467/167 764/468/167 759/469/167 755/470/167
f 767/471/168 772/472/168 774/473/168 339/474/168
f 763/475/169 751/476/169 746/477/169 757/478/169
f 744/479/170 747/480/170 753/481/170 749/482/170
f 750/483/171 752/484/171 765/485/171 761/486/171
f 289/487/172 294/488/172 295/489/172 290/490/172
f 290/490/173 295/489/173 296/491/173 291/492/173
f 519/493/174 520/494/174 291/492/174 296/491/174 518/495/174
f 521/496/175 297/497/175 292/498/175 523/499/175 522/500/175
f 292/498/176 297/497/176 298/501/176 293/502/176
f 293/502/177 298/501/177 294/488/177 289/487/177
f 294/488/178 299/503/178 300/504/178 295/489/178
f 295/489/179 300/504/179 301/505/179 296/491/179
f 518/495/180 296/491/180 301/505/180 524/506/180 525/507/180
f 526/508/181 302/509/181 297/497/181 521/496/181 527/510/181
f 297/497/182 302/509/182 303/511/182 298/501/182
f 298/501/183 303/511/183 299/503/183 294/488/183
f 299/503/184 304/512/184 305/513/184 300/504/184
f 300/504/185 305/513/185 306/514/185 301/505/185
f 524/506/186 301/505/186 306/514/186 528/515/186
f 529/516/187 307/517/187 302/509/187 526/508/187
f 302/509/188 307/517/188 308/518/188 303/511/188
f 303/511/189 308/518/189 304/512/189 299/503/189
f 304/512/190 309/519/190 310/520/190 305/513/190
f 305/513/191 310/520/191 311/521/191 306/514/191
f 531/522/192 528/515/192 306/514/192 311/521/192 530/523/192
f 532/524/193 312/525/193 307/517/193 529/516/193 533/526/193
f 307/517/194 312/525/194 313/527/194 308/518/194
f 308/518/195 313/527/195 309/519/195 304/512/195
f 309/519/196 314/528/196 315/529/196 310/520/196
f 310/520/197 315/529/197 316/530/197 311/521/197
f 530/523/198 311/521/198 316/530/198 534/531/198 535/532/198
f 536/533/199 317/534/199 312/525/199 532/524/199 537/535/199
f 312/525/200 317/534/200 318/536/200 313/527/200
f 313/527/201 318/536/201 314/528/201 309/519/201
f 314/528/202 319/537/202 320/538/202 315/529/202
f 315/529/203 320/538/203 321/539/203 316/530/203
f 534/531/204 316/530/204 321/539/204 538/540/204
f 539/541/205 322/542/205 317/534/205 536/533/205
f 317/534/206 322/542/206 323/543/206 318/536/206
f 318/536/207 323/543/207 319/537/207 314/528/207
f 319/537/208 324/544/208 325/545/208 320/538/208
f 320/538/209 325/545/209 326/546/209 321/539/209
f 541/547/210 538/540/210 321/539/210 326/546/210 540/548/210
f 542/549/211 327/550/211 322/542/211 539/541/211 543/551/211
f 322/542/212 327/550/212 328/552/212 323/543/212
f 323/543/213 328/552/213 324/544/213 319/537/213
f 324/544/214 329/553/214 330/554/214 325/545/214
f 325/545/215 330/554/215 331/555/215 326/546/215
f 540/548/216 326/546/216 331/555/216 544/556/216 545/557/216
f 546/558/217 332/559/217 327/550/217 542/549/217 547/560/217
f 327/550/218 332/559/218 333/561/218 328/552/218
f 328/552/219 333/561/219 329/553/219 324/544/219
f 329/553/220 334/562/220 335/563/220 330/554/220
f 330/554/221 335/563/221 336/564/221 331/555/221
f 544/556/222 331/555/222 336/564/222 548/565/222
f 549/566/223 337/567/223 332/559/223 546/558/223
f 332/559/224 337/567/224 338/568/224 333/561/224
f 333/561/225 338/568/225 334/562/225 329/553/225
f 342/569/226 776/570/226 769/571/226 766/572/226
f 335/563/227 339/474/227 340/573/227 336/564/227
f 551/574/228 548/565/228 336/564/228 340/573/228 550/575/228
f 552/576/229 341/577/229 337/567/229 549/566/229 553/578/229
f 337/567/230 341/577/230 342/569/230 338/568/230
f 334/562/231 768/579/231 767/471/231 339/474/231 335/563/231
f 338/568/232 342/569/232 766/572/232 768/579/232 334/562/232
f 344/580/233 346/581/233 786/582/233 776/583/233
f 550/575/234 340/573/234 343/584/234 555/585/234 554/586/234
f 556/587/235 344/580/235 341/577/235 552/576/235 557/588/235
f 780/589/236 787/590/236 791/591/236 782/592/236
f 771/593/237 777/594/237 781/595/237 773/596/237
f 775/597/238 785/598/238 778/599/238 770/600/238
f 339/474/239 774/601/239 343/584/239 340/573/239
f 555/585/240 343/584/240 345/602/240 558/603/240
f 559/604/241 346/581/241 344/580/241 556/587/241
f 341/577/242 344/580/242 776/605/242 342/569/242
f 774/606/243 783/607/243 345/602/243 343/584/243
f 784/608/244 794/609/244 788/610/244 779/611/244
f 346/581/245 348/612/245 793/613/245 786/582/245
f 558/603/246 345/602/246 347/614/246 560/615/246 561/616/246
f 348/612/247 346/581/247 559/604/247 563/617/247 562/618/247
f 790/619/248 795/620/248 349/621/248 792/622/248
f 783/607/249 792/623/249 347/614/249 345/602/249
f 793/624/250 352/625/250 796/626/250 789/627/250
f 348/612/251 351/628/251 352/625/251 793/629/251
f 560/615/252 347/614/252 350/630/252 564/631/252 565/632/252
f 351/628/253 348/612/253 562/618/253 567/633/253 566/634/253
f 795/620/254 797/635/254 353/636/254 354/637/254 349/621/254
f 792/638/255 349/621/255 350/630/255 347/614/255
f 352/625/256 357/639/256 353/636/256 797/635/256 796/626/256
f 349/621/257 354/637/257 355/640/257 350/630/257
f 564/631/258 350/630/258 355/640/258 568/641/258 569/642/258
f 356/643/259 351/628/259 566/634/259 571/644/259 570/645/259
f 351/628/260 356/643/260 357/639/260 352/625/260
f 353/636/261 358/646/261 359/647/261 354/637/261
f 354/637/262 359/647/262 360/648/262 355/640/262
f 568/641/263 355/640/263 360/648/263 572/649/263
f 361/650/264 356/643/264 570/645/264 573/651/264
f 356/643/265 361/650/265 362/652/265 357/639/265
f 357/639/266 362/652/266 358/646/266 353/636/266
f 358/646/267 363/653/267 364/654/267 359/647/267
f 359/647/268 364/654/268 365/655/268 360/648/268
f 572/649/269 360/648/269 365/655/269 574/656/269 575/657/269
f 366/658/270 361/650/270 573/651/270 577/659/270 576/660/270
f 361/650/271 366/658/271 367/661/271 362/652/271
f 362/652/272 367/661/272 363/653/272 358/646/272
f 363/653/273 368/662/273 369/663/273 364/654/273
f 364/654/274 369/663/274 370/664/274 365/655/274
f 574/656/275 365/655/275 370/664/275 578/665/275 579/666/275
f 371/667/276 366/658/276 576/660/276 581/668/276 580/669/276
f 366/658/277 371/667/277 372/670/277 367/661/277
f 367/661/278 372/670/278 368/662/278 363/653/278
f 368/662/279 373/671/279 374/672/279 369/663/279
f 369/663/280 374/672/280 375/673/280 370/664/280
f 370/664/281 375/673/281 582/674/281 578/665/281
f 376/675/282 371/667/282 580/669/282 583/676/282
f 371/667/283 376/675/283 377/677/283 372/670/283
f 372/670/284 377/677/284 373/671/284 368/662/284
f 373/671/285 378/678/285 379/679/285 374/672/285
f 374/672/286 379/679/286 380/680/286 375/673/286
f 375/673/287 380/680/287 584/681/287 585/682/287 582/674/287
f 381/683/288 376/675/288 583/676/288 587/684/288 586/685/288
f 376/675/289 381/683/289 382/686/289 377/677/289
f 377/677/290 382/686/290 378/678/290 373/671/290
f 378/678/291 383/687/291 384/688/291 379/679/291
f 379/679/292 384/688/292 385/689/292 380/680/292
f 380/680/293 385/689/293 588/690/293 589/691/293 584/681/293
f 386/692/294 381/683/294 586/685/294 591/693/294 590/694/294
f 381/683/295 386/692/295 387/695/295 382/686/295
f 382/686/296 387/695/296 383/687/296 378/678/296
f 383/687/297 388/696/297 389/697/297 384/688/297
f 384/688/298 389/697/298 390/698/298 385/689/298
f 385/689/299 390/698/299 592/699/299 588/690/299
f 391/700/300 386/692/300 590/694/300 593/701/300
f 386/692/301 391/700/301 392/702/301 387/695/301
f 387/695/302 392/702/302 388/696/302 383/687/302
f 388/696/303 393/703/303 394/704/303 389/697/303
f 389/697/304 394/704/304 395/705/304 390/698/304
f 390/698/305 395/705/305 595/706/305 594/707/305 592/699/305
f 396/708/306 391/700/306 593/701/306 597/709/306 596/710/306
f 391/700/307 396/708/307 397/711/307 392/702/307
f 392/702/308 397/711/308 393/703/308 388/696/308
f 393/703/309 398/712/309 399/713/309 394/704/309
f 394/704/310 399/713/310 400/714/310 395/705/310
f 395/705/311 400/714/311 599/715/311 598/716/311 595/706/311
f 600/717/312 601/718/312 401/719/312 396/708/312 596/710/312
f 396/708/313 401/719/313 402/720/313 397/711/313
f 397/711/314 402/720/314 398/712/314 393/703/314
f 398/721/315 403/722/315 404/723/315 399/724/315
f 399/724/316 404/723/316 405/725/316 400/726/316
f 599/727/317 400/726/317 405/725/317 602/728/317
f 603/729/318 406/730/318 401/731/318 601/732/318
f 401/731/319 406/730/319 407/733/319 402/734/319
f 402/734/320 407/733/320 403/722/320 398/721/320
f 403/722/321 408/735/321 409/736/321 404/723/321
f 404/723/322 409/736/322 410/737/322 405/725/322
f 602/728/323 405/725/323 410/737/323 604/738/323 605/739/323
f 606/740/324 411/741/324 406/730/324 603/729/324 607/742/324
f 406/730/325 411/741/325 412/743/325 407/733/325
f 407/733/326 412/743/326 408/735/326 403/722/326
f 408/735/327 413/744/327 414/745/327 409/736/327
f 409/736/328 414/745/328 415/746/328 410/737/328
f 604/738/329 410/737/329 415/746/329 609/747/329 608/748/329
f 610/749/330 611/750/330 416/751/330 411/741/330 606/740/330
f 411/741/331 416/751/331 417/752/331 412/743/331
f 412/743/332 417/752/332 413/744/332 408/735/332
f 413/744/333 418/753/333 419/754/333 414/745/333
f 414/745/334 419/754/334 420/755/334 415/746/334
f 609/747/335 415/746/335 420/755/335 612/756/335
f 613/757/336 421/758/336 416/751/336 611/750/336
f 416/751/337 421/758/337 422/759/337 417/752/337
f 417/752/338 422/759/338 418/753/338 413/744/338
f 418/753/339 423/760/339 424/761/339 419/754/339
f 419/754/340 424/761/340 425/762/340 420/755/340
f 612/756/341 420/755/341 425/762/341 615/763/341 614/764/341
f 616/765/342 426/766/342 421/758/342 613/757/342 617/767/342
f 421/758/343 426/766/343 427/768/343 422/759/343
f 422/759/344 427/768/344 423/760/344 418/753/344
f 423/760/345 428/769/345 429/770/345 424/761/345
f 424/761/346 429/770/346 430/771/346 425/762/346
f 615/763/347 425/762/347 430/771/347 619/772/347 618/773/347
f 621/774/348 431/775/348 426/766/348 616/765/348 620/776/348
f 426/766/349 431/775/349 432/777/349 427/768/349
f 427/768/350 432/777/350 428/769/350 423/760/350
f 428/769/351 433/778/351 434/779/351 429/770/351
f 429/770/352 434/779/352 435/780/352 430/771/352
f 619/772/353 430/771/353 435/780/353 622/781/353
f 436/782/354 431/775/354 621/774/354 623/783/354
f 431/775/355 436/782/355 437/784/355 432/777/355
f 432/777/356 437/784/356 433/778/356 428/769/356
f 433/778/357 438/785/357 439/786/357 434/779/357
f 434/779/358 439/786/358 440/787/358 435/780/358
f 622/781/359 435/780/359 440/787/359 625/788/359 624/789/359
f 626/790/360 441/791/360 436/782/360 623/783/360 627/792/360
f 436/782/361 441/791/361 442/793/361 437/784/361
f 437/784/362 442/793/362 438/785/362 433/778/362
f 438/785/363 443/794/363 444/795/363 439/786/363
f 439/786/364 444/795/364 445/796/364 440/787/364
f 625/788/365 440/787/365 445/796/365 629/797/365 628/798/365
f 631/799/366 446/800/366 441/791/366 626/790/366 630/801/366
f 441/791/367 446/800/367 447/802/367 442/793/367
f 442/793/368 447/802/368 443/794/368 438/785/368
f 443/794/369 448/803/369 449/804/369 444/795/369
f 444/795/370 449/804/370 450/805/370 445/796/370
f 629/797/371 445/796/371 450/805/371 632/806/371
f 451/807/372 446/800/372 631/799/372 633/808/372
f 446/800/373 451/807/373 452/809/373 447/802/373
f 447/802/374 452/809/374 448/803/374 443/794/374
f 448/803/375 453/810/375 454/811/375 449/804/375
f 449/804/376 454/811/376 455/812/376 450/805/376
f 632/806/377 450/805/377 455/812/377 635/813/377 634/814/377
f 636/815/378 456/816/378 451/807/378 633/808/378 637/817/378
f 451/807/379 456/816/379 457/818/379 452/809/379
f 452/809/380 457/818/380 453/810/380 448/803/380
f 453/810/238 458/819/238 459/820/238 454/811/238
f 454/811/381 459/820/381 460/821/381 455/812/381
f 635/813/382 455/812/382 460/821/382 639/822/382 638/823/382
f 461/824/383 456/816/383 636/815/383 640/825/383 641/826/383
f 456/816/384 461/824/384 462/827/384 457/818/384
f 457/818/237 462/827/237 458/819/237 453/810/237
f 458/819/244 463/828/244 464/829/244 459/820/244
f 459/820/385 464/829/385 465/830/385 460/821/385
f 639/822/386 460/821/386 465/830/386 642/831/386
f 466/832/387 461/824/387 641/826/387 643/833/387
f 461/824/388 466/832/388 467/834/388 462/827/388
f 462/827/236 467/834/236 463/828/236 458/819/236
f 463/828/389 468/835/389 469/836/389 464/829/389
f 464/829/390 469/836/390 470/837/390 465/830/390
f 465/830/391 470/837/391 645/838/391 644/839/391 642/831/391
f 646/840/392 471/841/392 466/832/392 643/833/392 647/842/392
f 466/832/393 471/841/393 472/843/393 467/834/393
f 467/834/394 472/843/394 468/835/394 463/828/394
f 468/835/395 473/844/395 474/845/395 469/836/395
f 469/836/396 474/845/396 475/846/396 470/837/396
f 470/837/397 475/846/397 648/847/397 645/838/397
f 476/848/398 471/841/398 646/840/398 649/849/398
f 471/841/399 476/848/399 477/850/399 472/843/399
f 472/843/400 477/850/400 473/844/400 468/835/400
f 473/844/401 478/851/401 479/852/401 474/845/401
f 474/845/402 479/852/402 480/853/402 475/846/402
f 651/854/403 648/847/403 475/846/403 480/853/403 650/855/403
f 481/856/404 476/848/404 649/849/404 653/857/404 652/858/404
f 476/848/405 481/856/405 482/859/405 477/850/405
f 477/850/406 482/859/406 478/851/406 473/844/406
f 478/851/407 483/860/407 484/861/407 479/852/407
f 479/852/408 484/861/408 485/862/408 480/853/408
f 480/853/409 485/862/409 655/863/409 654/864/409 650/855/409
f 486/865/410 481/856/410 652/858/410 657/866/410 656/867/410
f 481/856/411 486/865/411 487/868/411 482/859/411
f 482/859/412 487/868/412 483/860/412 478/851/412
f 483/860/413 488/869/413 489/870/413 484/861/413
f 484/861/414 489/870/414 490/871/414 485/862/414
f 485/862/415 490/871/415 658/872/415 655/863/415
f 491/873/416 486/865/416 656/867/416 659/874/416
f 486/865/417 491/873/417 492/875/417 487/868/417
f 487/868/418 492/875/418 488/869/418 483/860/418
f 488/869/419 493/876/419 494/877/419 489/870/419
f 489/870/420 494/877/420 495/878/420 490/871/420
f 661/879/421 658/872/421 490/871/421 495/878/421 660/880/421
f 662/881/422 496/882/422 491/873/422 659/874/422 663/883/422
f 491/873/423 496/882/423 497/884/423 492/875/423
f 492/875/424 497/884/424 493/876/424 488/869/424
f 493/876/425 498/885/425 499/886/425 494/877/425
f 494/877/426 499/886/426 500/887/426 495/878/426
f 495/878/427 500/887/427 665/888/427 664/889/427 660/880/427
f 666/890/428 501/891/428 496/882/428 662/881/428 667/892/428
f 496/882/429 501/891/429 502/893/429 497/884/429
f 497/884/430 502/893/430 498/885/430 493/876/430
f 498/885/431 503/894/431 504/895/431 499/886/431
f 499/886/432 504/895/432 505/896/432 500/887/432
f 500/887/433 505/896/433 668/897/433 665/888/433
f 669/898/434 506/899/434 501/891/434 666/890/434
f 501/891/435 506/899/435 507/900/435 502/893/435
f 502/893/436 507/900/436 503/894/436 498/885/436
f 503/894/437 508/901/437 509/902/437 504/895/437
f 504/895/438 509/902/438 510/903/438 505/896/438
f 505/896/439 510/903/439 670/904/439 671/905/439 668/897/439
f 672/906/440 511/907/440 506/899/440 669/898/440 673/908/440
f 506/899/441 511/907/441 512/909/441 507/900/441
f 507/900/442 512/909/442 508/901/442 503/894/442
f 508/901/443 513/910/443 514/911/443 509/902/443
f 509/902/444 514/911/444 515/912/444 510/903/444
f 670/904/445 510/903/445 515/912/445 675/913/445 674/914/445
f 676/915/446 516/916/446 511/907/446 672/906/446 677/917/446
f 511/907/447 516/916/447 517/918/447 512/909/447
f 512/909/448 517/918/448 513/910/448 508/901/448
f 513/910/449 289/487/449 290/490/449 514/911/449
f 514/911/450 290/490/450 291/492/450 515/912/450
f 675/913/451 515/912/451 291/492/451 520/494/451
f 523/499/452 292/498/452 516/916/452 676/915/452
f 516/916/453 292/498/453 293/502/453 517/918/453
f 517/918/454 293/502/454 289/487/454 513/910/454
f 557/919/17 554/920/17 555/921/17 558/922/17 561/923/17 563/924/17 559/925/17 556/926/17
f 553/927/18 551/928/18 550/929/18 554/920/18 557/919/18 552/930/18
f 551/928/19 553/927/19 549/931/19 546/932/19 547/933/19 545/934/19 544/935/19 548/936/19
f 543/937/20 541/938/20 540/939/20 545/934/20 547/933/20 542/940/20
f 543/937/21 539/941/21 536/942/21 537/943/21 535/944/21 534/945/21 538/946/21 541/938/21
f 531/947/22 530/948/22 535/944/22 537/943/22 532/949/22 533/950/22
f 533/950/23 529/951/23 526/952/23 527/953/23 525/954/23 524/955/23 528/956/23 531/947/23
f 519/957/24 518/958/24 525/954/24 527/953/24 521/959/24 522/960/24
f 674/961/25 675/962/25 520/963/25 519/957/25 522/960/25 523/964/25 676/965/25 677/966/25
f 671/967/26 670/968/26 674/961/26 677/966/26 672/969/26 673/970/26
f 664/971/27 665/972/27 668/973/27 671/967/27 673/970/27 669/974/27 666/975/27 667/976/27
f 661/977/28 660/978/28 664/971/28 667/976/28 662/979/28 663/980/28
f 654/981/29 655/982/29 658/983/29 661/977/29 663/980/29 659/984/29 656/985/29 657/986/29
f 651/987/30 650/988/30 654/981/30 657/986/30 652/989/30 653/990/30
f 644/991/31 645/992/31 648/993/31 651/987/31 653/990/31 649/994/31 646/995/31 647/996/31
f 638/997/32 639/998/32 642/999/32 644/991/32 647/996/32 643/1000/32 641/1001/32 640/1002/32
f 634/1003/1 635/1004/1 638/997/1 640/1002/1 636/1005/1 637/1006/1
f 628/1007/2 629/1008/2 632/1009/2 634/1003/2 637/1006/2 633/1010/2 631/1011/2 630/1012/2
f 624/1013/3 625/1014/3 628/1007/3 630/1012/3 626/1015/3 627/1016/3
f 618/1017/4 619/1018/4 622/1019/4 624/1013/4 627/1016/4 623/1020/4 621/1021/4 620/1022/4
f 617/1023/5 614/1024/5 615/1025/5 618/1017/5 620/1022/5 616/1026/5
f 610/1027/6 608/1028/6 609/1029/6 612/1030/6 614/1024/6 617/1023/6 613/1031/6 611/1032/6
f 607/1033/7 605/1034/7 604/1035/7 608/1028/7 610/1027/7 606/1036/7
f 600/1037/8 598/1038/8 599/1039/8 602/1040/8 605/1034/8 607/1033/8 603/1041/8 601/1042/8
f 597/1043/9 594/1044/9 595/1045/9 598/1038/9 600/1037/9 596/1046/9
f 591/1047/10 589/1048/10 588/1049/10 592/1050/10 594/1044/10 597/1043/10 593/1051/10 590/1052/10
f 587/1053/11 585/1054/11 584/1055/11 589/1048/11 591/1047/11 586/1056/11
f 581/1057/12 579/1058/12 578/1059/12 582/1060/12 585/1054/12 587/1053/12 583/1061/12 580/1062/12
f 577/1063/13 575/1064/13 574/1065/13 579/1058/13 581/1057/13 576/1066/13
f 571/1067/14 569/1068/14 568/1069/14 572/1070/14 575/1064/14 577/1063/14 573/1071/14 570/1072/14
f 567/1073/15 565/1074/15 564/1075/15 569/1068/15 571/1067/15 566/1076/15
f 563/1077/16 561/1078/16 560/1079/16 565/1074/16 567/1073/16 562/1080/16
f 742/238/455 743/1081/455 744/1082/455
f 745/1083/456 746/1084/456 747/480/456
f 748/235/457 749/1085/457 750/1086/457
f 751/1087/458 752/1088/458 753/481/458
f 754/237/459 755/1089/459 756/1090/459
f 757/1091/460 758/464/460 759/1092/460
f 760/236/461 761/1093/461 762/1094/461
f 763/1095/462 764/1096/462 765/485/462
f 766/572/463 767/1097/463 768/579/463
f 769/571/464 770/600/464 771/593/464 772/472/464
f 777/594/171 778/599/171 779/611/171 780/589/171
f 781/595/465 782/592/465 783/607/465
f 784/608/466 785/598/466 786/582/466
f 787/590/467 788/610/467 789/627/467 790/619/467
f 795/620/468 796/1098/468 797/635/468
f 679/233/469 680/1099/469 681/1100/469 678/1101/469
f 683/234/470 679/233/470 678/1102/470 682/1103/470
f 685/242/471 683/234/471 682/1104/471 684/1105/471
f 687/202/472 685/242/472 684/1106/472 686/1107/472
f 689/203/473 687/202/473 686/1108/473 688/1109/473
f 691/241/474 689/203/474 688/1110/474 690/1111/474
f 693/244/475 691/241/475 690/1112/475 692/1113/475
f 695/246/476 693/244/476 692/1114/476 694/1115/476
f 697/248/477 695/246/477 694/1116/477 696/1117/477
f 699/250/478 697/248/478 696/1118/478 698/1119/478
f 701/252/479 699/250/479 698/1120/479 700/1121/479
f 703/254/480 701/252/480 700/1122/480 702/1123/480
f 705/256/481 703/254/481 702/1124/481 704/1125/481
f 707/258/482 705/256/482 704/1126/482 706/1127/482
f 709/260/483 707/258/483 706/1128/483 708/1129/483
f 711/294/484 709/260/484 708/1130/484 710/1131/484
f 713/298/485 711/294/485 710/1132/485 712/1133/485
f 715/239/486 713/299/486 712/1134/486 714/1135/486
f 717/240/487 715/239/487 714/1136/487 716/1137/487
f 719/243/488 717/240/488 716/1138/488 718/1139/488
f 721/245/489 719/243/489 718/1140/489 720/1141/489
f 723/247/490 721/245/490 720/1142/490 722/1143/490
f 725/249/491 723/247/491 722/1144/491 724/1145/491
f 727/251/492 725/249/492 724/1146/492 726/1147/492
f 729/253/493 727/251/493 726/1148/493 728/1149/493
f 731/255/494 729/253/494 728/1150/494 730/1151/494
f 733/257/495 731/255/495 730/1152/495 732/1153/495
f 735/259/496 733/257/496 732/1154/496 734/1155/496
f 737/293/497 735/259/497 734/1156/497 736/1157/497
f 739/297/498 737/293/498 736/1158/498 738/1159/498
f 741/295/499 739/297/499 738/1160/499 740/1161/499
f 680/296/500 741/295/500 740/1162/500 681/1163/500
f 748/235/501 742/238/501 744/1082/501 749/1085/501
f 743/1164/502 745/1083/502 747/480/502 744/479/502
f 746/1084/503 751/1087/503 753/481/503 747/480/503
f 752/484/504 750/483/504 749/482/504 753/481/504
f 760/236/505 748/235/505 750/1086/505 761/1093/505
f 751/1165/506 763/1095/506 765/485/506 752/484/506
f 764/468/507 762/467/507 761/486/507 765/485/507
f 754/237/508 760/236/508 762/467/508 755/470/508
f 763/475/509 757/478/509 759/469/509 764/468/509
f 758/464/510 756/463/510 755/470/510 759/469/510
f 742/238/511 754/237/511 756/1090/511 743/1081/511
f 757/1091/512 746/1166/512 745/465/512 758/464/512
f 773/596/513 781/595/513 783/607/513 774/606/513
f 786/582/514 793/613/514 794/609/514 784/608/514
f 790/619/515 792/622/515 791/591/515 787/590/515
f 788/610/516 794/609/516 793/624/516 789/627/516
f 789/627/517 796/626/517 795/620/517 790/619/517
f 766/572/518 769/571/518 772/472/518 767/471/518
f 776/583/519 786/582/519 785/598/519 775/597/519
f 780/589/520 782/592/520 781/595/520 777/594/520
f 778/599/521 785/598/521 784/608/521 779/611/521
f 779/611/522 788/610/522 787/590/522 780/589/522
f 782/592/523 791/591/523 792/623/523 783/607/523
f 771/593/524 773/596/524 774/473/524 772/472/524
f 769/571/525 776/570/525 775/597/525 770/600/525
f 770/600/526 778/599/526 777/594/526 771/593/526
f 161/226/527 162/225/527 680/1099/527 679/233/527
