# Blender 3.6.2
# www.blender.org
mtllib newdoor.mtl
o Cube
v 1.014333 0.034528 -0.696158
v 1.014333 -0.034528 -0.696158
v 1.014333 0.034528 0.696158
v 1.014333 -0.034528 0.696158
v -1.014333 0.034528 -0.696158
v -1.014333 -0.034528 -0.696158
v -1.014333 0.034528 0.696158
v -1.014333 -0.034528 0.696158
v -0.665722 0.034528 -0.458665
v -0.273024 0.034528 -0.458665
v -0.665722 0.034528 0.458665
v -0.273024 0.034528 0.458665
v -0.665722 -0.034528 -0.458665
v -0.273024 -0.034528 -0.458665
v -0.665722 -0.034528 0.458665
v -0.273024 -0.034528 0.458665
v -0.005561 -0.043850 -0.267636
v -0.005561 0.043850 -0.267636
v -0.005561 -0.043850 -0.527502
v -0.005561 0.043850 -0.527502
v 0.674144 -0.043850 -0.267636
v 0.674144 0.043850 -0.267636
v 0.674144 -0.043850 -0.527502
v 0.674144 0.043850 -0.527502
vn -0.0000 1.0000 -0.0000
vn -0.0000 -0.0000 1.0000
vn -1.0000 -0.0000 -0.0000
vn -0.0000 -1.0000 -0.0000
vn 1.0000 -0.0000 -0.0000
vn -0.0000 -0.0000 -1.0000
vt 0.832039 0.542643
vt 0.875000 0.500000
vt 0.875000 0.750000
vt 0.832039 0.707357
vt 0.625000 0.750000
vt 0.625000 0.500000
vt 0.783646 0.542643
vt 0.783646 0.707357
vt 0.375000 0.750000
vt 0.625000 1.000000
vt 0.375000 1.000000
vt 0.375000 0.000000
vt 0.625000 0.000000
vt 0.625000 0.250000
vt 0.375000 0.250000
vt 0.167961 0.542644
vt 0.125000 0.500000
vt 0.375000 0.500000
vt 0.125000 0.750000
vt 0.167961 0.707357
vt 0.216354 0.707357
vt 0.216354 0.542643
vt 0.492795 0.000000
vt 0.492795 0.250000
vt 0.507205 0.250000
vt 0.507205 0.000000
vt 0.492795 0.500000
vt 0.507205 0.500000
vt 0.492795 0.750000
vt 0.507205 0.750000
vt 0.492795 1.000000
vt 0.507205 1.000000
s 0
usemtl Material
f 9/1/1 5/2/1 7/3/1 11/4/1
f 11/4/1 7/3/1 3/5/1 1/6/1 5/2/1 9/1/1 10/7/1 12/8/1
f 4/9/2 3/5/2 7/10/2 8/11/2
f 8/12/3 7/13/3 5/14/3 6/15/3
f 13/16/4 6/17/4 2/18/4 4/9/4 8/19/4 15/20/4 16/21/4 14/22/4
f 15/20/4 8/19/4 6/17/4 13/16/4
f 2/18/5 1/6/5 3/5/5 4/9/5
f 6/15/6 5/14/6 1/6/6 2/18/6
f 12/23/3 10/24/3 14/25/3 16/26/3
f 14/25/2 10/24/2 9/27/2 13/28/2
f 13/28/5 9/27/5 11/29/5 15/30/5
f 11/29/6 12/31/6 16/32/6 15/30/6
f 17/12/3 18/13/3 20/14/3 19/15/3
f 19/15/6 20/14/6 24/6/6 23/18/6
f 23/18/5 24/6/5 22/5/5 21/9/5
f 21/9/2 22/5/2 18/10/2 17/11/2
f 19/17/4 23/18/4 21/9/4 17/19/4
f 24/6/1 20/2/1 18/3/1 22/5/1
