# Exported from 3D Builder
mtllib C:\Users\dylan\Downloads\sack.mtl

o Object.1
v 4.868999 -1.498001 -7.930999 188 188 188
v 5.819000 -0.266003 -7.421000 188 188 188
v 6.668999 -0.266003 -5.322999 188 188 188
v 4.800999 -0.458000 2.493001 188 188 188
v 5.879002 -0.266003 0.195001 188 188 188
v 5.743000 0.071999 0.195001 188 188 188
v 5.216999 0.895998 2.713000 188 188 188
v 5.879002 0.410000 0.195001 188 188 188
v 4.800999 1.855999 2.493001 188 188 188
v 4.443001 2.763998 -2.590999 188 188 188
v 4.553001 2.585999 -5.132999 188 188 188
v 4.359001 2.585999 -7.622999 188 188 188
v 2.785007 3.125999 -7.692999 188 188 188
v 2.785007 3.806000 -5.132999 188 188 188
v 0.010998 4.035999 -5.132999 188 188 188
v -2.764996 3.125999 -7.692999 188 188 188
v -4.458996 2.585999 -7.686999 188 188 188
v -5.458992 1.370001 -7.566999 188 188 188
v -6.300999 1.370001 -5.132999 188 188 188
v -4.424999 2.763998 -2.590999 188 188 188
v -2.701000 4.065998 -2.590999 188 188 188
v -4.134995 2.585999 -0.046999 188 188 188
v -3.582996 2.687998 2.493001 188 188 188
v -2.384998 3.624001 2.493001 188 188 188
v -3.711002 2.579998 6.149001 188 188 188
v -4.601002 2.046001 5.267000 188 188 188
v 0.010998 1.515999 7.263000 188 188 188
v -2.595001 0.840002 7.403002 188 188 188
v -3.730995 -0.084000 5.934999 188 188 188
v 2.295006 -0.302002 5.727001 188 188 188
v 3.746998 -0.084000 5.934999 188 188 188
v 5.084999 0.383999 6.964999 188 188 188
v 2.403000 0.383999 6.673001 188 188 188
v 2.615002 0.840002 7.337000 188 188 188
v 5.715000 0.840002 7.585001 188 188 188
v 2.615002 1.515999 7.337000 188 188 188
v 5.125000 1.966000 7.097001 188 188 188
v 2.403000 1.966000 6.673001 188 188 188
v 2.403000 3.025999 4.848999 188 188 188
v 3.931007 2.579998 6.306999 188 188 188
v 4.618999 2.046001 5.033001 188 188 188
v 3.510998 2.741999 4.848999 188 188 188
v 0.010998 3.806000 -0.046999 188 188 188
v 2.403000 3.624001 2.493001 188 188 188
v 0.010998 4.316000 -2.590999 188 188 188
v 2.718998 4.065998 -2.590999 188 188 188
v -2.384998 2.675999 6.087000 188 188 188
v 0.010998 2.675999 6.087000 188 188 188
v -2.384998 1.966000 6.743001 188 188 188
v 2.403000 2.541998 6.087000 188 188 188
v 0.010998 1.966000 6.597000 188 188 188
v 4.842999 1.377998 5.065001 188 188 188
v 5.216999 0.219997 2.713000 188 188 188
v 4.842999 0.701998 5.065001 188 188 188
v 5.715000 1.515999 7.585001 188 188 188
v 5.783001 1.176001 7.649001 188 188 188
v 4.851002 1.042000 5.151001 188 188 188
v 2.674999 1.176001 7.431002 188 188 188
v 4.407001 0.167999 4.723001 188 188 188
v 3.351006 -0.636002 4.723001 188 188 188
v 3.603008 -1.574001 2.493001 188 188 188
v 2.403000 -2.340000 2.493001 188 188 188
v 0.010998 -2.506001 2.493001 188 188 188
v 0.010998 -3.798000 -0.677000 188 188 188
v 2.541000 -3.658001 -0.677000 188 188 188
v 2.839001 -4.076000 -2.968999 188 188 188
v 0.010998 -4.316002 -2.968999 188 188 188
v 4.553001 -2.684002 -5.344999 188 188 188
v 2.785007 -3.900002 -5.344999 188 188 188
v 4.365002 -2.482002 -7.329000 188 188 188
v 3.103001 -2.718002 -8.164999 188 188 188
v -3.083000 -2.718002 -8.164999 188 188 188
v 0.010998 -2.726002 -8.370999 188 188 188
v -3.929001 0.085999 -8.221000 188 188 188
v 3.947006 0.085999 -8.221000 188 188 188
v 3.977005 0.531998 -8.341000 188 188 188
v 5.855000 0.071999 -7.407000 188 188 188
v 5.819000 0.410000 -7.434999 188 188 188
v 6.668999 0.410000 -5.322999 188 188 188
v 6.707001 0.437998 -2.812999 188 188 188
v 6.319000 1.370001 -5.132999 188 188 188
v 6.654999 0.071999 -5.152999 188 188 188
v 5.485001 1.370001 -7.544999 188 188 188
v 4.859001 1.579998 -8.056999 188 188 188
v 4.097000 2.230000 -8.148999 188 188 188
v 3.419003 1.987999 -8.370999 188 188 188
v 3.101002 2.612001 -8.247000 188 188 188
v -3.398998 1.987999 -8.370999 188 188 188
v -4.202999 2.235998 -8.171000 188 188 188
v -4.827000 1.581999 -8.077000 188 188 188
v -3.959000 0.531998 -8.341000 188 188 188
v -5.258999 0.437998 -7.967000 188 188 188
v -6.648994 0.410000 -5.322999 188 188 188
v -5.809002 0.410000 -7.458999 188 188 188
v -6.637001 0.071999 -5.289000 188 188 188
v -6.688999 0.437998 -2.812999 188 188 188
v -5.863003 0.410000 0.195001 188 188 188
v -5.837002 0.071999 0.195001 188 188 188
v -5.013000 0.558001 2.913001 188 188 188
v -5.655003 1.964001 8.189002 188 188 188
v -2.655003 1.176001 7.497000 188 188 188
v -5.865002 1.625999 8.371001 188 188 188
v -5.655003 1.288000 8.189002 188 188 188
v -5.003002 0.701998 5.477000 188 188 188
v -5.067001 0.835999 7.625001 188 188 188
v -4.389000 0.167999 4.955001 188 188 188
v -4.783001 -0.458000 2.727001 188 188 188
v -6.153000 -1.312000 -2.860999 188 188 188
v -2.764996 -3.228001 -7.524999 188 188 188
v 0.010998 -4.272003 -5.344999 188 188 188
v 0.010998 -3.762001 -7.508999 188 188 188
v -2.764996 -3.900002 -5.344999 188 188 188
v -4.813000 -2.752003 -3.002999 188 188 188
v -4.458996 -2.482002 -7.390999 188 188 188
v -4.823002 -1.512001 -7.962999 188 188 188
v -4.188999 -2.110001 -8.025000 188 188 188
v -6.043003 -1.464001 -5.344999 188 188 188
v -5.438999 -1.260002 -7.416999 188 188 188
v -5.811001 -0.266003 -7.416999 188 188 188
v -6.648994 -0.266003 -5.322999 188 188 188
v -4.532997 -2.684002 -5.344999 188 188 188
v -6.688999 -0.286003 -2.812999 188 188 188
v -5.863003 -0.266003 0.195001 188 188 188
v -6.743000 0.075996 -2.862999 188 188 188
v -2.819000 -4.076000 -2.968999 188 188 188
v -4.302998 -2.570004 -0.459000 188 188 188
v -5.587002 -1.224003 -0.046999 188 188 188
v -2.384998 -2.340000 2.493001 188 188 188
v -3.331001 -0.636002 4.723001 188 188 188
v -2.272995 -0.904003 4.723001 188 188 188
v 0.010998 -1.054001 4.723001 188 188 188
v 2.295006 -0.904003 4.723001 188 188 188
v -2.524998 -3.658001 -0.677000 188 188 188
v -3.582996 -1.574001 2.493001 188 188 188
v -5.201000 0.219997 2.949001 188 188 188
v -5.003002 1.377998 5.477000 188 188 188
v -5.033001 1.042000 5.395000 188 188 188
v -5.201000 0.895998 2.949001 188 188 188
v -6.153000 1.463999 -2.590999 188 188 188
v -5.269001 -0.286003 -7.924999 188 188 188
v 5.271000 -0.286003 -7.930999 188 188 188
v -3.959000 -0.356003 -8.341000 188 188 188
v -3.398998 -2.100002 -8.370999 188 188 188
v 0.010998 -3.332001 -8.143000 188 188 188
v 2.785007 -3.228001 -7.524999 188 188 188
v 0.010998 -0.174004 5.727001 188 188 188
v -2.272995 -0.174004 5.727001 188 188 188
v 0.010998 0.383999 6.597000 188 188 188
v 0.010998 0.840002 7.263000 188 188 188
v 0.010998 1.176001 7.125000 188 188 188
v -2.595001 1.515999 7.403002 188 188 188
v -5.013000 2.418001 7.523000 188 188 188
v -3.492996 2.741999 4.848999 188 188 188
v -2.384998 3.025999 4.848999 188 188 188
v -4.783001 1.855999 2.727001 188 188 188
v -5.749001 1.370001 -0.046999 188 188 188
v -3.081001 2.612001 -8.247000 188 188 188
v 0.010998 2.317999 -8.370999 188 188 188
v -2.764996 3.806000 -5.132999 188 188 188
v 0.010998 2.903999 -8.148999 188 188 188
v 0.010998 3.384003 -7.591000 188 188 188
v 6.171001 1.463999 -2.590999 188 188 188
v 5.766998 1.370001 -0.046999 188 188 188
v 4.153000 2.585999 -0.046999 188 188 188
v 3.603008 2.687998 2.493001 188 188 188
v 5.591000 -1.224003 -0.046999 188 188 188
v 4.323002 -2.570004 -0.459000 188 188 188
v 6.743000 0.075996 -2.862999 188 188 188
v 6.171001 -1.312000 -2.860999 188 188 188
v 4.833000 -2.752003 -3.002999 188 188 188
v 6.707001 -0.286003 -2.812999 188 188 188
v 6.063000 -1.464001 -5.344999 188 188 188
v 5.266998 0.437998 -7.947000 188 188 188
v 3.977005 -0.356003 -8.341000 188 188 188
v 3.419003 -2.100002 -8.370999 188 188 188
v 5.465000 -1.262001 -7.386999 188 188 188
v 4.091000 -2.118000 -8.025000 188 188 188

v 4.868999 -1.498001 -7.930999 188 188 188
v 4.091000 -2.118000 -8.025000 188 188 188
v 4.868999 -1.498001 -7.930999 188 188 188
v 3.419003 -2.100002 -8.370999 188 188 188
v 4.868999 -1.498001 -7.930999 188 188 188
v 3.977005 -0.356003 -8.341000 188 188 188
v 5.271000 -0.286003 -7.930999 188 188 188
v 4.868999 -1.498001 -7.930999 188 188 188
v 5.271000 -0.286003 -7.930999 188 188 188
v 5.819000 -0.266003 -7.421000 188 188 188
v 5.855000 0.071999 -7.407000 188 188 188
v 5.819000 -0.266003 -7.421000 188 188 188
v 5.819000 -0.266003 -7.421000 188 188 188
v 6.668999 -0.266003 -5.322999 188 188 188
v 6.063000 -1.464001 -5.344999 188 188 188
v 6.668999 -0.266003 -5.322999 188 188 188
v 6.668999 -0.266003 -5.322999 188 188 188
v 6.171001 -1.312000 -2.860999 188 188 188
v 6.171001 -1.312000 -2.860999 188 188 188
v 6.707001 -0.286003 -2.812999 188 188 188
v 6.707001 -0.286003 -2.812999 188 188 188
v 5.591000 -1.224003 -0.046999 188 188 188
v 5.591000 -1.224003 -0.046999 188 188 188
v 5.879002 -0.266003 0.195001 188 188 188
v 4.800999 -0.458000 2.493001 188 188 188
v 5.879002 -0.266003 0.195001 188 188 188
v 5.216999 0.219997 2.713000 188 188 188
v 5.879002 -0.266003 0.195001 188 188 188
v 5.743000 0.071999 0.195001 188 188 188
v 5.879002 -0.266003 0.195001 188 188 188
v 6.743000 0.075996 -2.862999 188 188 188
v 5.743000 0.071999 0.195001 188 188 188
v 5.743000 0.071999 0.195001 188 188 188
v 5.879002 0.410000 0.195001 188 188 188
v 5.216999 0.895998 2.713000 188 188 188
v 5.879002 0.410000 0.195001 188 188 188
v 4.800999 1.855999 2.493001 188 188 188
v 5.879002 0.410000 0.195001 188 188 188
v 4.800999 1.855999 2.493001 188 188 188
v 5.766998 1.370001 -0.046999 188 188 188
v 4.153000 2.585999 -0.046999 188 188 188
v 5.766998 1.370001 -0.046999 188 188 188
v 4.153000 2.585999 -0.046999 188 188 188
v 4.443001 2.763998 -2.590999 188 188 188
v 2.718998 4.065998 -2.590999 188 188 188
v 4.443001 2.763998 -2.590999 188 188 188
v 4.443001 2.763998 -2.590999 188 188 188
v 2.785007 3.806000 -5.132999 188 188 188
v 4.553001 2.585999 -5.132999 188 188 188
v 2.785007 3.806000 -5.132999 188 188 188
v 2.785007 3.806000 -5.132999 188 188 188
v 4.359001 2.585999 -7.622999 188 188 188
v 2.785007 3.125999 -7.692999 188 188 188
v 2.785007 3.806000 -5.132999 188 188 188
v 2.785007 3.806000 -5.132999 188 188 188
v 0.010998 3.384003 -7.591000 188 188 188
v 0.010998 4.035999 -5.132999 188 188 188
v 0.010998 3.384003 -7.591000 188 188 188
v -2.764996 3.806000 -5.132999 188 188 188
v 0.010998 3.384003 -7.591000 188 188 188
v -2.764996 3.125999 -7.692999 188 188 188
v 0.010998 3.384003 -7.591000 188 188 188
v 0.010998 2.903999 -8.148999 188 188 188
v -2.764996 3.125999 -7.692999 188 188 188
v -2.764996 3.125999 -7.692999 188 188 188
v -3.081001 2.612001 -8.247000 188 188 188
v -4.458996 2.585999 -7.686999 188 188 188
v -3.081001 2.612001 -8.247000 188 188 188
v -4.458996 2.585999 -7.686999 188 188 188
v -4.202999 2.235998 -8.171000 188 188 188
v -4.458996 2.585999 -7.686999 188 188 188
v -5.458992 1.370001 -7.566999 188 188 188
v -4.458996 2.585999 -7.686999 188 188 188
v -6.300999 1.370001 -5.132999 188 188 188
v -4.458996 2.585999 -7.686999 188 188 188
v -4.424999 2.763998 -2.590999 188 188 188
v -2.764996 3.806000 -5.132999 188 188 188
v -2.764996 3.806000 -5.132999 188 188 188
v -4.424999 2.763998 -2.590999 188 188 188
v -4.424999 2.763998 -2.590999 188 188 188
v -2.701000 4.065998 -2.590999 188 188 188
v -2.701000 4.065998 -2.590999 188 188 188
v -4.134995 2.585999 -0.046999 188 188 188
v -4.134995 2.585999 -0.046999 188 188 188
v -2.384998 3.624001 2.493001 188 188 188
v -2.384998 3.624001 2.493001 188 188 188
v -3.582996 2.687998 2.493001 188 188 188
v -3.582996 2.687998 2.493001 188 188 188
v -3.492996 2.741999 4.848999 188 188 188
v -3.492996 2.741999 4.848999 188 188 188
v -4.601002 2.046001 5.267000 188 188 188
v -3.711002 2.579998 6.149001 188 188 188
v -4.601002 2.046001 5.267000 188 188 188
v -3.711002 2.579998 6.149001 188 188 188
v -5.013000 2.418001 7.523000 188 188 188
v -5.013000 2.418001 7.523000 188 188 188
v -2.384998 1.966000 6.743001 188 188 188
v -2.384998 1.966000 6.743001 188 188 188
v -2.595001 1.515999 7.403002 188 188 188
v 0.010998 1.515999 7.263000 188 188 188
v -2.595001 1.515999 7.403002 188 188 188
v -2.595001 1.515999 7.403002 188 188 188
v 0.010998 1.176001 7.125000 188 188 188
v 0.010998 1.176001 7.125000 188 188 188
v -2.655003 1.176001 7.497000 188 188 188
v 0.010998 1.176001 7.125000 188 188 188
v -2.595001 0.840002 7.403002 188 188 188
v 0.010998 0.840002 7.263000 188 188 188
v -2.595001 0.840002 7.403002 188 188 188
v 0.010998 0.383999 6.597000 188 188 188
v -2.595001 0.840002 7.403002 188 188 188
v -5.067001 0.835999 7.625001 188 188 188
v 0.010998 0.383999 6.597000 188 188 188
v -3.730995 -0.084000 5.934999 188 188 188
v 0.010998 0.383999 6.597000 188 188 188
v -2.272995 -0.174004 5.727001 188 188 188
v 0.010998 0.383999 6.597000 188 188 188
v 0.010998 0.383999 6.597000 188 188 188
v 0.010998 -0.174004 5.727001 188 188 188
v 0.010998 0.383999 6.597000 188 188 188
v 2.295006 -0.302002 5.727001 188 188 188
v 2.403000 0.383999 6.673001 188 188 188
v 2.295006 -0.302002 5.727001 188 188 188
v 3.746998 -0.084000 5.934999 188 188 188
v 2.403000 0.383999 6.673001 188 188 188
v 2.403000 0.383999 6.673001 188 188 188
v 5.084999 0.383999 6.964999 188 188 188
v 0.010998 0.840002 7.263000 188 188 188
v 2.403000 0.383999 6.673001 188 188 188
v 2.615002 0.840002 7.337000 188 188 188
v 5.084999 0.383999 6.964999 188 188 188
v 2.615002 0.840002 7.337000 188 188 188
v 2.615002 0.840002 7.337000 188 188 188
v 5.715000 0.840002 7.585001 188 188 188
v 2.615002 0.840002 7.337000 188 188 188
v 2.674999 1.176001 7.431002 188 188 188
v 0.010998 1.176001 7.125000 188 188 188
v 0.010998 1.176001 7.125000 188 188 188
v 2.674999 1.176001 7.431002 188 188 188
v 2.615002 1.515999 7.337000 188 188 188
v 2.674999 1.176001 7.431002 188 188 188
v 2.615002 1.515999 7.337000 188 188 188
v 5.715000 1.515999 7.585001 188 188 188
v 2.615002 1.515999 7.337000 188 188 188
v 5.125000 1.966000 7.097001 188 188 188
v 2.403000 1.966000 6.673001 188 188 188
v 5.125000 1.966000 7.097001 188 188 188
v 2.403000 1.966000 6.673001 188 188 188
v 3.931007 2.579998 6.306999 188 188 188
v 2.403000 2.541998 6.087000 188 188 188
v 3.931007 2.579998 6.306999 188 188 188
v 2.403000 3.025999 4.848999 188 188 188
v 3.931007 2.579998 6.306999 188 188 188
v 3.510998 2.741999 4.848999 188 188 188
v 3.931007 2.579998 6.306999 188 188 188
v 3.510998 2.741999 4.848999 188 188 188
v 4.618999 2.046001 5.033001 188 188 188
v 4.618999 2.046001 5.033001 188 188 188
v 4.800999 1.855999 2.493001 188 188 188
v 3.603008 2.687998 2.493001 188 188 188
v 3.603008 2.687998 2.493001 188 188 188
v 3.510998 2.741999 4.848999 188 188 188
v 3.603008 2.687998 2.493001 188 188 188
v 4.153000 2.585999 -0.046999 188 188 188
v 2.403000 3.624001 2.493001 188 188 188
v 2.403000 3.624001 2.493001 188 188 188
v 2.403000 3.025999 4.848999 188 188 188
v 3.510998 2.741999 4.848999 188 188 188
v 2.403000 3.025999 4.848999 188 188 188
v 2.403000 3.624001 2.493001 188 188 188
v -2.384998 3.624001 2.493001 188 188 188
v 0.010998 2.675999 6.087000 188 188 188
v 2.403000 3.624001 2.493001 188 188 188
v -2.384998 3.624001 2.493001 188 188 188
v 2.403000 3.624001 2.493001 188 188 188
v 2.403000 3.624001 2.493001 188 188 188
v 2.718998 4.065998 -2.590999 188 188 188
v 0.010998 3.806000 -0.046999 188 188 188
v 2.718998 4.065998 -2.590999 188 188 188
v 0.010998 3.806000 -0.046999 188 188 188
v -2.701000 4.065998 -2.590999 188 188 188
v 0.010998 3.806000 -0.046999 188 188 188
v 0.010998 4.316000 -2.590999 188 188 188
v 0.010998 4.035999 -5.132999 188 188 188
v -2.701000 4.065998 -2.590999 188 188 188
v 0.010998 4.316000 -2.590999 188 188 188
v 0.010998 4.316000 -2.590999 188 188 188
v 2.718998 4.065998 -2.590999 188 188 188
v 0.010998 4.035999 -5.132999 188 188 188
v -2.384998 3.624001 2.493001 188 188 188
v 0.010998 2.675999 6.087000 188 188 188
v 0.010998 2.675999 6.087000 188 188 188
v -2.384998 3.025999 4.848999 188 188 188
v -2.384998 2.675999 6.087000 188 188 188
v 0.010998 2.675999 6.087000 188 188 188
v 0.010998 2.675999 6.087000 188 188 188
v 0.010998 1.966000 6.597000 188 188 188
v 2.403000 2.541998 6.087000 188 188 188
v -2.384998 2.675999 6.087000 188 188 188
v -2.384998 1.966000 6.743001 188 188 188
v 0.010998 1.966000 6.597000 188 188 188
v -3.711002 2.579998 6.149001 188 188 188
v -2.384998 2.675999 6.087000 188 188 188
v -2.384998 3.025999 4.848999 188 188 188
v 0.010998 2.675999 6.087000 188 188 188
v 2.403000 2.541998 6.087000 188 188 188
v 2.403000 3.025999 4.848999 188 188 188
v 2.403000 2.541998 6.087000 188 188 188
v 0.010998 1.966000 6.597000 188 188 188
v 2.403000 1.966000 6.673001 188 188 188
v 2.403000 1.966000 6.673001 188 188 188
v 0.010998 1.966000 6.597000 188 188 188
v 0.010998 1.515999 7.263000 188 188 188
v 5.125000 1.966000 7.097001 188 188 188
v 4.618999 2.046001 5.033001 188 188 188
v 3.931007 2.579998 6.306999 188 188 188
v 5.125000 1.966000 7.097001 188 188 188
v 4.618999 2.046001 5.033001 188 188 188
v 4.842999 1.377998 5.065001 188 188 188
v 5.216999 0.895998 2.713000 188 188 188
v 4.618999 2.046001 5.033001 188 188 188
v 5.216999 0.895998 2.713000 188 188 188
v 4.842999 1.377998 5.065001 188 188 188
v 5.216999 0.219997 2.713000 188 188 188
v 5.216999 0.219997 2.713000 188 188 188
v 4.842999 1.377998 5.065001 188 188 188
v 5.216999 0.219997 2.713000 188 188 188
v 4.851002 1.042000 5.151001 188 188 188
v 5.216999 0.219997 2.713000 188 188 188
v 4.842999 0.701998 5.065001 188 188 188
v 4.842999 0.701998 5.065001 188 188 188
v 5.084999 0.383999 6.964999 188 188 188
v 4.407001 0.167999 4.723001 188 188 188
v 5.715000 0.840002 7.585001 188 188 188
v 4.842999 0.701998 5.065001 188 188 188
v 4.851002 1.042000 5.151001 188 188 188
v 5.715000 0.840002 7.585001 188 188 188
v 4.851002 1.042000 5.151001 188 188 188
v 5.715000 1.515999 7.585001 188 188 188
v 5.783001 1.176001 7.649001 188 188 188
v 4.851002 1.042000 5.151001 188 188 188
v 4.851002 1.042000 5.151001 188 188 188
v 4.842999 1.377998 5.065001 188 188 188
v 5.715000 1.515999 7.585001 188 188 188
v 0.010998 1.515999 7.263000 188 188 188
v 2.615002 1.515999 7.337000 188 188 188
v 2.403000 1.966000 6.673001 188 188 188
v 5.125000 1.966000 7.097001 188 188 188
v 5.715000 1.515999 7.585001 188 188 188
v 4.842999 1.377998 5.065001 188 188 188
v 5.715000 1.515999 7.585001 188 188 188
v 2.674999 1.176001 7.431002 188 188 188
v 5.783001 1.176001 7.649001 188 188 188
v 5.783001 1.176001 7.649001 188 188 188
v 2.674999 1.176001 7.431002 188 188 188
v 5.715000 0.840002 7.585001 188 188 188
v 5.084999 0.383999 6.964999 188 188 188
v 4.842999 0.701998 5.065001 188 188 188
v 5.715000 0.840002 7.585001 188 188 188
v 5.084999 0.383999 6.964999 188 188 188
v 3.746998 -0.084000 5.934999 188 188 188
v 4.407001 0.167999 4.723001 188 188 188
v 4.407001 0.167999 4.723001 188 188 188
v 3.746998 -0.084000 5.934999 188 188 188
v 3.351006 -0.636002 4.723001 188 188 188
v 4.407001 0.167999 4.723001 188 188 188
v 4.407001 0.167999 4.723001 188 188 188
v 3.603008 -1.574001 2.493001 188 188 188
v 4.800999 -0.458000 2.493001 188 188 188
v 4.800999 -0.458000 2.493001 188 188 188
v 3.603008 -1.574001 2.493001 188 188 188
v 4.323002 -2.570004 -0.459000 188 188 188
v 3.603008 -1.574001 2.493001 188 188 188
v 2.541000 -3.658001 -0.677000 188 188 188
v 3.603008 -1.574001 2.493001 188 188 188
v 2.403000 -2.340000 2.493001 188 188 188
v 2.541000 -3.658001 -0.677000 188 188 188
v 0.010998 -2.506001 2.493001 188 188 188
v 2.541000 -3.658001 -0.677000 188 188 188
v 2.541000 -3.658001 -0.677000 188 188 188
v 0.010998 -3.798000 -0.677000 188 188 188
v 0.010998 -3.798000 -0.677000 188 188 188
v 2.839001 -4.076000 -2.968999 188 188 188
v 0.010998 -4.316002 -2.968999 188 188 188
v 2.839001 -4.076000 -2.968999 188 188 188
v 2.839001 -4.076000 -2.968999 188 188 188
v 2.785007 -3.900002 -5.344999 188 188 188
v 4.323002 -2.570004 -0.459000 188 188 188
v 2.839001 -4.076000 -2.968999 188 188 188
v 4.833000 -2.752003 -3.002999 188 188 188
v 4.323002 -2.570004 -0.459000 188 188 188
v 4.833000 -2.752003 -3.002999 188 188 188
v 5.591000 -1.224003 -0.046999 188 188 188
v 4.833000 -2.752003 -3.002999 188 188 188
v 2.785007 -3.900002 -5.344999 188 188 188
v 2.785007 -3.900002 -5.344999 188 188 188
v 4.553001 -2.684002 -5.344999 188 188 188
v 4.365002 -2.482002 -7.329000 188 188 188
v 6.063000 -1.464001 -5.344999 188 188 188
v 4.553001 -2.684002 -5.344999 188 188 188
v 6.063000 -1.464001 -5.344999 188 188 188
v 4.365002 -2.482002 -7.329000 188 188 188
v 5.465000 -1.262001 -7.386999 188 188 188
v 4.365002 -2.482002 -7.329000 188 188 188
v 2.785007 -3.900002 -5.344999 188 188 188
v 4.365002 -2.482002 -7.329000 188 188 188
v 2.785007 -3.228001 -7.524999 188 188 188
v 3.103001 -2.718002 -8.164999 188 188 188
v 2.785007 -3.228001 -7.524999 188 188 188
v 3.103001 -2.718002 -8.164999 188 188 188
v 0.010998 -3.332001 -8.143000 188 188 188
v 0.010998 -3.332001 -8.143000 188 188 188
v 0.010998 -2.726002 -8.370999 188 188 188
v 0.010998 -2.726002 -8.370999 188 188 188
v -3.083000 -2.718002 -8.164999 188 188 188
v -3.398998 -2.100002 -8.370999 188 188 188
v 0.010998 -2.726002 -8.370999 188 188 188
v 3.977005 -0.356003 -8.341000 188 188 188
v 0.010998 -2.726002 -8.370999 188 188 188
v -3.959000 -0.356003 -8.341000 188 188 188
v -3.959000 -0.356003 -8.341000 188 188 188
v 3.977005 -0.356003 -8.341000 188 188 188
v -3.959000 -0.356003 -8.341000 188 188 188
v 3.947006 0.085999 -8.221000 188 188 188
v 3.947006 0.085999 -8.221000 188 188 188
v -3.929001 0.085999 -8.221000 188 188 188
v 3.947006 0.085999 -8.221000 188 188 188
v -3.959000 0.531998 -8.341000 188 188 188
v -3.959000 0.531998 -8.341000 188 188 188
v 3.977005 0.531998 -8.341000 188 188 188
v 0.010998 2.317999 -8.370999 188 188 188
v 3.977005 0.531998 -8.341000 188 188 188
v 3.419003 1.987999 -8.370999 188 188 188
v 3.977005 0.531998 -8.341000 188 188 188
v 3.977005 0.531998 -8.341000 188 188 188
v 4.859001 1.579998 -8.056999 188 188 188
v 4.859001 1.579998 -8.056999 188 188 188
v 5.266998 0.437998 -7.947000 188 188 188
v 5.485001 1.370001 -7.544999 188 188 188
v 5.266998 0.437998 -7.947000 188 188 188
v 5.855000 0.071999 -7.407000 188 188 188
v 5.266998 0.437998 -7.947000 188 188 188
v 5.819000 0.410000 -7.434999 188 188 188
v 5.855000 0.071999 -7.407000 188 188 188
v 5.819000 0.410000 -7.434999 188 188 188
v 6.668999 0.410000 -5.322999 188 188 188
v 5.819000 0.410000 -7.434999 188 188 188
v 6.319000 1.370001 -5.132999 188 188 188
v 6.668999 0.410000 -5.322999 188 188 188
v 6.171001 1.463999 -2.590999 188 188 188
v 6.668999 0.410000 -5.322999 188 188 188
v 6.707001 0.437998 -2.812999 188 188 188
v 6.668999 0.410000 -5.322999 188 188 188
v 6.654999 0.071999 -5.152999 188 188 188
v 6.707001 0.437998 -2.812999 188 188 188
v 6.743000 0.075996 -2.862999 188 188 188
v 6.707001 -0.286003 -2.812999 188 188 188
v 6.654999 0.071999 -5.152999 188 188 188
v 6.743000 0.075996 -2.862999 188 188 188
v 6.707001 0.437998 -2.812999 188 188 188
v 6.171001 1.463999 -2.590999 188 188 188
v 5.766998 1.370001 -0.046999 188 188 188
v 4.553001 2.585999 -5.132999 188 188 188
v 6.171001 1.463999 -2.590999 188 188 188
v 6.319000 1.370001 -5.132999 188 188 188
v 5.855000 0.071999 -7.407000 188 188 188
v 6.668999 0.410000 -5.322999 188 188 188
v 6.654999 0.071999 -5.152999 188 188 188
v 5.819000 0.410000 -7.434999 188 188 188
v 5.485001 1.370001 -7.544999 188 188 188
v 6.319000 1.370001 -5.132999 188 188 188
v 6.319000 1.370001 -5.132999 188 188 188
v 5.485001 1.370001 -7.544999 188 188 188
v 4.359001 2.585999 -7.622999 188 188 188
v 4.359001 2.585999 -7.622999 188 188 188
v 5.485001 1.370001 -7.544999 188 188 188
v 4.859001 1.579998 -8.056999 188 188 188
v 4.859001 1.579998 -8.056999 188 188 188
v 4.359001 2.585999 -7.622999 188 188 188
v 4.859001 1.579998 -8.056999 188 188 188
v 3.419003 1.987999 -8.370999 188 188 188
v 4.097000 2.230000 -8.148999 188 188 188
v 4.097000 2.230000 -8.148999 188 188 188
v 3.419003 1.987999 -8.370999 188 188 188
v 4.097000 2.230000 -8.148999 188 188 188
v 3.101002 2.612001 -8.247000 188 188 188
v 2.785007 3.125999 -7.692999 188 188 188
v 3.101002 2.612001 -8.247000 188 188 188
v 0.010998 2.903999 -8.148999 188 188 188
v 2.785007 3.125999 -7.692999 188 188 188
v 0.010998 2.317999 -8.370999 188 188 188
v 0.010998 2.903999 -8.148999 188 188 188
v 3.101002 2.612001 -8.247000 188 188 188
v 0.010998 2.317999 -8.370999 188 188 188
v 3.101002 2.612001 -8.247000 188 188 188
v 3.419003 1.987999 -8.370999 188 188 188
v -3.959000 0.531998 -8.341000 188 188 188
v 0.010998 2.317999 -8.370999 188 188 188
v -3.081001 2.612001 -8.247000 188 188 188
v 0.010998 2.317999 -8.370999 188 188 188
v -3.398998 1.987999 -8.370999 188 188 188
v -3.959000 0.531998 -8.341000 188 188 188
v -4.202999 2.235998 -8.171000 188 188 188
v -3.398998 1.987999 -8.370999 188 188 188
v -4.202999 2.235998 -8.171000 188 188 188
v -3.959000 0.531998 -8.341000 188 188 188
v -4.827000 1.581999 -8.077000 188 188 188
v -3.959000 0.531998 -8.341000 188 188 188
v -5.458992 1.370001 -7.566999 188 188 188
v -4.827000 1.581999 -8.077000 188 188 188
v -5.258999 0.437998 -7.967000 188 188 188
v -5.458992 1.370001 -7.566999 188 188 188
v -5.258999 0.437998 -7.967000 188 188 188
v -5.809002 0.410000 -7.458999 188 188 188
v -5.258999 0.437998 -7.967000 188 188 188
v -5.269001 -0.286003 -7.924999 188 188 188
v -5.809002 0.410000 -7.458999 188 188 188
v -5.811001 -0.266003 -7.416999 188 188 188
v -5.809002 0.410000 -7.458999 188 188 188
v -5.809002 0.410000 -7.458999 188 188 188
v -6.648994 0.410000 -5.322999 188 188 188
v -6.300999 1.370001 -5.132999 188 188 188
v -6.300999 1.370001 -5.132999 188 188 188
v -6.648994 0.410000 -5.322999 188 188 188
v -6.153000 1.463999 -2.590999 188 188 188
v -6.648994 0.410000 -5.322999 188 188 188
v -6.648994 0.410000 -5.322999 188 188 188
v -6.688999 0.437998 -2.812999 188 188 188
v -6.637001 0.071999 -5.289000 188 188 188
v -6.688999 0.437998 -2.812999 188 188 188
v -6.743000 0.075996 -2.862999 188 188 188
v -6.688999 0.437998 -2.812999 188 188 188
v -6.688999 0.437998 -2.812999 188 188 188
v -5.863003 0.410000 0.195001 188 188 188
v -5.749001 1.370001 -0.046999 188 188 188
v -5.863003 0.410000 0.195001 188 188 188
v -4.783001 1.855999 2.727001 188 188 188
v -5.863003 0.410000 0.195001 188 188 188
v -5.201000 0.895998 2.949001 188 188 188
v -5.863003 0.410000 0.195001 188 188 188
v -5.837002 0.071999 0.195001 188 188 188
v -5.201000 0.895998 2.949001 188 188 188
v -5.201000 0.895998 2.949001 188 188 188
v -5.013000 0.558001 2.913001 188 188 188
v -5.013000 0.558001 2.913001 188 188 188
v -5.003002 1.377998 5.477000 188 188 188
v -5.003002 1.377998 5.477000 188 188 188
v -5.033001 1.042000 5.395000 188 188 188
v -5.655003 1.964001 8.189002 188 188 188
v -5.033001 1.042000 5.395000 188 188 188
v -2.655003 1.176001 7.497000 188 188 188
v -5.655003 1.964001 8.189002 188 188 188
v -5.865002 1.625999 8.371001 188 188 188
v -2.655003 1.176001 7.497000 188 188 188
v -5.865002 1.625999 8.371001 188 188 188
v -5.865002 1.625999 8.371001 188 188 188
v -5.033001 1.042000 5.395000 188 188 188
v -5.655003 1.288000 8.189002 188 188 188
v -5.655003 1.288000 8.189002 188 188 188
v -5.033001 1.042000 5.395000 188 188 188
v -5.655003 1.288000 8.189002 188 188 188
v -5.003002 0.701998 5.477000 188 188 188
v -5.067001 0.835999 7.625001 188 188 188
v -5.067001 0.835999 7.625001 188 188 188
v -5.003002 0.701998 5.477000 188 188 188
v -4.389000 0.167999 4.955001 188 188 188
v -5.003002 0.701998 5.477000 188 188 188
v -5.201000 0.219997 2.949001 188 188 188
v -5.003002 0.701998 5.477000 188 188 188
v -5.013000 0.558001 2.913001 188 188 188
v -4.389000 0.167999 4.955001 188 188 188
v -5.201000 0.219997 2.949001 188 188 188
v -4.389000 0.167999 4.955001 188 188 188
v -4.783001 -0.458000 2.727001 188 188 188
v -3.582996 -1.574001 2.493001 188 188 188
v -4.783001 -0.458000 2.727001 188 188 188
v -4.302998 -2.570004 -0.459000 188 188 188
v -4.783001 -0.458000 2.727001 188 188 188
v -4.302998 -2.570004 -0.459000 188 188 188
v -5.587002 -1.224003 -0.046999 188 188 188
v -5.587002 -1.224003 -0.046999 188 188 188
v -4.813000 -2.752003 -3.002999 188 188 188
v -4.813000 -2.752003 -3.002999 188 188 188
v -6.153000 -1.312000 -2.860999 188 188 188
v -4.532997 -2.684002 -5.344999 188 188 188
v -6.153000 -1.312000 -2.860999 188 188 188
v -4.532997 -2.684002 -5.344999 188 188 188
v -6.043003 -1.464001 -5.344999 188 188 188
v -4.458996 -2.482002 -7.390999 188 188 188
v -4.532997 -2.684002 -5.344999 188 188 188
v -2.764996 -3.900002 -5.344999 188 188 188
v -4.458996 -2.482002 -7.390999 188 188 188
v -2.764996 -3.900002 -5.344999 188 188 188
v -2.764996 -3.228001 -7.524999 188 188 188
v 0.010998 -4.272003 -5.344999 188 188 188
v -2.764996 -3.228001 -7.524999 188 188 188
v 0.010998 -4.272003 -5.344999 188 188 188
v 0.010998 -3.762001 -7.508999 188 188 188
v 2.785007 -3.228001 -7.524999 188 188 188
v 0.010998 -3.762001 -7.508999 188 188 188
v -2.764996 -3.228001 -7.524999 188 188 188
v 0.010998 -3.332001 -8.143000 188 188 188
v 0.010998 -4.272003 -5.344999 188 188 188
v 0.010998 -4.316002 -2.968999 188 188 188
v -2.764996 -3.900002 -5.344999 188 188 188
v 0.010998 -4.316002 -2.968999 188 188 188
v -2.764996 -3.900002 -5.344999 188 188 188
v -2.764996 -3.900002 -5.344999 188 188 188
v -2.819000 -4.076000 -2.968999 188 188 188
v -4.813000 -2.752003 -3.002999 188 188 188
v -2.764996 -3.228001 -7.524999 188 188 188
v -4.458996 -2.482002 -7.390999 188 188 188
v -4.188999 -2.110001 -8.025000 188 188 188
v -3.083000 -2.718002 -8.164999 188 188 188
v -2.764996 -3.228001 -7.524999 188 188 188
v -4.188999 -2.110001 -8.025000 188 188 188
v -4.458996 -2.482002 -7.390999 188 188 188
v -4.823002 -1.512001 -7.962999 188 188 188
v -4.458996 -2.482002 -7.390999 188 188 188
v -4.823002 -1.512001 -7.962999 188 188 188
v -5.438999 -1.260002 -7.416999 188 188 188
v -5.269001 -0.286003 -7.924999 188 188 188
v -5.269001 -0.286003 -7.924999 188 188 188
v -3.959000 -0.356003 -8.341000 188 188 188
v -4.823002 -1.512001 -7.962999 188 188 188
v -3.398998 -2.100002 -8.370999 188 188 188
v -4.188999 -2.110001 -8.025000 188 188 188
v -4.823002 -1.512001 -7.962999 188 188 188
v -4.458996 -2.482002 -7.390999 188 188 188
v -6.043003 -1.464001 -5.344999 188 188 188
v -5.438999 -1.260002 -7.416999 188 188 188
v -5.811001 -0.266003 -7.416999 188 188 188
v -5.438999 -1.260002 -7.416999 188 188 188
v -6.043003 -1.464001 -5.344999 188 188 188
v -5.811001 -0.266003 -7.416999 188 188 188
v -6.043003 -1.464001 -5.344999 188 188 188
v -5.811001 -0.266003 -7.416999 188 188 188
v -6.648994 -0.266003 -5.322999 188 188 188
v -6.637001 0.071999 -5.289000 188 188 188
v -6.637001 0.071999 -5.289000 188 188 188
v -6.648994 -0.266003 -5.322999 188 188 188
v -6.153000 -1.312000 -2.860999 188 188 188
v -6.688999 -0.286003 -2.812999 188 188 188
v -6.648994 -0.266003 -5.322999 188 188 188
v -6.153000 -1.312000 -2.860999 188 188 188
v -6.648994 -0.266003 -5.322999 188 188 188
v -6.043003 -1.464001 -5.344999 188 188 188
v -4.813000 -2.752003 -3.002999 188 188 188
v -4.532997 -2.684002 -5.344999 188 188 188
v -2.764996 -3.900002 -5.344999 188 188 188
v -5.587002 -1.224003 -0.046999 188 188 188
v -6.688999 -0.286003 -2.812999 188 188 188
v -6.153000 -1.312000 -2.860999 188 188 188
v -6.688999 -0.286003 -2.812999 188 188 188
v -5.587002 -1.224003 -0.046999 188 188 188
v -5.863003 -0.266003 0.195001 188 188 188
v -6.743000 0.075996 -2.862999 188 188 188
v -6.688999 -0.286003 -2.812999 188 188 188
v -5.837002 0.071999 0.195001 188 188 188
v -6.743000 0.075996 -2.862999 188 188 188
v -5.863003 -0.266003 0.195001 188 188 188
v -5.863003 -0.266003 0.195001 188 188 188
v -5.201000 0.219997 2.949001 188 188 188
v -5.837002 0.071999 0.195001 188 188 188
v -4.302998 -2.570004 -0.459000 188 188 188
v -4.813000 -2.752003 -3.002999 188 188 188
v -2.819000 -4.076000 -2.968999 188 188 188
v -2.819000 -4.076000 -2.968999 188 188 188
v -4.302998 -2.570004 -0.459000 188 188 188
v 0.010998 -3.798000 -0.677000 188 188 188
v -2.524998 -3.658001 -0.677000 188 188 188
v -2.819000 -4.076000 -2.968999 188 188 188
v -5.587002 -1.224003 -0.046999 188 188 188
v -4.783001 -0.458000 2.727001 188 188 188
v -5.863003 -0.266003 0.195001 188 188 188
v -2.524998 -3.658001 -0.677000 188 188 188
v -3.582996 -1.574001 2.493001 188 188 188
v -4.302998 -2.570004 -0.459000 188 188 188
v -3.582996 -1.574001 2.493001 188 188 188
v -2.524998 -3.658001 -0.677000 188 188 188
v -2.384998 -2.340000 2.493001 188 188 188
v -3.582996 -1.574001 2.493001 188 188 188
v -3.331001 -0.636002 4.723001 188 188 188
v -2.384998 -2.340000 2.493001 188 188 188
v -3.730995 -0.084000 5.934999 188 188 188
v -3.331001 -0.636002 4.723001 188 188 188
v -2.272995 -0.904003 4.723001 188 188 188
v -4.389000 0.167999 4.955001 188 188 188
v -3.331001 -0.636002 4.723001 188 188 188
v -3.730995 -0.084000 5.934999 188 188 188
v -2.272995 -0.904003 4.723001 188 188 188
v -2.384998 -2.340000 2.493001 188 188 188
v 0.010998 -2.506001 2.493001 188 188 188
v 0.010998 -1.054001 4.723001 188 188 188
v -2.384998 -2.340000 2.493001 188 188 188
v 0.010998 -1.054001 4.723001 188 188 188
v 0.010998 -0.174004 5.727001 188 188 188
v -2.272995 -0.904003 4.723001 188 188 188
v 0.010998 -0.174004 5.727001 188 188 188
v 0.010998 -1.054001 4.723001 188 188 188
v 0.010998 -1.054001 4.723001 188 188 188
v 2.403000 -2.340000 2.493001 188 188 188
v 2.295006 -0.904003 4.723001 188 188 188
v 3.351006 -0.636002 4.723001 188 188 188
v 2.295006 -0.904003 4.723001 188 188 188
v 2.403000 -2.340000 2.493001 188 188 188
v 0.010998 -2.506001 2.493001 188 188 188
v -2.384998 -2.340000 2.493001 188 188 188
v -2.524998 -3.658001 -0.677000 188 188 188
v -4.389000 0.167999 4.955001 188 188 188
v -3.582996 -1.574001 2.493001 188 188 188
v -3.331001 -0.636002 4.723001 188 188 188
v -5.201000 0.219997 2.949001 188 188 188
v -5.863003 -0.266003 0.195001 188 188 188
v -4.783001 -0.458000 2.727001 188 188 188
v -5.013000 2.418001 7.523000 188 188 188
v -5.003002 1.377998 5.477000 188 188 188
v -5.655003 1.964001 8.189002 188 188 188
v -5.003002 0.701998 5.477000 188 188 188
v -5.033001 1.042000 5.395000 188 188 188
v -5.013000 0.558001 2.913001 188 188 188
v -5.003002 1.377998 5.477000 188 188 188
v -4.601002 2.046001 5.267000 188 188 188
v -5.201000 0.895998 2.949001 188 188 188
v -5.837002 0.071999 0.195001 188 188 188
v -5.201000 0.219997 2.949001 188 188 188
v -5.013000 0.558001 2.913001 188 188 188
v -4.783001 1.855999 2.727001 188 188 188
v -5.201000 0.895998 2.949001 188 188 188
v -4.601002 2.046001 5.267000 188 188 188
v -4.134995 2.585999 -0.046999 188 188 188
v -5.749001 1.370001 -0.046999 188 188 188
v -4.783001 1.855999 2.727001 188 188 188
v -6.743000 0.075996 -2.862999 188 188 188
v -5.837002 0.071999 0.195001 188 188 188
v -5.863003 0.410000 0.195001 188 188 188
v -6.688999 -0.286003 -2.812999 188 188 188
v -6.743000 0.075996 -2.862999 188 188 188
v -6.637001 0.071999 -5.289000 188 188 188
v -6.153000 1.463999 -2.590999 188 188 188
v -6.688999 0.437998 -2.812999 188 188 188
v -5.749001 1.370001 -0.046999 188 188 188
v -6.153000 1.463999 -2.590999 188 188 188
v -5.749001 1.370001 -0.046999 188 188 188
v -4.424999 2.763998 -2.590999 188 188 188
v -6.648994 0.410000 -5.322999 188 188 188
v -5.811001 -0.266003 -7.416999 188 188 188
v -6.637001 0.071999 -5.289000 188 188 188
v -5.438999 -1.260002 -7.416999 188 188 188
v -5.811001 -0.266003 -7.416999 188 188 188
v -5.269001 -0.286003 -7.924999 188 188 188
v -5.258999 0.437998 -7.967000 188 188 188
v -3.929001 0.085999 -8.221000 188 188 188
v -5.269001 -0.286003 -7.924999 188 188 188
v 3.947006 0.085999 -8.221000 188 188 188
v 3.977005 0.531998 -8.341000 188 188 188
v 5.266998 0.437998 -7.947000 188 188 188
v 5.266998 0.437998 -7.947000 188 188 188
v 5.271000 -0.286003 -7.930999 188 188 188
v 3.947006 0.085999 -8.221000 188 188 188
v -3.929001 0.085999 -8.221000 188 188 188
v -5.258999 0.437998 -7.967000 188 188 188
v -3.959000 0.531998 -8.341000 188 188 188
v -5.269001 -0.286003 -7.924999 188 188 188
v -3.929001 0.085999 -8.221000 188 188 188
v -3.959000 -0.356003 -8.341000 188 188 188
v -3.398998 -2.100002 -8.370999 188 188 188
v -4.823002 -1.512001 -7.962999 188 188 188
v -3.959000 -0.356003 -8.341000 188 188 188
v -4.188999 -2.110001 -8.025000 188 188 188
v -3.398998 -2.100002 -8.370999 188 188 188
v -3.083000 -2.718002 -8.164999 188 188 188
v 0.010998 -3.332001 -8.143000 188 188 188
v -2.764996 -3.228001 -7.524999 188 188 188
v -3.083000 -2.718002 -8.164999 188 188 188
v 3.419003 -2.100002 -8.370999 188 188 188
v 3.103001 -2.718002 -8.164999 188 188 188
v 0.010998 -2.726002 -8.370999 188 188 188
v 0.010998 -3.762001 -7.508999 188 188 188
v 0.010998 -3.332001 -8.143000 188 188 188
v 2.785007 -3.228001 -7.524999 188 188 188
v 4.365002 -2.482002 -7.329000 188 188 188
v 3.103001 -2.718002 -8.164999 188 188 188
v 4.091000 -2.118000 -8.025000 188 188 188
v 2.785007 -3.228001 -7.524999 188 188 188
v 2.785007 -3.900002 -5.344999 188 188 188
v 0.010998 -4.272003 -5.344999 188 188 188
v 4.553001 -2.684002 -5.344999 188 188 188
v 6.171001 -1.312000 -2.860999 188 188 188
v 4.833000 -2.752003 -3.002999 188 188 188
v 0.010998 -4.272003 -5.344999 188 188 188
v 2.785007 -3.900002 -5.344999 188 188 188
v 0.010998 -4.316002 -2.968999 188 188 188
v -2.819000 -4.076000 -2.968999 188 188 188
v 0.010998 -4.316002 -2.968999 188 188 188
v 0.010998 -3.798000 -0.677000 188 188 188
v 0.010998 -2.506001 2.493001 188 188 188
v -2.524998 -3.658001 -0.677000 188 188 188
v 0.010998 -3.798000 -0.677000 188 188 188
v 0.010998 -1.054001 4.723001 188 188 188
v 0.010998 -2.506001 2.493001 188 188 188
v 2.403000 -2.340000 2.493001 188 188 188
v 2.541000 -3.658001 -0.677000 188 188 188
v 2.839001 -4.076000 -2.968999 188 188 188
v 4.323002 -2.570004 -0.459000 188 188 188
v 3.351006 -0.636002 4.723001 188 188 188
v 2.403000 -2.340000 2.493001 188 188 188
v 3.603008 -1.574001 2.493001 188 188 188
v 3.351006 -0.636002 4.723001 188 188 188
v 3.746998 -0.084000 5.934999 188 188 188
v 2.295006 -0.904003 4.723001 188 188 188
v 2.295006 -0.302002 5.727001 188 188 188
v 2.295006 -0.904003 4.723001 188 188 188
v 3.746998 -0.084000 5.934999 188 188 188
v 2.295006 -0.302002 5.727001 188 188 188
v 0.010998 -0.174004 5.727001 188 188 188
v 2.295006 -0.904003 4.723001 188 188 188
v 0.010998 -0.174004 5.727001 188 188 188
v -2.272995 -0.174004 5.727001 188 188 188
v -2.272995 -0.904003 4.723001 188 188 188
v -2.272995 -0.174004 5.727001 188 188 188
v -3.730995 -0.084000 5.934999 188 188 188
v -2.272995 -0.904003 4.723001 188 188 188
v -5.067001 0.835999 7.625001 188 188 188
v -4.389000 0.167999 4.955001 188 188 188
v -3.730995 -0.084000 5.934999 188 188 188
v -5.067001 0.835999 7.625001 188 188 188
v -2.595001 0.840002 7.403002 188 188 188
v -5.655003 1.288000 8.189002 188 188 188
v 0.010998 0.383999 6.597000 188 188 188
v 2.403000 0.383999 6.673001 188 188 188
v 0.010998 0.840002 7.263000 188 188 188
v 0.010998 0.840002 7.263000 188 188 188
v 2.615002 0.840002 7.337000 188 188 188
v 0.010998 1.176001 7.125000 188 188 188
v -2.595001 0.840002 7.403002 188 188 188
v -2.655003 1.176001 7.497000 188 188 188
v -5.655003 1.288000 8.189002 188 188 188
v -2.595001 1.515999 7.403002 188 188 188
v -5.655003 1.964001 8.189002 188 188 188
v -2.655003 1.176001 7.497000 188 188 188
v 2.615002 1.515999 7.337000 188 188 188
v 0.010998 1.515999 7.263000 188 188 188
v 0.010998 1.176001 7.125000 188 188 188
v 0.010998 1.515999 7.263000 188 188 188
v 0.010998 1.966000 6.597000 188 188 188
v -2.384998 1.966000 6.743001 188 188 188
v -2.595001 1.515999 7.403002 188 188 188
v -5.013000 2.418001 7.523000 188 188 188
v -5.655003 1.964001 8.189002 188 188 188
v -2.384998 2.675999 6.087000 188 188 188
v -3.711002 2.579998 6.149001 188 188 188
v -2.384998 1.966000 6.743001 188 188 188
v -5.013000 2.418001 7.523000 188 188 188
v -4.601002 2.046001 5.267000 188 188 188
v -5.003002 1.377998 5.477000 188 188 188
v -2.384998 3.025999 4.848999 188 188 188
v -3.492996 2.741999 4.848999 188 188 188
v -3.711002 2.579998 6.149001 188 188 188
v -3.582996 2.687998 2.493001 188 188 188
v -4.783001 1.855999 2.727001 188 188 188
v -4.601002 2.046001 5.267000 188 188 188
v -3.492996 2.741999 4.848999 188 188 188
v -2.384998 3.025999 4.848999 188 188 188
v -2.384998 3.624001 2.493001 188 188 188
v -3.582996 2.687998 2.493001 188 188 188
v -4.134995 2.585999 -0.046999 188 188 188
v -4.783001 1.855999 2.727001 188 188 188
v 0.010998 3.806000 -0.046999 188 188 188
v -2.701000 4.065998 -2.590999 188 188 188
v -2.384998 3.624001 2.493001 188 188 188
v -5.749001 1.370001 -0.046999 188 188 188
v -4.134995 2.585999 -0.046999 188 188 188
v -4.424999 2.763998 -2.590999 188 188 188
v -6.300999 1.370001 -5.132999 188 188 188
v -6.153000 1.463999 -2.590999 188 188 188
v -4.424999 2.763998 -2.590999 188 188 188
v -6.300999 1.370001 -5.132999 188 188 188
v -5.458992 1.370001 -7.566999 188 188 188
v -5.809002 0.410000 -7.458999 188 188 188
v -4.202999 2.235998 -8.171000 188 188 188
v -4.827000 1.581999 -8.077000 188 188 188
v -5.458992 1.370001 -7.566999 188 188 188
v -3.081001 2.612001 -8.247000 188 188 188
v -3.398998 1.987999 -8.370999 188 188 188
v -4.202999 2.235998 -8.171000 188 188 188
v -3.081001 2.612001 -8.247000 188 188 188
v 0.010998 2.903999 -8.148999 188 188 188
v 0.010998 2.317999 -8.370999 188 188 188
v -2.764996 3.806000 -5.132999 188 188 188
v -2.764996 3.125999 -7.692999 188 188 188
v -4.458996 2.585999 -7.686999 188 188 188
v 0.010998 4.035999 -5.132999 188 188 188
v -2.764996 3.806000 -5.132999 188 188 188
v -2.701000 4.065998 -2.590999 188 188 188
v 0.010998 2.903999 -8.148999 188 188 188
v 0.010998 3.384003 -7.591000 188 188 188
v 2.785007 3.125999 -7.692999 188 188 188
v 4.097000 2.230000 -8.148999 188 188 188
v 2.785007 3.125999 -7.692999 188 188 188
v 4.359001 2.585999 -7.622999 188 188 188
v 4.359001 2.585999 -7.622999 188 188 188
v 4.553001 2.585999 -5.132999 188 188 188
v 6.319000 1.370001 -5.132999 188 188 188
v 4.553001 2.585999 -5.132999 188 188 188
v 4.443001 2.763998 -2.590999 188 188 188
v 6.171001 1.463999 -2.590999 188 188 188
v 0.010998 4.035999 -5.132999 188 188 188
v 2.718998 4.065998 -2.590999 188 188 188
v 2.785007 3.806000 -5.132999 188 188 188
v 2.403000 3.624001 2.493001 188 188 188
v 4.153000 2.585999 -0.046999 188 188 188
v 2.718998 4.065998 -2.590999 188 188 188
v 5.766998 1.370001 -0.046999 188 188 188
v 6.171001 1.463999 -2.590999 188 188 188
v 4.443001 2.763998 -2.590999 188 188 188
v 4.153000 2.585999 -0.046999 188 188 188
v 3.603008 2.687998 2.493001 188 188 188
v 4.800999 1.855999 2.493001 188 188 188
v 6.707001 0.437998 -2.812999 188 188 188
v 5.766998 1.370001 -0.046999 188 188 188
v 5.879002 0.410000 0.195001 188 188 188
v 4.800999 1.855999 2.493001 188 188 188
v 4.618999 2.046001 5.033001 188 188 188
v 5.216999 0.895998 2.713000 188 188 188
v 6.707001 0.437998 -2.812999 188 188 188
v 5.879002 0.410000 0.195001 188 188 188
v 6.743000 0.075996 -2.862999 188 188 188
v 5.216999 0.219997 2.713000 188 188 188
v 5.743000 0.071999 0.195001 188 188 188
v 5.216999 0.895998 2.713000 188 188 188
v 4.800999 -0.458000 2.493001 188 188 188
v 5.216999 0.219997 2.713000 188 188 188
v 4.407001 0.167999 4.723001 188 188 188
v 5.591000 -1.224003 -0.046999 188 188 188
v 4.800999 -0.458000 2.493001 188 188 188
v 4.323002 -2.570004 -0.459000 188 188 188
v 6.707001 -0.286003 -2.812999 188 188 188
v 6.743000 0.075996 -2.862999 188 188 188
v 5.879002 -0.266003 0.195001 188 188 188
v 6.171001 -1.312000 -2.860999 188 188 188
v 5.591000 -1.224003 -0.046999 188 188 188
v 4.833000 -2.752003 -3.002999 188 188 188
v 6.668999 -0.266003 -5.322999 188 188 188
v 6.654999 0.071999 -5.152999 188 188 188
v 6.707001 -0.286003 -2.812999 188 188 188
v 6.171001 -1.312000 -2.860999 188 188 188
v 4.553001 -2.684002 -5.344999 188 188 188
v 6.063000 -1.464001 -5.344999 188 188 188
v 6.063000 -1.464001 -5.344999 188 188 188
v 5.465000 -1.262001 -7.386999 188 188 188
v 5.819000 -0.266003 -7.421000 188 188 188
v 6.668999 -0.266003 -5.322999 188 188 188
v 5.855000 0.071999 -7.407000 188 188 188
v 6.654999 0.071999 -5.152999 188 188 188
v 5.855000 0.071999 -7.407000 188 188 188
v 5.271000 -0.286003 -7.930999 188 188 188
v 5.266998 0.437998 -7.947000 188 188 188
v 5.271000 -0.286003 -7.930999 188 188 188
v 3.977005 -0.356003 -8.341000 188 188 188
v 3.947006 0.085999 -8.221000 188 188 188
v 0.010998 -2.726002 -8.370999 188 188 188
v 3.977005 -0.356003 -8.341000 188 188 188
v 3.419003 -2.100002 -8.370999 188 188 188
v 4.091000 -2.118000 -8.025000 188 188 188
v 3.103001 -2.718002 -8.164999 188 188 188
v 3.419003 -2.100002 -8.370999 188 188 188
v 5.465000 -1.262001 -7.386999 188 188 188
v 4.365002 -2.482002 -7.329000 188 188 188
v 4.091000 -2.118000 -8.025000 188 188 188
v 5.465000 -1.262001 -7.386999 188 188 188
v 4.868999 -1.498001 -7.930999 188 188 188
v 5.819000 -0.266003 -7.421000 188 188 188

f 1 176 177
f 178 179 175
f 180 181 174
f 182 183 141
f 184 2 185
f 186 77 187
f 188 3 189
f 172 190 191
f 169 192 193
f 194 171 195
f 166 196 197
f 198 5 199
f 4 200 201
f 53 202 203
f 6 204 205
f 168 206 207
f 208 8 209
f 7 210 211
f 9 212 213
f 214 215 163
f 164 216 217
f 218 219 10
f 46 220 221
f 14 222 223
f 224 11 225
f 226 12 227
f 228 229 13
f 230 161 231
f 15 232 233
f 159 234 235
f 16 236 237
f 160 238 239
f 240 157 241
f 17 242 243
f 244 245 89
f 246 247 18
f 248 249 19
f 250 251 20
f 252 253 254
f 255 256 21
f 257 22 258
f 24 259 260
f 261 23 262
f 153 263 264
f 265 26 266
f 25 267 268
f 269 270 152
f 49 271 272
f 273 151 274
f 27 275 276
f 150 277 278
f 279 101 280
f 281 282 28
f 149 283 284
f 148 285 286
f 287 288 105
f 289 29 290
f 291 147 292
f 293 146 294
f 295 296 30
f 33 297 298
f 299 300 31
f 301 32 302
f 303 304 34
f 305 306 307
f 308 35 309
f 310 311 58
f 312 313 314
f 315 316 36
f 317 318 55
f 319 320 37
f 38 321 322
f 323 324 40
f 50 325 326
f 39 327 328
f 42 329 330
f 331 332 41
f 165 333 334
f 335 336 337
f 338 44 339
f 340 341 342
f 343 344 345
f 48 346 347
f 348 349 350
f 351 352 43
f 353 354 355
f 356 45 357
f 358 359 360
f 361 362 363
f 364 365 366
f 367 154 368
f 369 370 47
f 371 51 372
f 373 374 375
f 376 377 378
f 379 380 381
f 382 383 384
f 385 386 387
f 388 389 390
f 391 392 393
f 394 52 395
f 396 397 398
f 399 400 401
f 402 403 57
f 404 405 54
f 406 407 59
f 408 409 410
f 411 412 413
f 56 414 415
f 416 417 418
f 419 420 421
f 422 423 424
f 425 426 427
f 428 429 430
f 431 432 433
f 434 435 436
f 437 438 439
f 440 441 60
f 442 61 443
f 444 445 446
f 447 448 167
f 65 449 450
f 62 451 452
f 453 63 454
f 455 64 456
f 66 457 458
f 459 67 460
f 461 69 462
f 463 464 170
f 465 466 467
f 468 469 470
f 68 471 472
f 473 70 474
f 475 476 477
f 478 479 480
f 481 482 145
f 71 483 484
f 485 486 144
f 73 487 488
f 489 72 490
f 491 492 143
f 493 142 494
f 495 496 497
f 498 75 499
f 500 74 501
f 502 503 91
f 76 504 505
f 506 158 507
f 508 86 509
f 510 84 511
f 512 513 173
f 514 83 515
f 516 78 517
f 518 519 520
f 79 521 522
f 523 524 81
f 525 162 526
f 527 80 528
f 529 82 530
f 531 532 533
f 534 535 536
f 537 538 539
f 540 541 542
f 543 544 545
f 546 547 548
f 549 550 551
f 552 553 554
f 555 85 556
f 557 558 559
f 87 560 561
f 562 563 564
f 565 566 567
f 568 569 570
f 571 572 573
f 574 88 575
f 576 577 578
f 579 580 581
f 90 582 583
f 92 584 585
f 586 587 588
f 94 589 590
f 591 592 140
f 593 119 594
f 595 93 596
f 597 598 599
f 600 601 139
f 96 602 603
f 604 95 605
f 606 124 607
f 608 97 609
f 610 611 156
f 155 612 613
f 138 614 615
f 98 616 617
f 618 99 619
f 136 620 621
f 622 137 623
f 100 624 625
f 626 627 102
f 628 629 630
f 103 631 632
f 633 634 635
f 636 637 104
f 638 639 640
f 641 642 106
f 135 643 644
f 645 646 647
f 648 649 107
f 134 650 651
f 126 652 653
f 654 655 127
f 113 656 657
f 658 108 659
f 121 660 661
f 662 663 117
f 664 665 114
f 666 112 667
f 668 669 109
f 110 670 671
f 672 673 111
f 674 675 676
f 677 678 679
f 680 681 682
f 683 125 684
f 685 686 687
f 688 689 116
f 690 691 692
f 115 693 694
f 695 696 118
f 697 698 699
f 700 701 702
f 703 704 705
f 706 707 708
f 709 710 711
f 712 713 120
f 714 715 716
f 717 718 122
f 719 720 721
f 722 723 724
f 725 726 727
f 728 729 730
f 123 731 732
f 733 734 735
f 736 737 738
f 739 740 741
f 742 743 744
f 745 133 746
f 747 748 749
f 750 751 752
f 753 754 755
f 756 757 128
f 758 129 759
f 760 761 130
f 762 763 764
f 765 766 767
f 131 768 769
f 770 771 772
f 773 774 775
f 776 777 132
f 778 779 780
f 781 782 783
f 784 785 786
f 787 788 789
f 790 791 792
f 793 794 795
f 796 797 798
f 799 800 801
f 802 803 804
f 805 806 807
f 808 809 810
f 811 812 813
f 814 815 816
f 817 818 819
f 820 821 822
f 823 824 825
f 826 827 828
f 829 830 831
f 832 833 834
f 835 836 837
f 838 839 840
f 841 842 843
f 844 845 846
f 847 848 849
f 850 851 852
f 853 854 855
f 856 857 858
f 859 860 861
f 862 863 864
f 865 866 867
f 868 869 870
f 871 872 873
f 874 875 876
f 877 878 879
f 880 881 882
f 883 884 885
f 886 887 888
f 889 890 891
f 892 893 894
f 895 896 897
f 898 899 900
f 901 902 903
f 904 905 906
f 907 908 909
f 910 911 912
f 913 914 915
f 916 917 918
f 919 920 921
f 922 923 924
f 925 926 927
f 928 929 930
f 931 932 933
f 934 935 936
f 937 938 939
f 940 941 942
f 943 944 945
f 946 947 948
f 949 950 951
f 952 953 954
f 955 956 957
f 958 959 960
f 961 962 963
f 964 965 966
f 967 968 969
f 970 971 972
f 973 974 975
f 976 977 978
f 979 980 981
f 982 983 984
f 985 986 987
f 988 989 990
f 991 992 993
f 994 995 996
f 997 998 999
f 1000 1001 1002
f 1003 1004 1005
f 1006 1007 1008
f 1009 1010 1011
f 1012 1013 1014
f 1015 1016 1017
f 1018 1019 1020
f 1021 1022 1023
f 1024 1025 1026
f 1027 1028 1029
f 1030 1031 1032
f 1033 1034 1035
f 1036 1037 1038
f 1039 1040 1041
f 1042 1043 1044
f 1045 1046 1047
f 1048 1049 1050

