# Blender v3.2.0 OBJ File: 'tray.blend'
# www.blender.org
mtllib tray.mtl
o Plane
v -0.785201 0.000000 0.752395
v -0.872833 0.000000 0.716097
v -0.963702 0.000000 0.625228
v -1.000000 0.000000 0.537596
v 1.000000 0.000000 0.537596
v 0.963702 0.000000 0.625228
v 0.872833 0.000000 0.716097
v 0.785201 0.000000 0.752395
v -0.872833 0.000000 -0.716097
v -0.785201 0.000000 -0.752395
v -0.963702 0.000000 -0.625228
v -1.000000 0.000000 -0.537596
v 0.785201 0.000000 -0.752395
v 0.872833 0.000000 -0.716097
v 0.963702 0.000000 -0.625228
v 1.000000 0.000000 -0.537596
v 0.875997 0.000000 -0.717679
v 0.966866 0.000000 -0.626810
v -0.815526 0.000000 -0.705577
v -0.899373 0.000000 -0.631222
v -0.954744 0.000000 -0.541048
v -0.949997 0.000000 -0.001582
v -0.904119 0.000000 0.041132
v 0.136844 0.000000 0.036386
v 0.182722 0.000000 -0.030058
v 0.179558 0.000000 -0.654952
v 0.136844 0.000000 -0.705577
v 0.231765 0.000000 -0.654952
v 0.266569 0.000000 -0.700831
v 0.801288 0.000000 -0.700831
v 0.893045 0.000000 -0.645460
v 0.951579 0.000000 -0.544212
v 0.954743 0.000000 -0.031640
v 0.905701 0.000000 0.030058
v 0.263405 0.000000 0.034804
v 0.230182 0.000000 -0.028476
v -0.908865 0.000000 0.082265
v -0.948415 0.000000 0.136053
v -0.954743 0.000000 0.528391
v -0.893045 0.000000 0.632804
v -0.785468 0.000000 0.694503
v 0.779140 0.000000 0.694503
v 0.889881 0.000000 0.629640
v 0.949997 0.000000 0.534720
v 0.953161 0.000000 0.120233
v 0.904119 0.000000 0.071191
v -0.815526 0.000000 -0.705577
v -0.899373 0.000000 -0.631222
v -0.954744 0.000000 -0.541048
v -0.949997 0.000000 -0.001582
v -0.904119 0.000000 0.041132
v 0.136844 0.000000 0.036386
v 0.182722 0.000000 -0.030058
v 0.179558 0.000000 -0.654952
v 0.136844 0.000000 -0.705577
v -1.000000 0.044723 -0.537596
v -1.000000 0.044723 0.537596
v -0.963702 0.044723 0.625228
v -0.872833 0.044723 0.716097
v -0.785201 0.044723 0.752395
v 0.785201 0.044723 0.752395
v 0.872833 0.044723 0.716097
v 0.963702 0.044723 0.625228
v 1.000000 0.044723 0.537596
v 1.000000 0.044723 -0.537596
v 0.963702 0.044723 -0.625228
v 0.872833 0.044723 -0.716097
v 0.785201 0.044723 -0.752395
v -0.785201 0.044723 -0.752395
v -0.872833 0.044723 -0.716097
v -0.963702 0.044723 -0.625228
v 0.966866 0.044723 -0.626810
v 0.875997 0.044723 -0.717679
v -0.784497 0.044723 -0.677192
v -0.861560 0.044723 -0.608853
v -0.912451 0.044723 -0.525974
v -0.908089 0.044723 -0.030151
v -0.865922 0.044723 0.009107
v 0.090826 0.044723 0.004745
v 0.132992 0.044723 -0.056324
v 0.130084 0.044723 -0.630664
v 0.090826 0.044723 -0.677192
v 0.245440 0.044723 -0.644320
v 0.278989 0.044723 -0.688544
v 0.794422 0.044723 -0.688544
v 0.882869 0.044723 -0.635171
v 0.939293 0.044723 -0.537574
v 0.942343 0.044723 -0.043490
v 0.895069 0.044723 0.015983
v 0.275939 0.044723 0.020558
v 0.243915 0.044723 -0.040440
v -0.872957 0.044723 0.095329
v -0.910943 0.044723 0.146989
v -0.917020 0.044723 0.523803
v -0.857763 0.044723 0.624084
v -0.754443 0.044723 0.683341
v 0.748253 0.044723 0.683341
v 0.854612 0.044723 0.621045
v 0.912349 0.044723 0.529880
v 0.915388 0.044723 0.131795
v 0.868286 0.044723 0.084693
v -0.815526 0.044723 -0.705577
v -0.899373 0.044723 -0.631222
v -0.954744 0.044723 -0.541048
v -0.949997 0.044723 -0.001582
v -0.904119 0.044723 0.041132
v 0.136844 0.044723 0.036386
v 0.182722 0.044723 -0.030058
v 0.179558 0.044723 -0.654952
v 0.136844 0.044723 -0.705577
v -0.766433 -0.079424 -0.670518
v -0.845561 -0.079424 -0.600347
v -0.897816 -0.079424 -0.515247
v -0.893337 -0.079424 -0.006134
v -0.850040 -0.079424 0.034177
v 0.132352 -0.079424 0.029698
v 0.175649 -0.079424 -0.033008
v 0.172663 -0.079424 -0.622742
v 0.132352 -0.079424 -0.670518
v 0.221932 -0.079424 -0.622742
v 0.254778 -0.079424 -0.666039
v 0.759411 -0.079424 -0.666039
v 0.846005 -0.079424 -0.613784
v 0.901246 -0.079424 -0.518233
v 0.904232 -0.079424 -0.034501
v 0.857949 -0.079424 0.023726
v 0.251792 -0.079424 0.028205
v 0.220439 -0.079424 -0.031515
v -0.854519 -0.079424 0.072994
v -0.891844 -0.079424 0.123756
v -0.897816 -0.079424 0.494020
v -0.839589 -0.079424 0.592558
v -0.738066 -0.079424 0.650785
v 0.738509 -0.079424 0.650785
v 0.843019 -0.079424 0.589572
v 0.899753 -0.079424 0.499992
v 0.902739 -0.079424 0.108826
v 0.856456 -0.079424 0.062544
v -0.743964 -0.021010 -0.640114
v -0.812166 -0.021010 -0.579633
v -0.857206 -0.021010 -0.506283
v -0.853345 -0.021010 -0.067471
v -0.816027 -0.021010 -0.032726
v 0.030713 -0.021010 -0.036587
v 0.068032 -0.021010 -0.090634
v 0.065458 -0.021010 -0.598935
v 0.030713 -0.021010 -0.640114
v 0.287332 -0.021010 -0.611751
v 0.317035 -0.021010 -0.650905
v 0.773389 -0.021010 -0.650905
v 0.851698 -0.021010 -0.603650
v 0.901654 -0.021010 -0.517240
v 0.904354 -0.021010 -0.079788
v 0.862499 -0.021010 -0.027132
v 0.314335 -0.021010 -0.023081
v 0.285981 -0.021010 -0.077088
v -0.733500 -0.021010 0.146070
v -0.765407 -0.021010 0.189463
v -0.770512 -0.021010 0.505982
v -0.720737 -0.021010 0.590216
v -0.633950 -0.021010 0.639992
v 0.628294 -0.021010 0.639992
v 0.717634 -0.021010 0.587664
v 0.766133 -0.021010 0.511087
v 0.768686 -0.021010 0.176701
v 0.729121 -0.021010 0.137136
v 0.966866 0.000000 -0.626810
v 0.875997 0.000000 -0.717679
v 0.966866 0.044723 -0.626810
v 0.875997 0.044723 -0.717679
vt 0.000000 0.142743
vt 0.022628 0.149352
vt 0.053478 0.079910
vt 0.107266 0.038937
vt 0.889570 0.038561
vt 0.944941 0.081639
vt 0.974999 0.144700
vt 0.976581 0.420099
vt 1.000000 0.142743
vt 0.981851 0.084508
vt 0.936417 0.024122
vt 0.892601 0.000000
vt 0.107399 0.000000
vt 0.063584 0.024122
vt 0.018149 0.084508
vt 0.936416 0.975878
vt 0.936416 0.975878
vt 0.981851 0.915492
vt 0.981851 0.915492
vt 0.000000 0.857257
vt 0.018149 0.915492
vt 0.063584 0.975878
vt 0.107399 1.000000
vt 0.892601 1.000000
vt 1.000000 0.857257
vt 0.952851 0.861653
vt 0.933866 0.918424
vt 0.900644 0.955220
vt 0.633284 0.952066
vt 0.615882 0.921578
vt 0.615091 0.514718
vt 0.591361 0.519975
vt 0.589779 0.921578
vt 0.568422 0.948912
vt 0.077208 0.936296
vt 0.045567 0.888987
vt 0.025001 0.842729
vt 0.107266 0.038937
vt 0.889570 0.038561
vt 0.933866 0.918424
vt 0.900644 0.955220
vt 0.053478 0.079910
vt 0.025792 0.412869
vt 0.025001 0.519975
vt 0.047940 0.489487
vt 0.568422 0.488436
vt 0.631702 0.476871
vt 0.929120 0.480025
vt 0.952850 0.521026
vt 0.952059 0.452680
vt 0.045567 0.446247
vt 0.000000 0.142743
vt 0.018149 0.084508
vt 0.063584 0.024122
vt 0.107399 0.000000
vt 0.892601 0.000000
vt 0.936417 0.024122
vt 0.981851 0.084508
vt 1.000000 0.142743
vt 0.976581 0.420099
vt 0.974999 0.144700
vt 0.944941 0.081639
vt 0.889570 0.038561
vt 0.107266 0.038937
vt 0.053478 0.079910
vt 0.022628 0.149352
vt 0.936416 0.975878
vt 0.981851 0.915492
vt 0.981851 0.915492
vt 0.936416 0.975878
vt 0.000000 0.857257
vt 0.025001 0.842729
vt 0.045567 0.888987
vt 0.077208 0.936296
vt 0.568422 0.948912
vt 0.589779 0.921578
vt 0.591361 0.519975
vt 0.615091 0.514718
vt 0.615882 0.921578
vt 0.633284 0.952066
vt 0.900644 0.955220
vt 0.933866 0.918424
vt 0.952851 0.861653
vt 1.000000 0.857257
vt 0.892601 1.000000
vt 0.107399 1.000000
vt 0.063584 0.975878
vt 0.018149 0.915492
vt 0.045567 0.888987
vt 0.077208 0.936296
vt 0.952850 0.521026
vt 0.952851 0.861653
vt 0.952850 0.521026
vt 0.944941 0.081639
vt 0.889570 0.038561
vt 0.025792 0.412869
vt 0.045567 0.446247
vt 0.952059 0.452680
vt 0.929120 0.480025
vt 0.631702 0.476871
vt 0.568422 0.488436
vt 0.047940 0.489487
vt 0.025001 0.519975
vt 0.000000 0.000000
vt 0.000000 0.000000
vt 0.000000 0.000000
vt 0.000000 0.000000
vt 0.000000 0.000000
vt 0.000000 0.000000
vt 0.000000 0.000000
vt 0.000000 0.000000
vt 0.000000 0.000000
vt 0.000000 0.000000
vt 0.000000 0.000000
vt 0.000000 0.000000
vt 0.000000 0.000000
vt 0.000000 0.000000
vt 0.000000 0.000000
vt 0.000000 0.000000
vt 0.000000 0.000000
vt 0.000000 0.000000
vt 0.000000 0.000000
vt 0.000000 0.000000
vt 0.000000 0.000000
vt 0.000000 0.000000
vt 0.000000 0.000000
vt 0.000000 0.000000
vt 0.000000 0.000000
vt 0.000000 0.000000
vt 0.000000 0.000000
vt 0.000000 0.000000
vt 0.000000 0.000000
vt 0.000000 0.000000
vt 0.000000 0.000000
vt 0.000000 0.000000
vt 0.936416 0.975878
vt 0.981851 0.915492
vt 0.000000 0.000000
vt 0.000000 0.000000
vt 0.000000 0.000000
vt 0.000000 0.000000
vt 0.952851 0.861653
vt 0.952850 0.521026
vt 0.929120 0.480025
vt 0.631702 0.476871
vt 0.615091 0.514718
vt 0.615882 0.921578
vt 0.633284 0.952066
vt 0.589779 0.921578
vt 0.591361 0.519975
vt 0.568422 0.488436
vt 0.047940 0.489487
vt 0.025001 0.519975
vt 0.025001 0.842729
vt 0.045567 0.888987
vt 0.077208 0.936296
vt 0.568422 0.948912
vt 0.022628 0.149352
vt 0.025792 0.412869
vt 0.045567 0.446247
vt 0.952059 0.452680
vt 0.976581 0.420099
vt 0.974999 0.144700
vt 0.944941 0.081639
vt 0.933866 0.918424
vt 0.900644 0.955220
vt 0.633284 0.952066
vt 0.615882 0.921578
vt 0.615091 0.514718
vt 0.631702 0.476871
vt 0.929120 0.480025
vt 0.589779 0.921578
vt 0.568422 0.948912
vt 0.025001 0.842729
vt 0.025001 0.519975
vt 0.047940 0.489487
vt 0.568422 0.488436
vt 0.591361 0.519975
vt 0.022628 0.149352
vt 0.053478 0.079910
vt 0.107266 0.038937
vt 0.974999 0.144700
vt 0.976581 0.420099
vt 0.952059 0.452680
vt 0.045567 0.446247
vt 0.025792 0.412869
vt 0.936416 0.975878
vt 0.981851 0.915492
vn 0.0000 -1.0000 0.0000
vn 0.0000 -0.4822 0.8761
vn 0.4337 -0.5435 -0.7187
vn -0.3934 -0.6123 0.6858
vn 0.0000 1.0000 -0.0000
vn 0.5102 0.6392 0.5754
vn -0.8671 0.4981 0.0054
vn -0.2815 0.8306 -0.4805
vn -0.3827 0.0000 0.9239
vn -0.5633 0.0000 -0.8263
vn 0.4472 0.0000 0.8944
vn 0.3827 0.0000 -0.9239
vn 0.0000 0.0000 1.0000
vn -0.6425 0.0000 -0.7663
vn 0.0000 0.0000 -1.0000
vn 0.3827 0.0000 0.9239
vn -0.5666 0.0000 0.8240
vn -0.3827 0.0000 -0.9239
vn 0.7071 0.0000 0.7071
vn -0.4670 0.0000 0.8842
vn -0.7071 0.0000 -0.7071
vn 0.9239 0.0000 0.3827
vn 0.4407 0.0000 0.8977
vn -1.0000 0.0000 0.0000
vn 0.6750 0.0000 -0.7379
vn -0.9239 0.0000 -0.3827
vn 1.0000 0.0000 0.0000
vn 0.5250 0.0000 0.8511
vn -0.9239 0.0000 0.3827
vn 0.5092 0.0000 -0.8607
vn 0.9239 0.0000 -0.3827
vn -0.7071 0.0000 0.7071
vn 0.3357 0.0000 -0.9420
vn -0.4472 0.0000 -0.8944
vn 0.7051 -0.5802 -0.4076
vn 0.4075 -0.5915 0.6958
vn 0.8439 -0.5365 -0.0052
vn -0.5332 -0.5950 -0.6013
vn 0.6699 -0.6093 0.4243
vn 0.6945 -0.4615 0.5520
vn -0.6717 -0.6154 -0.4124
vn 0.8438 -0.5366 0.0064
vn 0.0074 -0.0839 0.9964
vn -0.8139 -0.5810 0.0072
vn 0.6680 -0.3281 -0.6680
vn -0.8818 0.0905 0.4629
vn -0.6026 -0.4670 0.6472
vn -0.0061 0.1118 -0.9937
vn -0.9925 0.1219 -0.0025
vn 0.0045 -0.0842 0.9964
vn 0.8193 -0.0940 0.5657
vn 0.9961 -0.0885 -0.0050
vn 0.7263 -0.3116 -0.6128
vn -0.7257 -0.4343 -0.5336
vn 0.0000 -0.4038 -0.9148
vn -0.8154 -0.5787 -0.0132
vn -0.7883 -0.1449 -0.5980
vn -0.6601 -0.6419 0.3901
vn 0.0000 -0.4012 -0.9160
vn -0.3730 0.8973 -0.2362
vn -0.6125 0.6228 -0.4868
vn 0.6420 0.6576 0.3942
vn -0.4097 0.9122 -0.0031
vn -0.0062 0.5506 -0.8348
vn 0.7665 0.6422 -0.0067
vn -0.3087 0.8997 0.3087
vn 0.6827 0.6367 -0.3584
vn 0.4859 0.7010 -0.5219
vn 0.0048 0.6174 0.7866
vn 0.8428 0.5382 0.0021
vn -0.0039 0.5348 -0.8450
vn -0.5508 0.7429 -0.3803
vn -0.7122 0.7020 0.0036
vn -0.5238 0.7283 0.4419
vn 0.3376 0.9079 0.2483
vn -0.0000 0.4913 0.8710
vn 0.4100 0.9121 0.0066
vn 0.6199 0.6281 0.4703
vn 0.3764 0.8993 -0.2224
vn -0.0000 0.4969 0.8678
vn 0.2780 0.8293 -0.4847
vn -0.4321 0.5483 0.7160
vn 0.0000 0.5505 -0.8348
vn -0.7257 0.5453 0.4195
vn 0.7071 0.0000 -0.7071
usemtl None
s off
f 4/1/1 39/2/1 40/3/1 41/4/1 42/5/1 43/6/1 44/7/1 45/8/1 5/9/1 6/10/1 7/11/1 8/12/1 1/13/1 2/14/1 3/15/1
f 14/16/1 17/17/1 18/18/1 15/19/1
f 12/20/1 11/21/1 9/22/1 10/23/1 13/24/1 14/16/1 15/19/1 16/25/1 32/26/1 31/27/1 30/28/1 29/29/1 28/30/1 36/31/1 25/32/1 26/33/1 27/34/1 19/35/1 20/36/1 21/37/1
f 42/5/2 41/4/2 133/38/2 134/39/2
f 30/28/3 31/27/3 123/40/3 122/41/3
f 41/4/4 40/3/4 132/42/4 133/38/4
f 38/43/1 39/2/1 4/1/1 12/20/1 21/37/1 22/44/1 23/45/1 24/46/1 25/32/1 36/31/1 35/47/1 34/48/1 33/49/1 32/26/1 16/25/1 5/9/1 45/8/1 46/50/1 37/51/1
f 57/52/5 58/53/5 59/54/5 60/55/5 61/56/5 62/57/5 63/58/5 64/59/5 100/60/5 99/61/5 98/62/5 97/63/5 96/64/5 95/65/5 94/66/5
f 67/67/5 66/68/5 72/69/5 73/70/5
f 56/71/5 76/72/5 75/73/5 74/74/5 82/75/5 81/76/5 80/77/5 91/78/5 83/79/5 84/80/5 85/81/5 86/82/5 87/83/5 65/84/5 66/68/5 67/67/5 68/85/5 69/86/5 70/87/5 71/88/5
f 74/74/6 75/73/6 140/89/6 139/90/6
f 88/91/7 87/83/7 152/92/7 153/93/7
f 97/63/8 98/62/8 163/94/8 162/95/8
f 93/96/5 92/97/5 101/98/5 100/60/5 64/59/5 65/84/5 87/83/5 88/91/5 89/99/5 90/100/5 91/78/5 80/77/5 79/101/5 78/102/5 77/103/5 76/72/5 56/71/5 57/52/5 94/66/5
f 2/14/9 1/13/9 60/55/9 59/54/9
f 22/104/10 50/105/10 105/106/10 77/107/10
f 15/19/11 18/18/11 72/69/11 66/68/11
f 14/16/12 13/24/12 68/85/12 67/67/12
f 1/13/13 8/12/13 61/56/13 60/55/13
f 23/108/14 51/109/14 106/110/14 78/111/14
f 13/24/15 10/23/15 69/86/15 68/85/15
f 8/12/16 7/11/16 62/57/16 61/56/16
f 24/112/17 52/113/17 107/114/17 79/115/17
f 10/23/18 9/22/18 70/87/18 69/86/18
f 7/11/19 6/10/19 63/58/19 62/57/19
f 25/116/20 53/117/20 108/118/20 80/119/20
f 9/22/21 11/21/21 71/88/21 70/87/21
f 6/10/22 5/9/22 64/59/22 63/58/22
f 26/120/23 54/121/23 109/122/23 81/123/23
f 12/20/24 4/1/24 57/52/24 56/71/24
f 19/124/25 47/125/25 102/126/25 74/127/25
f 11/21/26 12/20/26 56/71/26 71/88/26
f 5/9/27 16/25/27 65/84/27 64/59/27
f 27/128/28 55/129/28 110/130/28 82/131/28
f 4/1/29 3/15/29 58/53/29 57/52/29
f 20/132/30 48/133/30 103/134/30 75/135/30
f 18/18/13 17/17/13 168/136/13 167/137/13
f 16/25/31 15/19/31 66/68/31 65/84/31
f 3/15/32 2/14/32 59/54/32 58/53/32
f 21/138/33 49/139/33 104/140/33 76/141/33
f 17/17/34 14/16/34 67/67/34 73/70/34
f 123/40/1 124/142/1 125/143/1 126/144/1 127/145/1 128/146/1 120/147/1 121/148/1 122/41/1
f 118/149/1 117/150/1 116/151/1 115/152/1 114/153/1 113/154/1 112/155/1 111/156/1 119/157/1
f 131/158/1 130/159/1 129/160/1 138/161/1 137/162/1 136/163/1 135/164/1 134/39/1 133/38/1 132/42/1
f 31/27/35 32/26/35 124/142/35 123/40/35
f 43/6/36 42/5/36 134/39/36 135/164/36
f 32/26/37 33/49/37 125/143/37 124/142/37
f 20/36/38 19/35/38 111/156/38 112/155/38
f 44/7/39 43/6/39 135/164/39 136/163/39
f 33/49/40 34/48/40 126/144/40 125/143/40
f 21/37/41 20/36/41 112/155/41 113/154/41
f 45/8/42 44/7/42 136/163/42 137/162/42
f 34/48/43 35/47/43 127/145/43 126/144/43
f 22/44/44 21/37/44 113/154/44 114/153/44
f 46/50/45 45/8/45 137/162/45 138/161/45
f 35/47/46 36/31/46 128/146/46 127/145/46
f 23/45/47 22/44/47 114/153/47 115/152/47
f 37/51/48 46/50/48 138/161/48 129/160/48
f 36/31/49 28/30/49 120/147/49 128/146/49
f 24/46/50 23/45/50 115/152/50 116/151/50
f 25/32/51 24/46/51 116/151/51 117/150/51
f 26/33/52 25/32/52 117/150/52 118/149/52
f 27/34/53 26/33/53 118/149/53 119/157/53
f 38/43/54 37/51/54 129/160/54 130/159/54
f 19/35/55 27/34/55 119/157/55 111/156/55
f 39/2/56 38/43/56 130/159/56 131/158/56
f 28/30/57 29/29/57 121/148/57 120/147/57
f 40/3/58 39/2/58 131/158/58 132/42/58
f 29/29/59 30/28/59 122/41/59 121/148/59
f 151/165/5 150/166/5 149/167/5 148/168/5 156/169/5 155/170/5 154/171/5 153/93/5 152/92/5
f 146/172/5 147/173/5 139/90/5 140/89/5 141/174/5 142/175/5 143/176/5 144/177/5 145/178/5
f 159/179/5 160/180/5 161/181/5 162/95/5 163/94/5 164/182/5 165/183/5 166/184/5 157/185/5 158/186/5
f 98/62/60 99/61/60 164/182/60 163/94/60
f 89/99/61 88/91/61 153/93/61 154/171/61
f 75/73/62 76/72/62 141/174/62 140/89/62
f 99/61/63 100/60/63 165/183/63 164/182/63
f 90/100/64 89/99/64 154/171/64 155/170/64
f 76/72/65 77/103/65 142/175/65 141/174/65
f 100/60/66 101/98/66 166/184/66 165/183/66
f 91/78/67 90/100/67 155/170/67 156/169/67
f 77/103/68 78/102/68 143/176/68 142/175/68
f 101/98/69 92/97/69 157/185/69 166/184/69
f 83/79/70 91/78/70 156/169/70 148/168/70
f 78/102/71 79/101/71 144/177/71 143/176/71
f 79/101/72 80/77/72 145/178/72 144/177/72
f 80/77/73 81/76/73 146/172/73 145/178/73
f 81/76/74 82/75/74 147/173/74 146/172/74
f 92/97/75 93/96/75 158/186/75 157/185/75
f 82/75/76 74/74/76 139/90/76 147/173/76
f 93/96/77 94/66/77 159/179/77 158/186/77
f 84/80/78 83/79/78 148/168/78 149/167/78
f 94/66/79 95/65/79 160/180/79 159/179/79
f 85/81/80 84/80/80 149/167/80 150/166/80
f 95/65/81 96/64/81 161/181/81 160/180/81
f 86/82/82 85/81/82 150/166/82 151/165/82
f 96/64/83 97/63/83 162/95/83 161/181/83
f 87/83/84 86/82/84 151/165/84 152/92/84
f 167/137/85 168/136/85 170/187/85 169/188/85
f 72/69/13 18/18/13 167/137/13 169/188/13
f 17/17/13 73/70/13 170/187/13 168/136/13
f 73/70/13 72/69/13 169/188/13 170/187/13
