# Blender 4.5.3 LTS
# www.blender.org
mtllib visitationbooth.mtl
o Cube.001
v 2.634774 6.794655 0.138617
v 2.634774 6.794655 -0.138616
v 2.634774 -5.190134 0.138616
v 2.634774 -5.190134 -0.138617
v -2.634774 6.794655 0.138617
v -2.634774 6.794655 -0.138616
v -2.634774 -5.190134 0.138616
v -2.634774 -5.190134 -0.138617
v 2.634774 0.138616 -6.794655
v 2.634774 -0.138616 -6.794655
v 2.634774 0.138616 0.066581
v 2.634774 -0.138616 0.066581
v -2.634774 0.138616 -6.794655
v -2.634774 -0.138616 -6.794655
v -2.634774 0.138616 0.066581
v -2.634774 -0.138616 0.066581
v 2.634774 6.794655 -6.520354
v 2.634774 6.794655 -6.797587
v 2.634774 -5.190133 -6.520355
v 2.634774 -5.190133 -6.797587
v -2.634774 6.794655 -6.520354
v -2.634774 6.794655 -6.797587
v -2.634774 -5.190133 -6.520355
v -2.634774 -5.190133 -6.797587
v 2.634774 6.794655 -0.138616
v -2.634774 6.794655 -0.138616
v 2.634774 6.794655 0.138617
v -2.634774 6.794655 0.138617
v 2.634774 6.794655 -6.797587
v -2.634774 6.794655 -6.797587
v 2.634774 6.794655 -6.520354
v -2.634774 6.794655 -6.520354
v 2.634774 6.794655 -6.520354
v 2.634774 -5.190133 -6.520355
v -2.634774 6.794655 -6.520354
v -2.634774 -5.190133 -6.520355
v -0.015230 -5.190133 -6.520355
v -0.015230 6.794655 -6.520354
v 0.128521 -5.190134 -0.138617
v 0.439401 -0.159428 -0.138616
v -0.555610 -0.152295 -0.138616
v 0.439401 -0.159428 -6.584950
v 0.128521 -5.190134 -6.584950
v -0.555610 -0.152295 -6.584950
vn -0.0000 -0.0000 1.0000
vn -0.0000 -1.0000 -0.0000
vn -1.0000 -0.0000 -0.0000
vn -0.0000 -0.0000 -1.0000
vn 1.0000 -0.0000 -0.0000
vn -0.0000 1.0000 -0.0000
vn 0.0072 1.0000 -0.0000
vn -0.9909 -0.1346 -0.0000
vn 0.9981 -0.0617 -0.0000
vt 0.625000 0.500000
vt 0.875000 0.500000
vt 0.875000 0.750000
vt 0.625000 0.750000
vt 0.375000 0.750000
vt 0.625000 1.000000
vt 0.375000 1.000000
vt 0.375000 0.868903
vt 0.375000 0.000000
vt 0.625000 0.000000
vt 0.625000 0.250000
vt 0.375000 0.250000
vt 0.125000 0.500000
vt 0.375000 0.500000
vt 0.270846 0.645061
vt 0.223641 0.644912
vt 0.125000 0.750000
vt 0.750723 0.500000
vt 0.750723 0.750000
vt 0.256097 0.750000
s 0
usemtl Material.001
f 1/1/1 5/2/1 7/3/1 3/4/1
f 4/5/2 3/4/2 7/6/2 8/7/2 39/8/2
f 8/9/3 7/10/3 5/11/3 6/12/3
f 6/13/4 2/14/4 4/5/4 40/15/4 41/16/4 8/17/4
f 2/14/5 1/1/5 3/4/5 4/5/5
f 5/2/1 1/1/1 27/1/1 28/2/1
f 26/12/6 28/11/6 27/1/6 25/14/6
f 1/1/1 2/14/1 25/14/1 27/1/1
f 6/12/1 5/11/1 28/11/1 26/12/1
f 2/14/1 6/13/1 26/13/1 25/14/1
f 43/20/4 44/16/4 42/15/4
f 8/17/4 41/16/4 39/20/4
f 39/20/4 40/15/4 4/5/4
f 41/16/7 40/15/7 42/15/7 44/16/7
f 39/20/8 41/16/8 44/16/8 43/20/8
f 40/15/9 39/20/9 43/20/9 42/15/9
usemtl Material
f 9/1/6 13/2/6 15/3/6 11/4/6
f 12/5/1 11/4/1 15/6/1 16/7/1
f 16/9/3 15/10/3 13/11/3 14/12/3
f 14/13/2 10/14/2 12/5/2 16/17/2
f 10/14/5 9/1/5 11/4/5 12/5/5
f 14/12/4 13/11/4 9/1/4 10/14/4
usemtl Material.002
f 17/1/1 18/14/1 29/14/1 31/1/1
f 33/1/1 38/18/1 37/19/1 34/4/1
f 20/5/2 19/4/2 23/6/2 24/7/2
f 24/9/3 23/10/3 21/11/3 22/12/3
f 22/13/4 18/14/4 20/5/4 24/17/4
f 18/14/5 17/1/5 19/4/5 20/5/5
f 30/12/6 32/11/6 31/1/6 29/14/6
f 22/12/1 21/11/1 32/11/1 30/12/1
f 18/14/1 22/13/1 30/13/1 29/14/1
f 21/2/1 17/1/1 31/1/1 32/2/1
f 38/18/1 35/2/1 36/3/1 37/19/1
